<svg width="375" height="266" viewBox="0 0 375 266" fill="none" xmlns="http://www.w3.org/2000/svg">
<path d="M375 242.02H0L98.53 209.85H276.47L375 242.02Z" fill="white"/>
<path d="M290.39 117.18V204.3C290.387 205.924 289.74 207.48 288.591 208.628C287.442 209.775 285.884 210.42 284.26 210.42H92.5099C90.8858 210.42 89.3282 209.775 88.1788 208.628C87.0295 207.48 86.3825 205.924 86.3799 204.3V117.18C86.3799 90.1276 97.1263 64.1835 116.255 45.0548C135.384 25.9261 161.328 15.1797 188.38 15.1797C215.432 15.1797 241.376 25.9261 260.505 45.0548C279.633 64.1835 290.38 90.1276 290.38 117.18H290.39Z" fill="white"/>
<path d="M283.7 118.93V210.42H91.9502V118.93C92.2082 93.6721 102.423 69.5362 120.375 51.7666C138.327 33.997 162.566 24.0293 187.825 24.0293C213.085 24.0293 237.323 33.997 255.276 51.7666C273.228 69.5362 283.442 93.6721 283.7 118.93Z" fill="white"/>
<path d="M276.86 119.801V210.431H98.9199V119.801C99.5224 96.6044 109.16 74.5605 125.78 58.3671C142.399 42.1737 164.686 33.1113 187.89 33.1113C211.094 33.1113 233.381 42.1737 250 58.3671C266.62 74.5605 276.257 96.6044 276.86 119.801Z" fill="white"/>
<path d="M49.1602 226.77V47.1699C98.2902 47.1699 98.5902 70.7999 98.5902 119.94V210.52L49.1602 226.77Z" fill="white"/>
<path d="M325.96 226.651V47.0508C276.83 47.0508 276.53 70.6708 276.53 119.811V210.431L325.96 226.651Z" fill="white"/>
<path d="M336.67 47.0508H325.96V226.651H336.67V47.0508Z" fill="white"/>
<rect y="242" width="375" height="24" fill="white"/>
</svg>
