<?xml version="1.0" encoding="UTF-8"?>
<!--Generator: Apple Native CoreSVG 232.5-->
<!DOCTYPE svg
PUBLIC "-//W3C//DTD SVG 1.1//EN"
       "http://www.w3.org/Graphics/SVG/1.1/DTD/svg11.dtd">
<svg version="1.1" xmlns="http://www.w3.org/2000/svg" xmlns:xlink="http://www.w3.org/1999/xlink" width="3300" height="2200">
 <!--glyph: "", point size: 100.0, font version: "19.2d2e1", template writer version: "128"-->
 <style>.monochrome-0 {}
.monochrome-1 {}
.monochrome-2 {}
.monochrome-3 {opacity:0.0;-sfsymbols-clear-behind:true}

.multicolor-0:custom {fill:#5000A0}
.multicolor-1:custom {fill:#8B42FF}
.multicolor-2:custom {fill:#5000A0}
.multicolor-3:custom {fill:#FFFFFF}

.hierarchical-0:secondary {}
.hierarchical-1:tertiary {}
.hierarchical-2:secondary {}
.hierarchical-3:primary {opacity:0.0;-sfsymbols-clear-behind:true}

.SFSymbolsPreview5000A0 {fill:#5000A0;opacity:1.0}
.SFSymbolsPreview8B42FF {fill:#8B42FF;opacity:1.0}
.SFSymbolsPreviewFFFFFF {fill:#FFFFFF;opacity:1.0}
</style>
 <g id="Notes">
  <rect height="2200" id="artboard" style="fill:white;opacity:1" width="3300" x="0" y="0"/>
  <line style="fill:none;stroke:black;opacity:1;stroke-width:0.5;" x1="263" x2="3036" y1="292" y2="292"/>
  <text style="stroke:none;fill:black;font-family:sans-serif;font-size:13;font-weight:bold;" transform="matrix(1 0 0 1 263 322)">Weight/Scale Variations</text>
  <text style="stroke:none;fill:black;font-family:sans-serif;font-size:13;text-anchor:middle;" transform="matrix(1 0 0 1 559.711 322)">Ultralight</text>
  <text style="stroke:none;fill:black;font-family:sans-serif;font-size:13;text-anchor:middle;" transform="matrix(1 0 0 1 856.422 322)">Thin</text>
  <text style="stroke:none;fill:black;font-family:sans-serif;font-size:13;text-anchor:middle;" transform="matrix(1 0 0 1 1153.13 322)">Light</text>
  <text style="stroke:none;fill:black;font-family:sans-serif;font-size:13;text-anchor:middle;" transform="matrix(1 0 0 1 1449.84 322)">Regular</text>
  <text style="stroke:none;fill:black;font-family:sans-serif;font-size:13;text-anchor:middle;" transform="matrix(1 0 0 1 1746.56 322)">Medium</text>
  <text style="stroke:none;fill:black;font-family:sans-serif;font-size:13;text-anchor:middle;" transform="matrix(1 0 0 1 2043.27 322)">Semibold</text>
  <text style="stroke:none;fill:black;font-family:sans-serif;font-size:13;text-anchor:middle;" transform="matrix(1 0 0 1 2339.98 322)">Bold</text>
  <text style="stroke:none;fill:black;font-family:sans-serif;font-size:13;text-anchor:middle;" transform="matrix(1 0 0 1 2636.69 322)">Heavy</text>
  <text style="stroke:none;fill:black;font-family:sans-serif;font-size:13;text-anchor:middle;" transform="matrix(1 0 0 1 2933.4 322)">Black</text>
  <line style="fill:none;stroke:black;opacity:1;stroke-width:0.5;" x1="263" x2="3036" y1="1903" y2="1903"/>
  <g transform="matrix(0.2 0 0 0.2 263 1933)">
   <path d="m46.2402 4.15039c21.5332 0 39.4531-17.8711 39.4531-39.4043s-17.9688-39.4043-39.502-39.4043c-21.4844 0-39.3555 17.8711-39.3555 39.4043s17.9199 39.4043 39.4043 39.4043Zm0-7.42188c-17.7246 0-31.8848-14.209-31.8848-31.9824s14.1113-31.9824 31.8359-31.9824c17.7734 0 32.0312 14.209 32.0312 31.9824s-14.209 31.9824-31.9824 31.9824Zm-17.9688-31.9824c0 2.14844 1.51367 3.61328 3.75977 3.61328h10.498v10.5957c0 2.19727 1.46484 3.71094 3.61328 3.71094 2.24609 0 3.71094-1.51367 3.71094-3.71094v-10.5957h10.5957c2.19727 0 3.71094-1.46484 3.71094-3.61328 0-2.19727-1.51367-3.71094-3.71094-3.71094h-10.5957v-10.5469c0-2.24609-1.46484-3.75977-3.71094-3.75977-2.14844 0-3.61328 1.51367-3.61328 3.75977v10.5469h-10.498c-2.24609 0-3.75977 1.51367-3.75977 3.71094Z"/>
  </g>
  <g transform="matrix(0.2 0 0 0.2 281.506 1933)">
   <path d="m58.5449 14.5508c27.2461 0 49.8047-22.6074 49.8047-49.8047 0-27.2461-22.6074-49.8047-49.8535-49.8047-27.1973 0-49.7559 22.5586-49.7559 49.8047 0 27.1973 22.6074 49.8047 49.8047 49.8047Zm0-8.30078c-23.0469 0-41.4551-18.457-41.4551-41.5039s18.3594-41.5039 41.4062-41.5039 41.5527 18.457 41.5527 41.5039-18.457 41.5039-41.5039 41.5039Zm-22.6562-41.5039c0 2.39258 1.66016 4.00391 4.15039 4.00391h14.3555v14.4043c0 2.44141 1.66016 4.15039 4.05273 4.15039 2.44141 0 4.15039-1.66016 4.15039-4.15039v-14.4043h14.4043c2.44141 0 4.15039-1.61133 4.15039-4.00391 0-2.44141-1.70898-4.15039-4.15039-4.15039h-14.4043v-14.3555c0-2.49023-1.70898-4.19922-4.15039-4.19922-2.39258 0-4.05273 1.70898-4.05273 4.19922v14.3555h-14.3555c-2.49023 0-4.15039 1.70898-4.15039 4.15039Z"/>
  </g>
  <g transform="matrix(0.2 0 0 0.2 304.924 1933)">
   <path d="m74.8535 28.3203c34.8145 0 63.623-28.8086 63.623-63.5742 0-34.8145-28.8574-63.623-63.6719-63.623-34.7656 0-63.5254 28.8086-63.5254 63.623 0 34.7656 28.8086 63.5742 63.5742 63.5742Zm0-9.08203c-30.1758 0-54.4434-24.3164-54.4434-54.4922 0-30.2246 24.2188-54.4922 54.3945-54.4922 30.2246 0 54.541 24.2676 54.541 54.4922 0 30.1758-24.2676 54.4922-54.4922 54.4922Zm-28.8574-54.4922c0 2.58789 1.85547 4.39453 4.58984 4.39453h19.7266v19.7754c0 2.68555 1.85547 4.58984 4.44336 4.58984 2.68555 0 4.54102-1.85547 4.54102-4.58984v-19.7754h19.7754c2.68555 0 4.58984-1.80664 4.58984-4.39453 0-2.73438-1.85547-4.58984-4.58984-4.58984h-19.7754v-19.7266c0-2.73438-1.85547-4.63867-4.54102-4.63867-2.58789 0-4.44336 1.9043-4.44336 4.63867v19.7266h-19.7266c-2.73438 0-4.58984 1.85547-4.58984 4.58984Z"/>
  </g>
  <text style="stroke:none;fill:black;font-family:sans-serif;font-size:13;font-weight:bold;" transform="matrix(1 0 0 1 263 1953)">Design Variations</text>
  <text style="stroke:none;fill:black;font-family:sans-serif;font-size:13;" transform="matrix(1 0 0 1 263 1971)">Symbols are supported in up to nine weights and three scales.</text>
  <text style="stroke:none;fill:black;font-family:sans-serif;font-size:13;" transform="matrix(1 0 0 1 263 1989)">For optimal layout with text and other symbols, vertically align</text>
  <text style="stroke:none;fill:black;font-family:sans-serif;font-size:13;" transform="matrix(1 0 0 1 263 2007)">symbols with the adjacent text.</text>
  <line style="fill:none;stroke:#00AEEF;stroke-width:0.5;opacity:1.0;" x1="776" x2="776" y1="1919" y2="1933"/>
  <g transform="matrix(0.2 0 0 0.2 776 1933)">
   <path d="m16.5527 0.78125c2.58789 0 3.85742-0.976562 4.78516-3.71094l6.29883-17.2363h28.8086l6.29883 17.2363c0.927734 2.73438 2.19727 3.71094 4.73633 3.71094 2.58789 0 4.24805-1.5625 4.24805-4.00391 0-0.830078-0.146484-1.61133-0.537109-2.63672l-22.9004-60.9863c-1.12305-2.97852-3.125-4.49219-6.25-4.49219-3.02734 0-5.07812 1.46484-6.15234 4.44336l-22.9004 61.084c-0.390625 1.02539-0.537109 1.80664-0.537109 2.63672 0 2.44141 1.5625 3.95508 4.10156 3.95508Zm13.4766-28.3691 11.8652-32.8613h0.244141l11.8652 32.8613Z"/>
  </g>
  <line style="fill:none;stroke:#00AEEF;stroke-width:0.5;opacity:1.0;" x1="792.836" x2="792.836" y1="1919" y2="1933"/>
  <text style="stroke:none;fill:black;font-family:sans-serif;font-size:13;font-weight:bold;" transform="matrix(1 0 0 1 776 1953)">Margins</text>
  <text style="stroke:none;fill:black;font-family:sans-serif;font-size:13;" transform="matrix(1 0 0 1 776 1971)">Leading and trailing margins on the left and right side of each symbol</text>
  <text style="stroke:none;fill:black;font-family:sans-serif;font-size:13;" transform="matrix(1 0 0 1 776 1989)">can be adjusted by modifying the x-location of the margin guidelines.</text>
  <text style="stroke:none;fill:black;font-family:sans-serif;font-size:13;" transform="matrix(1 0 0 1 776 2007)">Modifications are automatically applied proportionally to all</text>
  <text style="stroke:none;fill:black;font-family:sans-serif;font-size:13;" transform="matrix(1 0 0 1 776 2025)">scales and weights.</text>
  <g transform="matrix(0.2 0 0 0.2 1289 1933)">
   <path d="m14.209 9.32617 8.49609 8.54492c4.29688 4.3457 9.22852 4.05273 13.8672-1.07422l53.4668-58.9355-4.83398-4.88281-53.0762 58.3984c-1.75781 2.00195-3.41797 2.49023-5.76172 0.146484l-5.85938-5.81055c-2.34375-2.29492-1.80664-4.00391 0.195312-5.81055l57.373-54.0039-4.88281-4.83398-57.959 54.4434c-4.93164 4.58984-5.32227 9.47266-1.02539 13.8184Zm32.0801-90.9668c-2.09961 2.05078-2.24609 4.93164-1.07422 6.88477 1.17188 1.80664 3.4668 2.97852 6.68945 2.14844 7.32422-1.70898 14.9414-2.00195 22.0703 2.68555l-2.92969 7.27539c-1.70898 4.15039-0.830078 7.08008 1.85547 9.81445l11.4746 11.5723c2.44141 2.44141 4.49219 2.53906 7.32422 2.05078l5.32227-0.976562 3.32031 3.36914-0.195312 2.7832c-0.195312 2.49023 0.439453 4.39453 2.88086 6.78711l3.80859 3.71094c2.39258 2.39258 5.46875 2.53906 7.8125 0.195312l14.5508-14.5996c2.34375-2.34375 2.24609-5.32227-0.146484-7.71484l-3.85742-3.80859c-2.39258-2.39258-4.24805-3.17383-6.64062-2.97852l-2.88086 0.244141-3.22266-3.17383 1.2207-5.61523c0.634766-2.83203-0.146484-5.0293-3.07617-7.95898l-10.9863-10.9375c-16.6992-16.6016-38.8672-16.2109-53.3203-1.75781Zm7.4707 1.85547c12.1582-8.88672 28.6133-7.37305 39.7461 3.75977l12.1582 12.0605c1.17188 1.17188 1.36719 2.09961 1.02539 3.80859l-1.61133 7.42188 7.51953 7.42188 4.93164-0.292969c1.26953-0.0488281 1.66016 0.0488281 2.63672 1.02539l2.88086 2.88086-12.207 12.207-2.88086-2.88086c-0.976562-0.976562-1.12305-1.36719-1.07422-2.68555l0.341797-4.88281-7.4707-7.42188-7.61719 1.26953c-1.61133 0.341797-2.34375 0.195312-3.56445-0.976562l-10.0098-10.0098c-1.26953-1.17188-1.41602-2.00195-0.634766-3.85742l4.39453-10.4492c-7.8125-7.27539-17.9688-10.4004-28.125-7.42188-0.78125 0.195312-1.07422-0.439453-0.439453-0.976562Z"/>
  </g>
  <text style="stroke:none;fill:black;font-family:sans-serif;font-size:13;font-weight:bold;" transform="matrix(1 0 0 1 1289 1953)">Exporting</text>
  <text style="stroke:none;fill:black;font-family:sans-serif;font-size:13;" transform="matrix(1 0 0 1 1289 1971)">Symbols should be outlined when exporting to ensure the</text>
  <text style="stroke:none;fill:black;font-family:sans-serif;font-size:13;" transform="matrix(1 0 0 1 1289 1989)">design is preserved when submitting to Xcode.</text>
  <text id="template-version" style="stroke:none;fill:black;font-family:sans-serif;font-size:13;text-anchor:end;" transform="matrix(1 0 0 1 3036 1933)">Template v.4.0</text>
  <text style="stroke:none;fill:black;font-family:sans-serif;font-size:13;text-anchor:end;" transform="matrix(1 0 0 1 3036 1951)">Requires Xcode 14 or greater</text>
  <text id="descriptive-name" style="stroke:none;fill:black;font-family:sans-serif;font-size:13;text-anchor:end;" transform="matrix(1 0 0 1 3036 1969)">Generated from points.purple</text>
  <text style="stroke:none;fill:black;font-family:sans-serif;font-size:13;text-anchor:end;" transform="matrix(1 0 0 1 3036 1987)">Typeset at 100.0 points</text>
  <text style="stroke:none;fill:black;font-family:sans-serif;font-size:13;" transform="matrix(1 0 0 1 263 726)">Small</text>
  <text style="stroke:none;fill:black;font-family:sans-serif;font-size:13;" transform="matrix(1 0 0 1 263 1156)">Medium</text>
  <text style="stroke:none;fill:black;font-family:sans-serif;font-size:13;" transform="matrix(1 0 0 1 263 1586)">Large</text>
 </g>
 <g id="Guides">
  <g id="H-reference" style="fill:#27AAE1;stroke:none;" transform="matrix(1 0 0 1 339 696)">
   <path d="M0.993654 0L3.63775 0L29.3281-67.1323L30.0303-67.1323L30.0303-70.459L28.1226-70.459ZM11.6885-24.4799L46.9815-24.4799L46.2315-26.7285L12.4385-26.7285ZM55.1196 0L57.7637 0L30.6382-70.459L29.4326-70.459L29.4326-67.1323Z"/>
  </g>
  <line id="Baseline-S" style="fill:none;stroke:#27AAE1;opacity:1;stroke-width:0.5;" x1="263" x2="3036" y1="696" y2="696"/>
  <line id="Capline-S" style="fill:none;stroke:#27AAE1;opacity:1;stroke-width:0.5;" x1="263" x2="3036" y1="625.541" y2="625.541"/>
  <g id="H-reference" style="fill:#27AAE1;stroke:none;" transform="matrix(1 0 0 1 339 1126)">
   <path d="M0.993654 0L3.63775 0L29.3281-67.1323L30.0303-67.1323L30.0303-70.459L28.1226-70.459ZM11.6885-24.4799L46.9815-24.4799L46.2315-26.7285L12.4385-26.7285ZM55.1196 0L57.7637 0L30.6382-70.459L29.4326-70.459L29.4326-67.1323Z"/>
  </g>
  <line id="Baseline-M" style="fill:none;stroke:#27AAE1;opacity:1;stroke-width:0.5;" x1="263" x2="3036" y1="1126" y2="1126"/>
  <line id="Capline-M" style="fill:none;stroke:#27AAE1;opacity:1;stroke-width:0.5;" x1="263" x2="3036" y1="1055.54" y2="1055.54"/>
  <g id="H-reference" style="fill:#27AAE1;stroke:none;" transform="matrix(1 0 0 1 339 1556)">
   <path d="M0.993654 0L3.63775 0L29.3281-67.1323L30.0303-67.1323L30.0303-70.459L28.1226-70.459ZM11.6885-24.4799L46.9815-24.4799L46.2315-26.7285L12.4385-26.7285ZM55.1196 0L57.7637 0L30.6382-70.459L29.4326-70.459L29.4326-67.1323Z"/>
  </g>
  <line id="Baseline-L" style="fill:none;stroke:#27AAE1;opacity:1;stroke-width:0.5;" x1="263" x2="3036" y1="1556" y2="1556"/>
  <line id="Capline-L" style="fill:none;stroke:#27AAE1;opacity:1;stroke-width:0.5;" x1="263" x2="3036" y1="1485.54" y2="1485.54"/>
  <line id="left-margin-Regular-M" style="fill:none;stroke:#00AEEF;stroke-width:0.5;opacity:1.0;" x1="1391.32" x2="1391.32" y1="1030.79" y2="1150.12"/>
  <line id="right-margin-Regular-M" style="fill:none;stroke:#00AEEF;stroke-width:0.5;opacity:1.0;" x1="1508.37" x2="1508.37" y1="1030.79" y2="1150.12"/>
 </g>
 <g id="Symbols">
  <g id="Regular-L" transform="matrix(1 0 0 1 1377.06 1556)">
   <path class="monochrome-0 multicolor-0:custom hierarchical-0:secondary SFSymbolsPreview5000A0" d="M110.036 10.34C101.696 15.89 91.9964 19.26 81.8364 20.01C80.3964 20.18 78.9264 20.18 77.4864 20.18C62.2664 20.22 47.6264 14.35 36.6564 3.81C25.6864-6.74 19.2464-21.14 18.6964-36.35C18.1464-51.56 23.5264-66.39 33.6964-77.7C35.2264-79.39 36.8364-80.99 38.5264-82.48C33.3664-78.76 26.6564-73.66 23.6964-70.24C18.6364-64.43 14.7664-57.67 12.3364-50.35C9.9064-43.04 8.9564-35.31 9.5364-27.62C10.6864-12.88 17.3364 0.88 28.1664 10.94C38.9964 21.01 53.2164 26.62 67.9964 26.69C68.7164 26.69 69.4364 26.65 70.1564 26.6C70.8764 26.56 71.5964 26.52 72.3164 26.52C83.9364 25.5 95.0364 21.27 104.386 14.31C106.556 12.76 110.006 10.39 110.006 10.39C110.016 10.38 110.026 10.36 110.036 10.34Z"/>
   <path class="monochrome-1 multicolor-1:custom hierarchical-1:tertiary SFSymbolsPreview8B42FF" d="M77.5864-97.15C76.1464-97.15 74.6764-97.15 73.2364-96.99C58.0564-95.93 43.8764-89.02 33.6964-77.7C23.5264-66.39 18.1464-51.56 18.6964-36.35C19.2464-21.14 25.6864-6.74 36.6564 3.81C47.6264 14.35 62.2664 20.22 77.4864 20.18C78.9264 20.18 80.3964 20.18 81.8364 20.01C97.3464 18.87 111.766 11.61 121.926-0.16C132.096-11.93 137.166-27.26 136.026-42.77C134.886-57.51 128.236-71.28 117.406-81.34C106.576-91.4 92.3664-97.02 77.5864-97.08L77.5864-97.15Z"/>
   <path class="monochrome-2 multicolor-2:custom hierarchical-2:secondary SFSymbolsPreview5000A0" d="M105.266-67.16C97.8264-74.31 87.9064-78.29 77.5864-78.26C77.0864-78.26 76.5864-78.23 76.0964-78.2C75.5964-78.17 75.1064-78.14 74.6064-78.14C64.3064-77.43 54.6964-72.75 47.7864-65.08C40.8864-57.4 37.2264-47.35 37.6064-37.03C37.9764-26.72 42.3464-16.95 49.7964-9.8C57.2364-2.65 67.1664 1.33 77.4864 1.29C77.9664 1.29 78.4564 1.26 78.9464 1.23C79.4464 1.2 79.9364 1.17 80.4364 1.17C90.7364 0.46 100.346-4.22 107.256-11.89C114.156-19.56 117.816-29.62 117.446-39.93C117.066-50.24 112.706-60 105.266-67.16Z"/>
   <path class="monochrome-3 multicolor-3:custom hierarchical-3:primary SFSymbolsPreviewFFFFFF" d="M97.2364-39.08L63.3264-24.91C61.5964-24.18 59.6364-24.17 57.8964-24.88C56.1564-25.59 54.7664-26.97 54.0364-28.7C53.3064-30.44 53.2964-32.39 54.0064-34.13C54.7164-35.88 56.0864-37.26 57.8264-37.99L91.7564-52.16C92.6164-52.56 93.5564-52.77 94.5064-52.8C95.4564-52.83 96.3964-52.66 97.2864-52.32C98.1664-51.97 98.9764-51.45 99.6464-50.79C100.326-50.13 100.866-49.34 101.236-48.46C101.606-47.59 101.796-46.65 101.786-45.7C101.786-44.75 101.596-43.81 101.216-42.93C100.846-42.06 100.296-41.27 99.6164-40.62C98.9364-39.96 98.1264-39.44 97.2364-39.1L97.2364-39.08ZM87.3864-14.99C85.6564-14.27 83.7064-14.27 81.9764-14.98C80.2364-15.69 78.8564-17.06 78.1364-18.79L63.9664-52.73C63.3064-54.44 63.3464-56.35 64.0664-58.04C64.7864-59.73 66.1464-61.08 67.8364-61.79C69.5364-62.5 71.4464-62.52 73.1564-61.85C74.8664-61.19 76.2564-59.88 77.0264-58.2L91.1864-24.27C91.5464-23.41 91.7364-22.49 91.7464-21.56C91.7464-20.63 91.5664-19.71 91.2164-18.84C90.8564-17.98 90.3364-17.2 89.6864-16.54C89.0264-15.88 88.2464-15.35 87.3864-14.99Z"/>
  </g>
  <g id="Regular-M" transform="matrix(1 0 0 1 1391.32 1126)">
   <path class="monochrome-0 multicolor-0:custom hierarchical-0:secondary SFSymbolsPreview5000A0" d="M87.4 0.1C80.94 4.4 73.42 7.02 65.54 7.6C64.43 7.72 63.29 7.72 62.17 7.72C50.38 7.76 39.03 3.21 30.52-4.97C22.02-13.14 17.02-24.3 16.6-36.09C16.17-47.88 20.34-59.38 28.23-68.15C29.41-69.46 30.66-70.7 31.97-71.86C27.97-68.97 22.77-65.02 20.48-62.37C16.55-57.86 13.55-52.62 11.67-46.95C9.78-41.28 9.05-35.29 9.5-29.33C10.39-17.9 15.54-7.23 23.94 0.57C32.34 8.37 43.36 12.72 54.82 12.77C55.38 12.77 55.93 12.74 56.49 12.71C57.05 12.68 57.61 12.64 58.17 12.64C67.17 11.85 75.77 8.57 83.02 3.18C84.71 1.97 87.38 0.14 87.38 0.14C87.39 0.13 87.39 0.11 87.4 0.1Z"/>
   <path class="monochrome-1 multicolor-1:custom hierarchical-1:tertiary SFSymbolsPreview8B42FF" d="M62.25-83.23C61.13-83.23 60-83.23 58.88-83.1C47.11-82.28 36.12-76.92 28.23-68.15C20.34-59.38 16.17-47.89 16.6-36.1C17.02-24.31 22.02-13.14 30.52-4.97C39.03 3.21 50.38 7.76 62.17 7.72C63.29 7.72 64.43 7.72 65.54 7.6C77.57 6.71 88.75 1.09 96.62-8.04C104.5-17.17 108.43-29.05 107.55-41.08C106.66-52.5 101.51-63.17 93.12-70.97C84.73-78.77 73.71-83.13 62.25-83.18L62.25-83.23Z"/>
   <path class="monochrome-2 multicolor-2:custom hierarchical-2:secondary SFSymbolsPreview5000A0" d="M83.71-59.98C77.94-65.52 70.25-68.61 62.25-68.59C61.86-68.59 61.48-68.56 61.09-68.54C60.71-68.52 60.33-68.49 59.94-68.49C51.96-67.94 44.5-64.31 39.15-58.36C33.8-52.42 30.97-44.62 31.26-36.63C31.55-28.63 34.93-21.06 40.7-15.52C46.47-9.97 54.17-6.89 62.17-6.92C62.55-6.92 62.92-6.94 63.3-6.96C63.69-6.99 64.08-7.01 64.46-7.01C72.44-7.56 79.9-11.19 85.25-17.14C90.6-23.08 93.43-30.87 93.15-38.87C92.86-46.86 89.47-54.43 83.71-59.98Z"/>
   <path class="monochrome-3 multicolor-3:custom hierarchical-3:primary SFSymbolsPreviewFFFFFF" d="M77.48-38.21L51.2-27.23C49.85-26.66 48.34-26.65 46.99-27.21C45.64-27.76 44.56-28.82 43.99-30.17C43.43-31.51 43.42-33.03 43.97-34.38C44.52-35.73 45.59-36.8 46.93-37.37L73.23-48.35C73.9-48.66 74.63-48.83 75.36-48.85C76.1-48.87 76.83-48.74 77.52-48.47C78.2-48.21 78.83-47.8 79.35-47.29C79.88-46.78 80.3-46.16 80.58-45.48C80.87-44.8 81.01-44.08 81.01-43.34C81.01-42.6 80.86-41.88 80.57-41.2C80.28-40.52 79.86-39.91 79.33-39.4C78.8-38.89 78.17-38.49 77.48-38.23L77.48-38.21ZM69.85-19.54C68.5-18.98 67-18.98 65.65-19.53C64.31-20.08 63.23-21.14 62.67-22.49L51.69-48.79C51.18-50.12 51.21-51.6 51.77-52.91C52.33-54.22 53.38-55.26 54.69-55.81C56.01-56.37 57.49-56.38 58.82-55.87C60.14-55.35 61.22-54.33 61.81-53.04L72.79-26.73C73.07-26.07 73.22-25.35 73.22-24.63C73.23-23.91 73.09-23.19 72.81-22.52C72.54-21.86 72.14-21.25 71.63-20.74C71.12-20.22 70.51-19.82 69.85-19.54Z"/>
  </g>
  <g id="Regular-S" transform="matrix(1 0 0 1 1401.98 696)">
   <path class="monochrome-0 multicolor-0:custom hierarchical-0:secondary SFSymbolsPreview5000A0" d="M70.4702-7.566C65.4102-4.198 59.5202-2.15 53.3502-1.696C52.4802-1.596 51.5902-1.596 50.7202-1.596C41.4802-1.568 32.5902-5.131 25.9302-11.533C19.2702-17.935 15.3602-26.675 15.0302-35.906C14.6902-45.137 17.9602-54.138 24.1402-61.005C25.0602-62.033 26.0402-63.001 27.0702-63.906C23.9402-61.651 19.8602-58.55 18.0702-56.478C14.9902-52.951 12.6502-48.848 11.1702-44.407C9.70021-39.966 9.12021-35.275 9.47021-30.608C10.1702-21.663 14.2002-13.307 20.7802-7.2C27.3502-1.093 35.9802 2.318 44.9602 2.356C45.3902 2.356 45.8302 2.331 46.2702 2.305C46.7102 2.28 47.1402 2.255 47.5802 2.255C54.6302 1.634 61.3702-0.931 67.0402-5.154C68.3602-6.1 70.4502-7.534 70.4502-7.534C70.4602-7.544 70.4602-7.555 70.4702-7.566Z"/>
   <path class="monochrome-1 multicolor-1:custom hierarchical-1:tertiary SFSymbolsPreview8B42FF" d="M50.7702-72.812C49.9002-72.812 49.0102-72.812 48.1402-72.712C38.9202-72.071 30.3202-67.873 24.1402-61.006C17.9602-54.138 14.6902-45.138 15.0302-35.906C15.3602-26.675 19.2702-17.935 25.9302-11.533C32.5902-5.131 41.4802-1.568 50.7202-1.596C51.5902-1.596 52.4802-1.596 53.3502-1.696C62.7702-2.389 71.5202-6.793 77.6902-13.94C83.8602-21.087 86.9402-30.391 86.2502-39.806C85.5502-48.75 81.5202-57.106 74.9502-63.213C68.3802-69.32 59.7502-72.732 50.7702-72.77L50.7702-72.812Z"/>
   <path class="monochrome-2 multicolor-2:custom hierarchical-2:secondary SFSymbolsPreview5000A0" d="M67.5802-54.608C63.0602-58.95 57.0402-61.367 50.7702-61.348C50.4702-61.348 50.1702-61.33 49.8702-61.312C49.5702-61.294 49.2702-61.276 48.9702-61.276C42.7202-60.845 36.8802-58.001 32.6902-53.344C28.5002-48.688 26.2802-42.584 26.5102-36.323C26.7402-30.062 29.3902-24.135 33.9102-19.794C38.4202-15.454 44.4502-13.04 50.7202-13.063C51.0102-13.063 51.3002-13.08 51.6002-13.098C51.9002-13.116 52.2102-13.134 52.5102-13.134C58.7602-13.565 64.5902-16.409 68.7802-21.064C72.9802-25.719 75.1902-31.82 74.9702-38.08C74.7402-44.339 72.0902-50.266 67.5802-54.608Z"/>
   <path class="monochrome-3 multicolor-3:custom hierarchical-3:primary SFSymbolsPreviewFFFFFF" d="M62.7002-37.562L42.1202-28.962C41.0702-28.52 39.8802-28.513 38.8302-28.945C37.7702-29.376 36.9202-30.21 36.4802-31.263C36.0402-32.316 36.0302-33.501 36.4602-34.559C36.9002-35.617 37.7302-36.46 38.7802-36.902L59.3802-45.502C59.9002-45.742 60.4702-45.874 61.0402-45.89C61.6202-45.906 62.1902-45.807 62.7302-45.597C63.2702-45.388 63.7602-45.072 64.1702-44.67C64.5802-44.268 64.9102-43.787 65.1302-43.255C65.3502-42.724 65.4702-42.153 65.4702-41.577C65.4602-41.001 65.3502-40.431 65.1202-39.901C64.8902-39.372 64.5602-38.893 64.1502-38.493C63.7302-38.094 63.2402-37.782 62.7002-37.576L62.7002-37.562ZM56.7302-22.941C55.6702-22.504 54.4902-22.501 53.4402-22.933C52.3902-23.366 51.5502-24.199 51.1102-25.249L42.5102-45.844C42.1102-46.887 42.1302-48.044 42.5702-49.071C43.0102-50.097 43.8302-50.913 44.8602-51.345C45.8902-51.777 47.0502-51.791 48.0902-51.385C49.1302-50.979 49.9702-50.184 50.4302-49.169L59.0302-28.574C59.2502-28.053 59.3702-27.493 59.3702-26.928C59.3702-26.363 59.2602-25.802 59.0502-25.279C58.8302-24.756 58.5202-24.28 58.1202-23.879C57.7202-23.478 57.2502-23.159 56.7302-22.941Z"/>
  </g>
 </g>
</svg>
