<svg width="375" height="264" viewBox="0 0 375 264" fill="none" xmlns="http://www.w3.org/2000/svg">
<path fill-rule="evenodd" clip-rule="evenodd" d="M375 239.137V263.131H0V239.137V239.131H0.0178215L103.951 205.004H272.28L374.982 239.131H375V239.137Z" fill="white"/>
<path d="M290.39 114.18V201.3C290.387 202.924 289.74 204.48 288.591 205.628C287.442 206.775 285.884 207.42 284.26 207.42H92.51C90.886 207.42 89.3283 206.775 88.179 205.628C87.0297 204.48 86.3827 202.924 86.38 201.3V114.18C86.38 87.1276 97.1264 61.1835 116.255 42.0548C135.384 22.9261 161.328 12.1797 188.38 12.1797C215.432 12.1797 241.376 22.9261 260.505 42.0548C279.634 61.1835 290.38 87.1276 290.38 114.18H290.39Z" fill="white"/>
<path d="M49.1599 223.77V44.1699C98.2899 44.1699 98.5899 67.7999 98.5899 116.94V207.52L49.1599 223.77Z" fill="white"/>
<path d="M49.16 44.1699H38.45V223.77H49.16V44.1699Z" fill="#ADADAD"/>
<path d="M325.96 223.651V44.0508C276.83 44.0508 276.53 67.6708 276.53 116.811V207.431L325.96 223.651Z" fill="white"/>
<path d="M336.68 44.0508H325.97V223.651H336.68V44.0508Z" fill="#ADADAD"/>
<path d="M375 239.02H0L98.53 206.85H276.47L375 239.02Z" fill="url(#paint0_linear_1825_135016)"/>
<path d="M290.39 114.18V201.3C290.387 202.924 289.74 204.48 288.591 205.628C287.442 206.775 285.884 207.42 284.26 207.42H92.5099C90.8858 207.42 89.3282 206.775 88.1788 205.628C87.0295 204.48 86.3825 202.924 86.3799 201.3V114.18C86.3799 87.1276 97.1263 61.1835 116.255 42.0548C135.384 22.9261 161.328 12.1797 188.38 12.1797C215.432 12.1797 241.376 22.9261 260.505 42.0548C279.633 61.1835 290.38 87.1276 290.38 114.18H290.39Z" fill="url(#paint1_linear_1825_135016)"/>
<path d="M283.7 115.93V207.42H91.95V115.93C92.2079 90.6721 102.423 66.5362 120.375 48.7666C138.327 30.997 162.566 21.0293 187.825 21.0293C213.084 21.0293 237.323 30.997 255.275 48.7666C273.227 66.5362 283.442 90.6721 283.7 115.93Z" fill="white"/>
<path d="M276.86 116.801V207.431H98.9199V116.801C99.5224 93.6044 109.16 71.5605 125.78 55.3671C142.399 39.1737 164.686 30.1113 187.89 30.1113C211.094 30.1113 233.381 39.1737 250 55.3671C266.62 71.5605 276.257 93.6044 276.86 116.801Z" fill="url(#paint2_linear_1825_135016)"/>
<path d="M49.1599 223.77V44.1699C98.2899 44.1699 98.5899 67.7999 98.5899 116.94V207.52L49.1599 223.77Z" fill="white"/>
<path d="M49.16 44.1699H38.45V223.77H49.16V44.1699Z" fill="#ADADAD"/>
<path d="M325.96 223.651V44.0508C276.83 44.0508 276.53 67.6708 276.53 116.811V207.431L325.96 223.651Z" fill="white"/>
<path d="M336.68 44.0508H325.97V223.651H336.68V44.0508Z" fill="#ADADAD"/>
<path d="M188 42L169 58L145 53L137 76L113.5 84L118 108L102 126.5L118 145L113 169L136.5 177.5L144.5 200.5L168 196L187.5 212L206 196L230 201L238 178L261.5 170L256.5 146L272.5 127L257 108.5L261.5 85L238.5 76.5L230.5 53.5L206.5 58L188 42Z" fill="url(#paint3_linear_1825_135016)"/>
<path d="M255.89 16.1598C255.879 16.1881 255.86 16.2125 255.835 16.2296C255.81 16.2468 255.78 16.256 255.75 16.256C255.72 16.256 255.69 16.2468 255.665 16.2296C255.64 16.2125 255.621 16.1881 255.61 16.1598C255.13 14.4168 254.254 12.8083 253.05 11.4598C251.749 10.3291 250.167 9.57228 248.47 9.26982C248.435 9.26982 248.402 9.25613 248.378 9.23175C248.354 9.20737 248.34 9.1743 248.34 9.13982C248.34 9.10534 248.354 9.07228 248.378 9.0479C248.402 9.02352 248.435 9.00982 248.47 9.00982C250.167 8.70304 251.75 7.94286 253.05 6.80982C254.258 5.4639 255.134 3.85448 255.61 2.10982C255.621 2.08152 255.64 2.05719 255.665 2.04002C255.69 2.02286 255.72 2.01367 255.75 2.01367C255.78 2.01367 255.81 2.02286 255.835 2.04002C255.86 2.05719 255.879 2.08152 255.89 2.10982C256.37 3.85283 257.246 5.46136 258.45 6.80982C259.75 7.94286 261.333 8.70304 263.03 9.00982C263.064 9.00982 263.098 9.02352 263.122 9.0479C263.146 9.07228 263.16 9.10534 263.16 9.13982C263.16 9.1743 263.146 9.20737 263.122 9.23175C263.098 9.25613 263.064 9.26982 263.03 9.26982C261.333 9.57228 259.751 10.3291 258.45 11.4598C257.25 12.811 256.374 14.4186 255.89 16.1598Z" fill="#FFE01A"/>
<path d="M297.3 27.5192C295.94 27.2792 287.14 25.6992 285.01 23.5692C282.88 21.4392 281.32 12.5692 281.1 11.2992C281.096 11.266 281.096 11.2324 281.1 11.1992C281.095 11.2222 281.095 11.2462 281.1 11.2692C280.87 12.5892 279.29 21.4292 277.15 23.5592C275.01 25.6892 266.15 27.2592 264.88 27.4792H264.78H264.85C266.17 27.6992 275.01 29.2792 277.14 31.4192C279.27 33.5592 280.83 42.3192 281.06 43.6792C281.06 43.6792 281.06 43.7592 281.06 43.7892C281.055 43.7661 281.055 43.7423 281.06 43.7192C281.29 42.3592 282.87 33.5592 285.01 31.4292C287.15 29.2992 295.9 27.7692 297.26 27.5192H297.37H297.3Z" fill="#FFED24"/>
<path d="M130.06 9.14C129.29 9.01 124.34 8.14 123.14 6.91C121.94 5.68 121.06 0.74 120.93 0C120.8 0.75 119.93 5.73 118.7 6.93C117.47 8.13 112.53 9.01 111.79 9.14C112.54 9.27 117.51 10.14 118.72 11.36C119.93 12.58 120.79 17.5 120.92 18.27C120.925 18.2897 120.925 18.3103 120.92 18.33C121.05 17.56 121.92 12.61 123.14 11.41C124.36 10.21 129.28 9.33 130.04 9.2L130.06 9.14Z" fill="#FFED24"/>
<path fill-rule="evenodd" clip-rule="evenodd" d="M106.35 24.3096L100.49 23.1496C100.357 23.1091 100.243 23.0246 100.164 22.9101C100.086 22.7956 100.049 22.6579 100.06 22.5196L100.77 16.6096C100.788 16.4868 100.768 16.3613 100.712 16.2505C100.656 16.1396 100.567 16.0488 100.458 15.9907C100.348 15.9325 100.223 15.9099 100.1 15.9258C99.9765 15.9417 99.8613 15.9955 99.77 16.0796L95.2 19.9196C95.0905 20.023 94.9456 20.0806 94.795 20.0806C94.6444 20.0806 94.4995 20.023 94.39 19.9196L90.16 15.6196C90.0741 15.5428 89.9679 15.4923 89.8541 15.4742C89.7403 15.4561 89.6237 15.4712 89.5183 15.5176C89.4128 15.564 89.3229 15.6398 89.2594 15.7359C89.1959 15.832 89.1613 15.9444 89.16 16.0596L89.32 22.0596C89.321 22.21 89.2664 22.3554 89.1667 22.468C89.0671 22.5806 88.9293 22.6524 88.78 22.6696L82.85 23.2996C82.7286 23.3081 82.6128 23.3539 82.5184 23.4307C82.4241 23.5076 82.3558 23.6117 82.3229 23.7289C82.2901 23.8461 82.2943 23.9705 82.3349 24.0852C82.3755 24.2 82.4507 24.2993 82.55 24.3696L87.31 27.9496C87.4309 28.0397 87.5136 28.172 87.5414 28.3203C87.5692 28.4685 87.5401 28.6218 87.46 28.7496L84.25 33.7496C84.1859 33.8515 84.1538 33.9703 84.1581 34.0905C84.1624 34.2108 84.2027 34.327 84.2739 34.4241C84.3451 34.5211 84.4438 34.5945 84.5572 34.6348C84.6706 34.675 84.7935 34.6802 84.91 34.6496L90.69 33.1696C90.8344 33.1312 90.9881 33.1491 91.1199 33.2197C91.2517 33.2902 91.3518 33.4081 91.4 33.5496L93.34 39.1796C93.3757 39.2959 93.4466 39.3983 93.5428 39.4728C93.639 39.5472 93.7558 39.5901 93.8774 39.5956C93.9989 39.6011 94.1191 39.5689 94.2216 39.5033C94.3242 39.4378 94.4039 39.3422 94.45 39.2296L96.9 33.7996C96.9635 33.6631 97.0752 33.555 97.2136 33.4959C97.3521 33.4368 97.5075 33.431 97.65 33.4796L103.27 35.4796C103.384 35.5216 103.507 35.5282 103.625 35.4985C103.742 35.4688 103.848 35.4043 103.928 35.3134C104.008 35.2225 104.059 35.1095 104.073 34.9892C104.088 34.8689 104.066 34.7471 104.01 34.6396L101.27 29.3596C101.202 29.2241 101.187 29.0682 101.227 28.9221C101.268 28.7761 101.362 28.6504 101.49 28.5696L106.56 25.4396C106.675 25.3806 106.767 25.2861 106.824 25.1703C106.881 25.0544 106.899 24.9234 106.875 24.7965C106.852 24.6697 106.788 24.5538 106.693 24.4661C106.599 24.3784 106.478 24.3235 106.35 24.3096Z" fill="#FFED24"/>
<path d="M126.77 207.891C126.77 206.061 126.77 202.761 126.77 202.761C126.77 202.761 116.54 198.621 110.91 198.621C105.44 198.621 95.0199 202.621 95.0199 202.621V207.941C95.0199 213.061 102.14 217.211 110.91 217.211C119.68 217.211 126.77 213.011 126.77 207.891Z" fill="#FF9F05"/>
<path d="M110.89 211.841C119.666 211.841 126.78 207.69 126.78 202.571C126.78 197.451 119.666 193.301 110.89 193.301C102.114 193.301 95 197.451 95 202.571C95 207.69 102.114 211.841 110.89 211.841Z" fill="#FFC505"/>
<path d="M126.77 199.28C126.77 197.45 126.77 194.15 126.77 194.15C126.77 194.15 116.54 190.01 110.91 190.01C105.44 190.01 95.0199 193.96 95.0199 193.96V199.28C95.0199 204.4 102.14 208.55 110.91 208.55C119.68 208.55 126.77 204.4 126.77 199.28Z" fill="#FF9F05"/>
<path d="M110.89 203.229C119.666 203.229 126.78 199.079 126.78 193.959C126.78 188.84 119.666 184.689 110.89 184.689C102.114 184.689 95 188.84 95 193.959C95 199.079 102.114 203.229 110.89 203.229Z" fill="#FFC505"/>
<path d="M126.77 190.68C126.77 188.84 126.77 185.54 126.77 185.54C126.77 185.54 116.54 181.4 110.91 181.4C105.44 181.4 95.0199 185.4 95.0199 185.4V190.73C95.0199 195.85 102.14 200 110.91 200C119.68 200 126.77 195.8 126.77 190.68Z" fill="#FF9F05"/>
<path d="M110.89 194.62C119.666 194.62 126.78 190.47 126.78 185.35C126.78 180.23 119.666 176.08 110.89 176.08C102.114 176.08 95 180.23 95 185.35C95 190.47 102.114 194.62 110.89 194.62Z" fill="#FFC505"/>
<path d="M126.77 190.68C126.77 188.84 126.77 185.54 126.77 185.54C126.77 185.54 116.54 181.4 110.91 181.4C105.44 181.4 95.0199 185.4 95.0199 185.4V190.73C95.0199 195.85 102.14 200 110.91 200C119.68 200 126.77 195.8 126.77 190.68Z" fill="#FF9F05"/>
<path d="M110.89 194.62C119.666 194.62 126.78 190.47 126.78 185.35C126.78 180.23 119.666 176.08 110.89 176.08C102.114 176.08 95 180.23 95 185.35C95 190.47 102.114 194.62 110.89 194.62Z" fill="#FFE000"/>
<path d="M110.89 191.659C117.319 191.659 122.53 188.834 122.53 185.349C122.53 181.864 117.319 179.039 110.89 179.039C104.461 179.039 99.25 181.864 99.25 185.349C99.25 188.834 104.461 191.659 110.89 191.659Z" fill="#FFC800"/>
<path d="M110.88 188.261C111.202 188.288 111.521 188.189 111.77 187.983C112.019 187.777 112.177 187.482 112.21 187.161V182.211C112.15 181.903 111.985 181.626 111.743 181.427C111.502 181.228 111.198 181.119 110.885 181.119C110.572 181.119 110.268 181.228 110.027 181.427C109.785 181.626 109.62 181.903 109.56 182.211V187.161C109.59 187.481 109.746 187.776 109.993 187.982C110.241 188.188 110.559 188.288 110.88 188.261Z" fill="white"/>
<path d="M107.13 185.79H114.68C114.842 185.821 115.009 185.816 115.169 185.775C115.328 185.734 115.477 185.659 115.604 185.554C115.731 185.448 115.834 185.317 115.904 185.167C115.974 185.018 116.011 184.855 116.011 184.69C116.011 184.525 115.974 184.362 115.904 184.213C115.834 184.064 115.731 183.932 115.604 183.827C115.477 183.722 115.328 183.646 115.169 183.605C115.009 183.564 114.842 183.559 114.68 183.59H107.13C106.968 183.559 106.801 183.564 106.641 183.605C106.482 183.646 106.333 183.722 106.206 183.827C106.078 183.932 105.976 184.064 105.906 184.213C105.836 184.362 105.799 184.525 105.799 184.69C105.799 184.855 105.836 185.018 105.906 185.167C105.976 185.317 106.078 185.448 106.206 185.554C106.333 185.659 106.482 185.734 106.641 185.775C106.801 185.816 106.968 185.821 107.13 185.79Z" fill="white"/>
<path d="M283.15 208.1C283.15 206.26 283.15 202.96 283.15 202.96C283.15 202.96 272.92 198.83 267.29 198.83C261.82 198.83 251.4 202.77 251.4 202.77V208.1C251.4 213.22 258.52 217.37 267.29 217.37C276.06 217.37 283.15 213.22 283.15 208.1Z" fill="#FF9F05"/>
<path d="M267.27 212.04C276.046 212.04 283.16 207.89 283.16 202.77C283.16 197.65 276.046 193.5 267.27 193.5C258.494 193.5 251.38 197.65 251.38 202.77C251.38 207.89 258.494 212.04 267.27 212.04Z" fill="#FFC505"/>
<path d="M283.15 199.52C283.15 197.68 283.15 194.38 283.15 194.38C283.15 194.38 272.92 190.25 267.29 190.25C261.82 190.25 251.4 194.19 251.4 194.19V199.52C251.4 204.64 258.52 208.79 267.29 208.79C276.06 208.79 283.15 204.61 283.15 199.52Z" fill="#FF9F05"/>
<path d="M267.27 203.431C276.046 203.431 283.16 199.28 283.16 194.161C283.16 189.041 276.046 184.891 267.27 184.891C258.494 184.891 251.38 189.041 251.38 194.161C251.38 199.28 258.494 203.431 267.27 203.431Z" fill="#FFC505"/>
<path d="M283.15 190.83C283.15 188.99 283.15 185.69 283.15 185.69C283.15 185.69 272.89 181.52 267.26 181.52C261.79 181.52 251.37 185.46 251.37 185.46V190.79C251.37 195.91 258.49 200.06 267.26 200.06C276.03 200.06 283.15 195.95 283.15 190.83Z" fill="#FF9F05"/>
<path d="M267.27 194.77C276.046 194.77 283.16 190.62 283.16 185.5C283.16 180.381 276.046 176.23 267.27 176.23C258.494 176.23 251.38 180.381 251.38 185.5C251.38 190.62 258.494 194.77 267.27 194.77Z" fill="#FFC505"/>
<path d="M283.15 182.879C283.15 181.049 283.15 177.749 283.15 177.749C283.15 177.749 272.92 173.609 267.29 173.609C261.82 173.609 251.4 177.559 251.4 177.559V182.879C251.4 187.999 258.52 192.149 267.29 192.149C276.06 192.149 283.15 187.999 283.15 182.879Z" fill="#FF9F05"/>
<path d="M267.27 186.829C276.046 186.829 283.16 182.679 283.16 177.559C283.16 172.439 276.046 168.289 267.27 168.289C258.494 168.289 251.38 172.439 251.38 177.559C251.38 182.679 258.494 186.829 267.27 186.829Z" fill="#FFC505"/>
<path d="M283.15 174.27C283.15 172.44 283.15 169.14 283.15 169.14C283.15 169.14 272.92 165 267.29 165C261.82 165 251.4 169 251.4 169V174.32C251.4 179.44 258.52 183.59 267.29 183.59C276.06 183.59 283.15 179.39 283.15 174.27Z" fill="#FF9F05"/>
<path d="M267.27 178.22C276.046 178.22 283.16 174.069 283.16 168.95C283.16 163.83 276.046 159.68 267.27 159.68C258.494 159.68 251.38 163.83 251.38 168.95C251.38 174.069 258.494 178.22 267.27 178.22Z" fill="#FFC505"/>
<path d="M283.15 165.671C283.15 163.831 283.15 160.531 283.15 160.531C283.15 160.531 272.92 156.391 267.29 156.391C261.82 156.391 251.4 160.341 251.4 160.341V165.671C251.4 170.791 258.52 174.941 267.29 174.941C276.06 174.941 283.15 170.791 283.15 165.671Z" fill="#FF9F05"/>
<path d="M267.27 169.61C276.046 169.61 283.16 165.46 283.16 160.34C283.16 155.221 276.046 151.07 267.27 151.07C258.494 151.07 251.38 155.221 251.38 160.34C251.38 165.46 258.494 169.61 267.27 169.61Z" fill="#FFC505"/>
<path d="M283.15 165.671C283.15 163.831 283.15 160.531 283.15 160.531C283.15 160.531 272.92 156.391 267.29 156.391C261.82 156.391 251.4 160.341 251.4 160.341V165.671C251.4 170.791 258.52 174.941 267.29 174.941C276.06 174.941 283.15 170.791 283.15 165.671Z" fill="#FF9F05"/>
<path d="M267.27 169.61C276.046 169.61 283.16 165.46 283.16 160.34C283.16 155.221 276.046 151.07 267.27 151.07C258.494 151.07 251.38 155.221 251.38 160.34C251.38 165.46 258.494 169.61 267.27 169.61Z" fill="#FFE000"/>
<path d="M267.27 166.649C273.699 166.649 278.91 163.824 278.91 160.339C278.91 156.854 273.699 154.029 267.27 154.029C260.841 154.029 255.63 156.854 255.63 160.339C255.63 163.824 260.841 166.649 267.27 166.649Z" fill="#FFC800"/>
<path d="M267.26 163.251C267.582 163.279 267.902 163.179 268.15 162.973C268.399 162.767 268.557 162.472 268.59 162.151V157.201C268.53 156.893 268.365 156.616 268.123 156.417C267.882 156.218 267.578 156.109 267.265 156.109C266.952 156.109 266.648 156.218 266.407 156.417C266.165 156.616 266 156.893 265.94 157.201V162.151C265.971 162.471 266.126 162.767 266.374 162.973C266.621 163.179 266.939 163.279 267.26 163.251Z" fill="white"/>
<path d="M263.49 160.781H271.04C271.202 160.812 271.369 160.806 271.529 160.766C271.688 160.725 271.837 160.649 271.964 160.544C272.091 160.439 272.194 160.307 272.264 160.158C272.334 160.008 272.371 159.845 272.371 159.681C272.371 159.516 272.334 159.353 272.264 159.203C272.194 159.054 272.091 158.922 271.964 158.817C271.837 158.712 271.688 158.637 271.529 158.596C271.369 158.555 271.202 158.55 271.04 158.581H263.49C263.328 158.55 263.161 158.555 263.001 158.596C262.842 158.637 262.693 158.712 262.566 158.817C262.439 158.922 262.336 159.054 262.266 159.203C262.196 159.353 262.159 159.516 262.159 159.681C262.159 159.845 262.196 160.008 262.266 160.158C262.336 160.307 262.439 160.439 262.566 160.544C262.693 160.649 262.842 160.725 263.001 160.766C263.161 160.806 263.328 160.812 263.49 160.781Z" fill="white"/>
<path d="M254.78 213.671C254.78 211.831 254.78 208.531 254.78 208.531C254.78 208.531 244.55 204.391 238.92 204.391C233.45 204.391 223.03 208.341 223.03 208.341V213.671C223.03 218.791 230.14 222.941 238.92 222.941C247.7 222.941 254.78 218.791 254.78 213.671Z" fill="#FF9B05"/>
<path d="M238.89 217.61C247.666 217.61 254.78 213.46 254.78 208.34C254.78 203.221 247.666 199.07 238.89 199.07C230.114 199.07 223 203.221 223 208.34C223 213.46 230.114 217.61 238.89 217.61Z" fill="#FFC505"/>
<path d="M254.78 205.719C254.78 203.879 254.78 200.579 254.78 200.579C254.78 200.579 244.55 196.449 238.92 196.449C233.45 196.449 223.03 200.389 223.03 200.389V205.719C223.03 210.839 230.14 214.989 238.92 214.989C247.7 214.989 254.78 210.839 254.78 205.719Z" fill="#FF8A05"/>
<path d="M238.89 209.661C247.666 209.661 254.78 205.511 254.78 200.391C254.78 195.271 247.666 191.121 238.89 191.121C230.114 191.121 223 195.271 223 200.391C223 205.511 230.114 209.661 238.89 209.661Z" fill="#FFC505"/>
<path d="M254.78 197.11C254.78 195.28 254.78 191.98 254.78 191.98C254.78 191.98 244.55 187.84 238.92 187.84C233.45 187.84 223.03 191.84 223.03 191.84V197.16C223.03 202.28 230.14 206.43 238.92 206.43C247.7 206.43 254.78 202.23 254.78 197.11Z" fill="#FF8A05"/>
<path d="M238.89 201.06C247.666 201.06 254.78 196.909 254.78 191.79C254.78 186.67 247.666 182.52 238.89 182.52C230.114 182.52 223 186.67 223 191.79C223 196.909 230.114 201.06 238.89 201.06Z" fill="#FFC505"/>
<path d="M254.78 188.52C254.78 186.69 254.78 183.39 254.78 183.39C254.78 183.39 244.55 179.25 238.92 179.25C233.45 179.25 223.03 183.2 223.03 183.2V188.52C223.03 193.64 230.14 197.79 238.92 197.79C247.7 197.79 254.78 193.62 254.78 188.52Z" fill="#FF8605"/>
<path d="M238.89 192.45C247.666 192.45 254.78 188.3 254.78 183.18C254.78 178.06 247.666 173.91 238.89 173.91C230.114 173.91 223 178.06 223 183.18C223 188.3 230.114 192.45 238.89 192.45Z" fill="#FFC505"/>
<path d="M254.78 188.52C254.78 186.69 254.78 183.39 254.78 183.39C254.78 183.39 244.55 179.25 238.92 179.25C233.45 179.25 223.03 183.2 223.03 183.2V188.52C223.03 193.64 230.14 197.79 238.92 197.79C247.7 197.79 254.78 193.62 254.78 188.52Z" fill="#FF8605"/>
<path d="M238.89 192.45C247.666 192.45 254.78 188.3 254.78 183.18C254.78 178.06 247.666 173.91 238.89 173.91C230.114 173.91 223 178.06 223 183.18C223 188.3 230.114 192.45 238.89 192.45Z" fill="#FFE000"/>
<path d="M238.89 189.491C245.319 189.491 250.53 186.666 250.53 183.181C250.53 179.696 245.319 176.871 238.89 176.871C232.461 176.871 227.25 179.696 227.25 183.181C227.25 186.666 232.461 189.491 238.89 189.491Z" fill="#FFC800"/>
<path d="M238.89 186.091C239.211 186.118 239.529 186.018 239.776 185.812C240.024 185.606 240.179 185.311 240.21 184.991V180.041C240.15 179.733 239.985 179.456 239.743 179.257C239.502 179.058 239.198 178.949 238.885 178.949C238.572 178.949 238.268 179.058 238.027 179.257C237.785 179.456 237.62 179.733 237.56 180.041V184.991C237.593 185.312 237.751 185.607 238 185.813C238.248 186.019 238.568 186.119 238.89 186.091Z" fill="white"/>
<path d="M235.11 183.62H242.68C242.84 183.646 243.005 183.637 243.161 183.594C243.318 183.551 243.463 183.474 243.587 183.369C243.711 183.263 243.811 183.133 243.879 182.985C243.947 182.838 243.983 182.677 243.983 182.515C243.983 182.352 243.947 182.191 243.879 182.044C243.811 181.896 243.711 181.766 243.587 181.66C243.463 181.555 243.318 181.478 243.161 181.435C243.005 181.392 242.84 181.383 242.68 181.41H235.13C234.97 181.383 234.805 181.392 234.649 181.435C234.492 181.478 234.347 181.555 234.223 181.66C234.099 181.766 233.999 181.896 233.931 182.044C233.863 182.191 233.827 182.352 233.827 182.515C233.827 182.677 233.863 182.838 233.931 182.985C233.999 183.133 234.099 183.263 234.223 183.369C234.347 183.474 234.492 183.551 234.649 183.594C234.805 183.637 234.97 183.646 235.13 183.62H235.11Z" fill="white"/>
<path d="M124.8 196.089C126.16 194.689 128.63 192.199 128.63 192.199C128.63 192.199 139.12 196.309 143.2 200.299C147.28 204.289 151.82 214.589 151.82 214.589L147.87 218.639C144.08 222.549 135.87 220.639 129.47 214.429C123.07 208.219 121.01 199.989 124.8 196.089Z" fill="#FF8605"/>
<path d="M151.82 214.591C148.02 218.491 139.82 216.591 133.42 210.371C129.7 206.731 127.42 202.371 126.95 198.671C126.722 197.5 126.766 196.293 127.078 195.142C127.39 193.991 127.962 192.927 128.75 192.031C129.297 191.474 129.941 191.02 130.65 190.691C133.86 189.241 138.54 190.111 143 192.941C144.492 193.9 145.883 195.009 147.15 196.251C149.248 198.258 150.962 200.63 152.21 203.251C154.26 207.711 154.28 212.051 151.82 214.591Z" fill="url(#paint4_linear_1825_135016)"/>
<path d="M148.73 211.57C146.15 214.22 140.27 212.68 135.61 208.12C133.066 205.803 131.337 202.728 130.68 199.35C130.534 198.592 130.561 197.81 130.761 197.063C130.96 196.317 131.325 195.625 131.83 195.04C134.41 192.39 140.29 193.94 144.95 198.5C146.184 199.687 147.257 201.032 148.14 202.5C150.23 206.08 150.59 209.66 148.73 211.57Z" fill="url(#paint5_linear_1825_135016)"/>
<path d="M152.21 203.269L126.95 198.669C126.722 197.499 126.766 196.291 127.078 195.14C127.39 193.989 127.962 192.925 128.75 192.029C129.297 191.472 129.941 191.018 130.65 190.689L143 192.939C144.492 193.899 145.883 195.008 147.15 196.249C149.25 198.262 150.964 200.641 152.21 203.269Z" fill="#FFEF73"/>
<path d="M148.13 202.52L130.67 199.34C130.524 198.582 130.551 197.8 130.751 197.054C130.95 196.307 131.315 195.616 131.82 195.03C134.4 192.38 140.28 193.93 144.94 198.49C146.177 199.687 147.249 201.042 148.13 202.52Z" fill="#FFC800"/>
<path d="M142.999 192.941L130.649 190.691C133.859 189.241 138.539 190.111 142.999 192.941Z" fill="#FFC300"/>
<path d="M138.13 205.52C138.003 205.413 137.898 205.283 137.822 205.135C137.745 204.988 137.699 204.827 137.685 204.661C137.671 204.496 137.69 204.329 137.74 204.171C137.791 204.013 137.872 203.867 137.98 203.74L141.65 199.97C141.898 199.75 142.224 199.638 142.555 199.656C142.887 199.675 143.197 199.824 143.42 200.07C143.674 200.287 143.832 200.596 143.861 200.929C143.889 201.263 143.784 201.594 143.57 201.85L139.9 205.62C139.651 205.84 139.326 205.953 138.994 205.934C138.663 205.915 138.352 205.767 138.13 205.52Z" fill="white"/>
<path d="M142.699 206.32L137.219 200.96C137.082 200.861 136.967 200.733 136.883 200.586C136.799 200.438 136.748 200.274 136.733 200.105C136.718 199.936 136.74 199.765 136.797 199.605C136.854 199.445 136.945 199.3 137.064 199.178C137.183 199.057 137.326 198.962 137.485 198.901C137.643 198.84 137.813 198.814 137.982 198.825C138.152 198.835 138.317 198.882 138.467 198.963C138.616 199.043 138.747 199.155 138.849 199.29L144.329 204.65C144.582 204.867 144.738 205.175 144.764 205.506C144.79 205.838 144.684 206.166 144.469 206.42C144.347 206.53 144.204 206.615 144.048 206.67C143.893 206.724 143.728 206.747 143.564 206.738C143.399 206.729 143.238 206.687 143.09 206.615C142.941 206.544 142.809 206.443 142.699 206.32Z" fill="white"/>
<path d="M166.87 185.38C165.154 185.05 163.553 184.252 162.232 183.068C161.012 181.647 160.126 179.952 159.644 178.116C159.631 178.087 159.611 178.063 159.586 178.046C159.56 178.029 159.53 178.02 159.5 178.02C159.47 178.02 159.44 178.029 159.414 178.046C159.389 178.063 159.369 178.087 159.356 178.116C158.874 179.952 157.988 181.647 156.768 183.068C155.447 184.252 153.846 185.05 152.13 185.38C152.095 185.38 152.062 185.394 152.038 185.419C152.014 185.445 152 185.479 152 185.515C152 185.55 152.014 185.585 152.038 185.61C152.062 185.635 152.095 185.65 152.13 185.65C153.848 185.975 155.449 186.773 156.768 187.962C157.986 189.38 158.872 191.071 159.356 192.904C159.364 192.937 159.383 192.966 159.409 192.987C159.435 193.008 159.467 193.02 159.5 193.02C159.533 193.02 159.565 193.008 159.591 192.987C159.617 192.966 159.636 192.937 159.644 192.904C160.128 191.071 161.014 189.38 162.232 187.962C163.551 186.773 165.152 185.975 166.87 185.65C166.905 185.65 166.938 185.635 166.962 185.61C166.986 185.585 167 185.55 167 185.515C167 185.479 166.986 185.445 166.962 185.419C166.938 185.394 166.905 185.38 166.87 185.38Z" fill="white"/>
<path d="M142.947 90.0237C142.286 89.9115 137.953 89.1328 136.902 88.0903C135.85 87.0477 135.083 82.7124 134.977 82.0657V82.0195V82.0525C134.864 82.7124 134.084 87.0345 133.032 88.0837C131.981 89.1328 127.642 89.8983 127 90.0105C127.661 90.1226 132 90.8947 133.045 91.9439C134.091 92.993 134.864 97.2953 134.977 97.9618C134.977 97.9618 134.977 98.0014 134.977 98.0146C134.977 98.0278 134.977 98.0146 134.977 97.975C135.089 97.3151 135.87 92.993 136.921 91.9505C137.973 90.9079 142.279 90.1424 142.947 90.0303H143L142.947 90.0237Z" fill="white"/>
<path d="M190.601 88.5791L180.136 148.796C180.118 148.887 180.118 148.982 180.137 149.073C180.156 149.165 180.193 149.252 180.246 149.329C180.299 149.406 180.367 149.471 180.446 149.521C180.525 149.572 180.613 149.606 180.705 149.621L191.052 151.433C190.794 151.171 190.551 150.895 190.324 150.605L190.518 149.479C190.8 149.857 191.097 150.216 191.413 150.591C191.729 150.966 192.113 151.317 192.48 151.669L219.159 156.317C220.881 155.395 222.174 153.836 222.761 151.972C223.253 150.23 223.079 148.366 222.274 146.744C222.31 146.615 222.339 146.483 222.36 146.35C222.434 145.949 222.437 145.538 222.37 145.136C223.066 146.166 223.538 147.331 223.755 148.555C223.973 149.78 223.93 151.036 223.63 152.243C223.052 154.007 221.892 155.522 220.34 156.54L230.007 158.222L240.727 96.5934L191.41 88.0114C191.228 87.9887 191.045 88.0343 190.896 88.1392C190.746 88.2441 190.641 88.4009 190.601 88.5791Z" fill="#FF441A"/>
<path d="M240.762 96.5869L230.042 158.216L220.34 156.537C221.867 155.504 223.002 153.986 223.559 152.229C223.859 151.022 223.901 149.766 223.684 148.541C223.467 147.317 222.995 146.152 222.298 145.122C222.366 145.524 222.362 145.935 222.289 146.335C222.268 146.469 222.239 146.601 222.202 146.73C223.008 148.352 223.182 150.215 222.69 151.958C222.103 153.822 220.81 155.381 219.088 156.302L192.409 151.655C192.042 151.302 191.675 150.95 191.342 150.577C191.008 150.204 190.728 149.843 190.447 149.465L190.253 150.59C190.479 150.88 190.722 151.157 190.981 151.419L180.634 149.607C180.589 149.621 180.541 149.626 180.494 149.62C180.341 149.562 180.213 149.451 180.135 149.306C180.057 149.162 180.034 148.994 180.069 148.834L190.535 88.6172C190.574 88.4315 190.684 88.2685 190.841 88.1621C190.999 88.0557 191.191 88.0142 191.378 88.0463L240.696 96.6282M244.505 93.9348L241.271 93.3753L191.936 84.7949C190.889 84.6129 189.812 84.8544 188.943 85.4663C188.073 86.0781 187.483 87.0103 187.301 88.0576L176.818 148.276C176.661 149.168 176.81 150.086 177.242 150.882C177.674 151.678 178.362 152.305 179.196 152.659C179.48 152.777 179.777 152.862 180.081 152.911L190.41 154.724L200.469 156.458L211.976 158.46L219.75 159.827L229.4 161.51L232.651 162.068L233.227 158.815L243.947 97.1862L244.505 93.9348Z" fill="white"/>
<path d="M250.856 99.0742L240.368 159.24C240.332 159.424 240.226 159.586 240.071 159.693C239.917 159.799 239.727 159.841 239.542 159.809L220.34 156.538C221.867 155.506 223.002 153.988 223.559 152.23C223.859 151.023 223.901 149.767 223.684 148.543C223.467 147.318 222.995 146.153 222.298 145.123C222.366 145.525 222.363 145.936 222.289 146.337C222.268 146.47 222.239 146.602 222.202 146.732C223.008 148.353 223.182 150.217 222.69 151.96C222.103 153.823 220.81 155.382 219.088 156.304L192.409 151.656C192.042 151.304 191.675 150.951 191.342 150.578C191.008 150.205 190.728 149.844 190.447 149.466L200.861 89.6413L250.196 98.2216C250.297 98.2307 250.395 98.2604 250.484 98.309C250.572 98.3576 250.65 98.4239 250.712 98.504C250.774 98.584 250.819 98.6759 250.843 98.7741C250.868 98.8722 250.872 98.9744 250.856 99.0742Z" fill="#4089FF"/>
<path d="M250.431 98.2847C250.578 98.3509 250.7 98.4638 250.776 98.6059C250.853 98.7481 250.881 98.9117 250.856 99.0713L240.368 159.237C240.332 159.421 240.225 159.584 240.071 159.69C239.917 159.796 239.727 159.838 239.542 159.806L220.34 156.536C221.867 155.503 223.001 153.985 223.559 152.227C223.858 151.02 223.901 149.764 223.684 148.54C223.467 147.315 222.994 146.15 222.298 145.12C222.366 145.522 222.362 145.933 222.288 146.334C222.268 146.467 222.239 146.599 222.202 146.729C223.008 148.35 223.182 150.214 222.69 151.957C222.103 153.82 220.81 155.379 219.087 156.301L192.409 151.653C192.042 151.301 191.675 150.948 191.341 150.575C191.008 150.202 190.728 149.841 190.447 149.463L200.861 89.6384L250.196 98.2187L250.353 98.2041M251.634 95.1665C251.357 95.045 251.065 94.96 250.766 94.9135L201.49 86.3979L198.239 85.84L197.681 89.0913L187.267 148.916L187.027 150.31L187.872 151.444C188.174 151.855 188.511 152.263 188.924 152.734C189.275 153.106 189.664 153.509 190.147 153.974L190.863 154.68L191.863 154.851L212.038 158.365L219.812 159.731L238.984 163.058C240.031 163.24 241.108 162.998 241.977 162.386C242.847 161.774 243.437 160.842 243.619 159.795L254.102 99.5769C254.261 98.683 254.11 97.7616 253.675 96.9649C253.239 96.1682 252.545 95.5438 251.707 95.1948L251.634 95.1665Z" fill="white"/>
<path d="M190.601 88.5732L180.136 148.79C180.118 148.881 180.118 148.976 180.137 149.067C180.156 149.159 180.193 149.246 180.246 149.323C180.299 149.4 180.367 149.465 180.446 149.516C180.525 149.566 180.613 149.6 180.705 149.615L191.052 151.427C190.794 151.165 190.551 150.889 190.324 150.599L190.518 149.473C190.8 149.851 191.097 150.21 191.413 150.585C191.729 150.96 192.113 151.311 192.48 151.663L219.159 156.311C220.881 155.389 222.174 153.83 222.761 151.967C223.253 150.224 223.079 148.36 222.274 146.739C222.31 146.609 222.339 146.477 222.36 146.344C222.434 145.943 222.437 145.532 222.37 145.13C223.066 146.16 223.538 147.325 223.755 148.55C223.973 149.774 223.93 151.03 223.63 152.237C223.052 154.001 221.892 155.516 220.34 156.535L230.007 158.217L240.727 96.5875L191.41 88.0056C191.228 87.9829 191.045 88.0284 190.896 88.1333C190.746 88.2383 190.641 88.3951 190.601 88.5732Z" fill="#FF441A"/>
<path d="M190.324 150.599C190.551 150.889 190.794 151.166 191.052 151.428L190.212 151.277L190.324 150.599Z" fill="#FDB123"/>
<path d="M250.855 99.0664L240.368 159.232C240.332 159.416 240.225 159.579 240.071 159.685C239.916 159.791 239.727 159.833 239.542 159.801L220.34 156.531C221.867 155.498 223.001 153.98 223.559 152.222C223.858 151.015 223.901 149.759 223.684 148.535C223.466 147.31 222.994 146.145 222.298 145.115C222.365 145.517 222.362 145.928 222.288 146.329C222.268 146.462 222.239 146.594 222.202 146.724C223.007 148.346 223.181 150.209 222.69 151.952C222.103 153.815 220.81 155.374 219.087 156.296L192.409 151.648C192.042 151.296 191.675 150.943 191.341 150.57C191.008 150.197 190.728 149.837 190.446 149.458L200.861 89.6335L250.196 98.2138C250.297 98.2228 250.394 98.2526 250.483 98.3012C250.572 98.3497 250.65 98.4161 250.712 98.4961C250.773 98.5762 250.818 98.6681 250.843 98.7662C250.868 98.8644 250.872 98.9665 250.855 99.0664Z" fill="#4089FF"/>
<path d="M186.197 128.212L185.594 131.678L190.923 132.605L191.526 129.139L186.197 128.212Z" fill="#FF8B42"/>
<path d="M184.989 135.126L183.156 145.662L188.485 146.589L190.318 136.053L184.989 135.126Z" fill="#FF8B42"/>
<path d="M200.95 89.6442L198.567 103.297L214.619 92.0249L200.95 89.6442Z" fill="#B3D0FF"/>
<path d="M230.299 125.932C227.537 123.894 224.35 122.507 220.976 121.875C217.601 121.243 214.128 121.383 210.816 122.284L207.627 110.909C212.69 109.537 217.998 109.328 223.153 110.296C228.309 111.263 233.179 113.384 237.4 116.498L230.299 125.932Z" fill="url(#paint6_linear_1825_135016)"/>
<path d="M222.697 110.203C228.008 111.121 233.027 113.278 237.347 116.5L230.249 125.952C227.487 123.913 224.299 122.526 220.925 121.894C217.551 121.262 214.078 121.402 210.765 122.303L207.577 110.928C212.485 109.578 217.633 109.338 222.646 110.225M223.104 107.598C217.701 106.645 212.153 106.905 206.862 108.358L204.311 109.088L205.024 111.641L208.23 123.014L208.944 125.584L211.513 124.852C214.429 124.067 217.485 123.95 220.453 124.51C223.422 125.07 226.225 126.293 228.655 128.087L230.787 129.646L232.346 127.514L239.444 118.062L241.005 115.948L238.873 114.389C234.2 110.914 228.774 108.59 223.035 107.605L223.104 107.598Z" fill="#FF5900"/>
<path d="M231.276 120.007C231.102 119.975 230.941 119.892 230.814 119.769C228.563 117.824 225.839 116.508 222.917 115.953C219.547 115.007 215.962 115.175 212.695 116.432C212.471 116.528 212.218 116.53 211.992 116.439C211.766 116.348 211.586 116.171 211.49 115.947C211.395 115.723 211.392 115.47 211.483 115.244C211.574 115.018 211.751 114.837 211.975 114.741C215.588 113.334 219.561 113.136 223.296 114.177C226.533 114.789 229.546 116.256 232.025 118.425C232.206 118.577 232.32 118.793 232.342 119.029C232.364 119.264 232.292 119.498 232.142 119.68C232.037 119.804 231.903 119.9 231.751 119.957C231.6 120.014 231.436 120.031 231.276 120.007Z" fill="#FF5500"/>
<path d="M222.775 151.928C222.188 153.792 220.895 155.351 219.173 156.273L192.494 151.625C192.127 151.273 191.76 150.92 191.427 150.547C191.093 150.174 190.813 149.813 190.532 149.435L192.832 136.406C197.979 134.317 203.702 134.132 208.973 135.884C210.613 136.35 212.206 136.967 213.733 137.725C215.83 138.731 217.765 140.043 219.475 141.619C219.801 141.905 220.109 142.193 220.382 142.484C221.142 143.264 221.812 144.128 222.38 145.057C222.448 145.459 222.444 145.87 222.37 146.271C222.35 146.404 222.321 146.536 222.284 146.666C223.1 148.297 223.275 150.174 222.775 151.928Z" fill="#D9D9D9"/>
<path d="M219.713 140.774C218.107 139.362 216.329 138.157 214.421 137.19C212.742 136.338 210.989 135.642 209.182 135.112C203.889 133.391 198.169 133.516 192.955 135.466L192.6 137.503C196.631 135.593 201.181 135.069 205.54 136.014C206.577 136.199 207.62 136.453 208.703 136.756C210.229 137.214 211.721 137.78 213.168 138.449C215.215 139.425 217.109 140.693 218.793 142.213C218.865 142.262 218.929 142.322 218.985 142.389C220.344 143.599 221.449 145.067 222.236 146.709C222.272 146.579 222.301 146.447 222.322 146.314C222.396 145.913 222.399 145.502 222.332 145.1C223.028 146.13 223.5 147.295 223.717 148.52C223.934 149.744 223.892 151 223.592 152.207C223.03 153.977 221.883 155.504 220.34 156.536L221.466 156.73C222.856 155.637 223.877 154.143 224.388 152.449C225.538 148.563 223.607 144.26 219.713 140.774ZM190.319 150.548L190.207 151.227L191.047 151.377C190.792 151.132 190.551 150.873 190.324 150.601L190.319 150.548Z" fill="white"/>
<path d="M190.324 150.597L190.212 151.276L191.05 151.408C190.789 151.156 190.546 150.885 190.324 150.597ZM219.718 140.823C218.111 139.405 216.333 138.195 214.424 137.221C212.745 136.375 210.992 135.685 209.187 135.161C203.894 133.444 198.176 133.562 192.958 135.497L192.603 137.534C196.639 135.639 201.186 135.122 205.545 136.063C206.581 136.248 207.625 136.502 208.708 136.805C210.238 137.252 211.731 137.818 213.172 138.498C215.215 139.474 217.108 140.736 218.796 142.245L218.986 142.403C220.347 143.619 221.453 145.093 222.239 146.74C223.044 148.362 223.218 150.225 222.726 151.968C222.14 153.831 220.846 155.391 219.124 156.312L221.465 156.727C222.85 155.628 223.869 154.135 224.388 152.446C225.537 148.559 223.607 144.257 219.713 140.771L219.718 140.823Z" fill="white"/>
<path d="M192.48 151.664L191.05 151.411C190.789 151.159 190.546 150.888 190.324 150.6L190.518 149.474C190.799 149.852 191.097 150.211 191.413 150.586C191.729 150.961 192.113 151.312 192.48 151.664Z" fill="white"/>
<path d="M218.879 148.609L197.359 144.865L196.073 152.263L217.593 156.007L218.879 148.609Z" fill="#D46E15"/>
<path d="M196.294 149.581C198.229 149.401 199.651 147.686 199.47 145.751C199.29 143.817 197.575 142.395 195.641 142.575C193.706 142.756 192.284 144.471 192.465 146.405C192.645 148.34 194.36 149.762 196.294 149.581Z" fill="#D46E15"/>
<path d="M202.185 146.03C204.12 145.85 205.542 144.135 205.361 142.201C205.181 140.266 203.466 138.844 201.532 139.025C199.597 139.205 198.175 140.92 198.356 142.854C198.536 144.789 200.251 146.211 202.185 146.03Z" fill="#D46E15"/>
<path d="M214.409 149.108C216.344 148.928 217.766 147.213 217.585 145.279C217.404 143.344 215.69 141.922 213.755 142.103C211.821 142.283 210.399 143.998 210.579 145.933C210.76 147.867 212.475 149.289 214.409 149.108Z" fill="#D46E15"/>
<path d="M206.403 150.345C208.337 150.164 209.759 148.45 209.579 146.515C209.398 144.581 207.684 143.159 205.749 143.339C203.815 143.52 202.393 145.234 202.573 147.169C202.754 149.104 204.468 150.525 206.403 150.345Z" fill="#D46E15"/>
<path d="M222.776 151.927C222.183 153.796 220.885 155.361 219.157 156.29L218.087 156.126L215.747 155.729C215.736 155.607 215.481 155.139 215.25 154.545C214.89 153.725 214.722 152.832 214.761 151.937C214.906 151.296 215.229 150.709 215.692 150.243C216.155 149.777 216.74 149.451 217.38 149.301C217.6 149.234 217.824 149.184 218.052 149.151L218.836 149.078C219.056 149.083 219.275 149.103 219.492 149.14C220.255 149.224 220.975 149.535 221.56 150.031C222.145 150.528 222.568 151.188 222.776 151.927Z" fill="#D46E15"/>
<path d="M224.551 144.016C224.39 143.984 224.242 143.907 224.123 143.794C224.005 143.681 223.921 143.537 223.882 143.378C223.843 143.219 223.851 143.052 223.904 142.897C223.957 142.742 224.053 142.605 224.181 142.503C225.758 141.151 227.658 140.228 229.697 139.826C229.919 139.781 230.149 139.825 230.339 139.949C230.528 140.073 230.661 140.266 230.708 140.488C230.73 140.599 230.731 140.713 230.709 140.825C230.687 140.936 230.643 141.042 230.58 141.136C230.517 141.23 230.435 141.311 230.341 141.373C230.246 141.436 230.14 141.479 230.029 141.5C228.25 141.855 226.594 142.663 225.221 143.848C225.026 143.986 224.787 144.046 224.551 144.016Z" fill="#B3D0FF"/>
<path d="M197.438 145.452C199.373 145.272 200.795 143.557 200.614 141.623C200.434 139.688 198.719 138.266 196.785 138.447C194.85 138.627 193.428 140.342 193.609 142.276C193.789 144.211 195.504 145.633 197.438 145.452Z" fill="#91531C"/>
<path d="M201.633 148.771C203.567 148.59 204.989 146.875 204.809 144.941C204.628 143.006 202.914 141.584 200.979 141.765C199.044 141.945 197.623 143.66 197.803 145.595C197.984 147.529 199.698 148.951 201.633 148.771Z" fill="#91531C"/>
<path d="M205.898 144.747C207.833 144.567 209.255 142.852 209.074 140.917C208.894 138.983 207.179 137.561 205.245 137.742C203.31 137.922 201.888 139.637 202.069 141.571C202.249 143.506 203.964 144.928 205.898 144.747Z" fill="#91531C"/>
<path d="M210.941 148.497C212.876 148.317 214.298 146.602 214.117 144.667C213.937 142.733 212.222 141.311 210.288 141.492C208.353 141.672 206.931 143.387 207.112 145.321C207.292 147.256 209.007 148.678 210.941 148.497Z" fill="#91531C"/>
<path d="M217.245 143.149C219.18 142.969 220.601 141.254 220.421 139.32C220.24 137.385 218.526 135.963 216.591 136.144C214.657 136.324 213.235 138.039 213.415 139.973C213.596 141.908 215.31 143.33 217.245 143.149Z" fill="#91531C"/>
<path d="M222.323 146.329C222.303 146.462 222.274 146.594 222.237 146.724C222.046 147.348 221.688 147.908 221.202 148.343C220.716 148.779 220.12 149.074 219.479 149.196L218.765 149.263L218.232 149.207L217.998 149.141C217.649 149.063 217.316 148.928 217.011 148.741L216.825 148.635C216.689 148.479 216.534 148.34 216.365 148.221C215.96 147.823 215.657 147.332 215.484 146.79C215.311 146.249 215.273 145.674 215.372 145.114C215.467 144.617 215.662 144.144 215.945 143.725C216.262 143.266 216.685 142.889 217.177 142.626C217.669 142.362 218.217 142.221 218.775 142.213C218.881 142.177 218.995 142.166 219.106 142.182C219.209 142.156 219.314 142.146 219.42 142.153C219.726 142.201 220.024 142.292 220.306 142.421C220.823 142.656 221.275 143.013 221.623 143.462C221.971 143.91 222.205 144.436 222.304 144.995C222.396 145.434 222.403 145.887 222.323 146.329Z" fill="#91531C"/>
<path d="M214.677 154.618C216.611 154.438 218.033 152.723 217.853 150.789C217.672 148.854 215.958 147.432 214.023 147.613C212.088 147.793 210.666 149.508 210.847 151.442C211.028 153.377 212.742 154.799 214.677 154.618Z" fill="#91531C"/>
<path d="M203.712 136.767C205.646 136.586 207.068 134.872 206.888 132.937C206.707 131.003 204.992 129.581 203.058 129.761C201.123 129.942 199.701 131.656 199.882 133.591C200.062 135.525 201.777 136.947 203.712 136.767Z" fill="#91531C"/>
<path d="M210.811 152.187C210.737 152.671 210.562 153.135 210.298 153.547C210.033 153.959 209.686 154.311 209.277 154.581L204.667 153.78C204.349 153.361 204.131 152.875 204.027 152.359C203.924 151.843 203.938 151.311 204.069 150.801C204.199 150.292 204.443 149.818 204.782 149.416C205.12 149.013 205.546 148.692 206.025 148.477C206.505 148.261 207.028 148.157 207.553 148.171C208.079 148.185 208.595 148.317 209.063 148.558C209.531 148.799 209.938 149.143 210.255 149.563C210.571 149.983 210.789 150.469 210.892 150.985C210.941 151.231 210.965 151.482 210.962 151.734C210.931 151.891 210.88 152.043 210.811 152.187Z" fill="#91531C"/>
<path d="M198.195 149.985C198.121 150.469 197.946 150.932 197.682 151.345C197.417 151.757 197.07 152.109 196.661 152.378L192.55 151.655C192.183 151.302 191.816 150.95 191.482 150.576C191.282 150.019 191.226 149.419 191.32 148.834C191.465 148.009 191.892 147.261 192.529 146.717C192.922 146.388 193.382 146.15 193.877 146.019C194.372 145.888 194.889 145.867 195.393 145.957C196.023 146.06 196.611 146.341 197.086 146.766C197.709 147.295 198.121 148.03 198.246 148.838C198.268 148.982 198.282 149.128 198.287 149.273C198.281 149.513 198.25 149.752 198.195 149.985Z" fill="#91531C"/>
<path d="M203.558 152.824C203.511 153.077 203.44 153.325 203.346 153.565L196.596 152.437C196.588 152.178 196.599 151.918 196.629 151.66C196.716 151.169 196.908 150.701 197.191 150.29C197.474 149.878 197.842 149.532 198.269 149.275C199 148.82 199.873 148.651 200.721 148.8C201.629 148.962 202.436 149.476 202.967 150.229C203.498 150.983 203.71 151.915 203.558 152.824Z" fill="#91531C"/>
<path d="M238.754 140.053C238.734 140.192 238.706 140.329 238.669 140.465C238.484 141.091 238.127 141.652 237.64 142.086C237.152 142.52 236.553 142.808 235.91 142.92C235.676 142.977 235.436 142.999 235.195 142.986C235.017 142.983 234.838 142.965 234.663 142.931L234.436 142.952C234.092 142.859 233.761 142.725 233.45 142.552C233.395 142.501 233.331 142.459 233.262 142.428C233.118 142.281 232.964 142.143 232.802 142.014C232.4 141.618 232.099 141.13 231.927 140.592C231.754 140.054 231.714 139.482 231.811 138.925C231.901 138.427 232.097 137.953 232.384 137.536C232.699 137.073 233.12 136.693 233.612 136.427C234.104 136.161 234.653 136.017 235.212 136.006L235.543 135.975L235.857 135.946C236.164 136.001 236.463 136.098 236.745 136.232C237.259 136.466 237.709 136.82 238.057 137.265C238.405 137.71 238.639 138.233 238.741 138.788C238.822 139.205 238.826 139.634 238.754 140.053Z" fill="#91531C"/>
<path d="M172.727 107.76C172.716 108.268 172.771 108.776 172.891 109.271L173.417 111.389C174.074 113.343 174.648 115.265 175.158 117.121C175.158 117.367 175.305 117.63 175.371 117.876C175.519 118.402 175.65 118.927 175.782 119.518C175.913 120.11 176.028 120.553 176.143 121.062C176.422 122.244 176.668 123.411 176.882 124.544C176.997 125.118 177.095 125.677 177.194 126.186C177.293 126.695 177.375 127.286 177.457 127.828C177.457 128.091 177.555 128.37 177.588 128.649C177.621 128.929 177.67 129.175 177.703 129.438C177.736 129.7 177.802 130.095 177.835 130.407C177.867 130.719 177.835 130.801 177.835 130.998C177.835 131.195 177.917 131.671 177.966 132L178.114 133.51C178.114 133.691 178.114 133.872 178.114 134.052C178.114 134.233 178.114 134.43 178.114 134.611L178.212 135.859C178.212 136.302 178.212 136.729 178.311 137.156C178.524 140.704 178.508 143.725 178.442 146.271C178.433 146.873 178.545 147.47 178.771 148.028L179.362 149.523L181.004 153.464C181.398 154.449 180.413 154.909 179.362 155.106L154.465 159.064L135.891 162.004H135.349C134.462 162.004 133.707 161.823 133.838 160.92L134.265 156.601L134.429 154.959C134.471 154.659 134.471 154.355 134.429 154.055C134.41 153.769 134.349 153.487 134.249 153.218L134.035 152.512C132.803 148.603 132.015 144.678 131.112 141.016C130.408 137.771 129.958 134.477 129.765 131.162C129.389 126.656 129.318 122.129 129.552 117.613C129.597 116.79 129.462 115.966 129.158 115.199L127.909 112.095L126.267 108.187C125.857 107.185 126.842 106.725 127.909 106.544L171.397 99.6468C172.497 99.4826 173.548 99.6468 173.433 100.681L172.858 105.001L172.596 106.988C172.614 107.249 172.658 107.507 172.727 107.76Z" fill="#378500"/>
<path d="M126.99 106.952C127.315 106.813 127.657 106.719 128.008 106.673L171.495 99.7757C172.596 99.6115 173.647 99.7757 173.532 100.81L172.957 105.13L172.694 107.117C172.677 107.33 172.677 107.544 172.694 107.757C172.683 108.266 172.738 108.774 172.858 109.268L173.384 111.387C174.041 113.341 174.616 115.262 175.125 117.118C175.125 117.364 175.272 117.627 175.338 117.874C175.486 118.399 175.617 118.925 175.749 119.516C175.88 120.107 175.995 120.55 176.11 121.06C176.389 122.242 176.635 123.408 176.849 124.541C176.964 125.116 177.062 125.674 177.161 126.184C177.26 126.693 177.342 127.284 177.424 127.826C177.424 128.089 177.522 128.368 177.555 128.647C177.588 128.926 177.637 129.172 177.67 129.435C177.703 129.698 177.769 130.092 177.802 130.404C177.834 130.716 177.802 130.798 177.802 130.995C177.802 131.192 177.884 131.669 177.933 131.997L178.081 133.508C178.081 133.689 178.081 133.869 178.081 134.05C178.081 134.231 178.081 134.428 178.081 134.608L178.179 135.857C178.179 136.3 178.179 136.727 178.278 137.154C178.491 140.701 178.475 143.723 178.426 146.269C178.403 146.87 178.51 147.469 178.738 148.026L179.329 149.52L180.971 153.462C181.234 154.119 180.971 154.546 180.314 154.792C179.989 154.931 179.647 155.025 179.296 155.071L154.399 159.029L135.825 161.969H135.283C134.396 161.969 133.641 161.788 133.772 160.885L134.199 156.566L134.363 154.923C134.405 154.624 134.405 154.32 134.363 154.02C134.344 153.734 134.284 153.451 134.183 153.182L133.969 152.476C132.738 148.568 131.949 144.643 131.046 140.98C130.342 137.736 129.892 134.441 129.699 131.127C129.323 126.62 129.252 122.094 129.486 117.578C129.531 116.754 129.396 115.931 129.092 115.164L127.844 112.06L126.201 108.151C125.922 107.478 126.201 107.067 126.842 106.805M125.594 103.98C125.087 104.169 124.624 104.46 124.233 104.834C123.842 105.207 123.531 105.657 123.319 106.154C123.107 106.652 122.999 107.188 123 107.728C123.001 108.269 123.113 108.804 123.327 109.301L124.97 113.21L126.218 116.297C126.352 116.659 126.413 117.044 126.398 117.43C126.155 122.083 126.226 126.747 126.612 131.39V131.488C126.817 134.903 127.289 138.296 128.024 141.637C128.287 142.639 128.517 143.674 128.763 144.708C129.404 147.484 130.077 150.358 130.997 153.281C130.997 153.478 131.112 153.659 131.161 153.823V154.004C131.169 154.069 131.169 154.135 131.161 154.201V154.283C131.166 154.337 131.166 154.392 131.161 154.447L131.013 156.089L130.586 160.425C130.5 161.016 130.549 161.62 130.732 162.189C130.914 162.758 131.223 163.278 131.637 163.709C132.123 164.184 132.708 164.545 133.349 164.766C133.991 164.987 134.674 165.064 135.349 164.99L136.186 164.892L138.978 164.448L154.76 161.952L179.657 157.994C180.275 157.908 180.877 157.737 181.447 157.485C181.956 157.298 182.42 157.009 182.812 156.635C183.205 156.262 183.516 155.812 183.729 155.314C183.941 154.816 184.049 154.279 184.047 153.737C184.044 153.196 183.931 152.661 183.714 152.164L182.071 148.223L181.464 146.745C181.403 146.582 181.376 146.409 181.382 146.236C181.382 144.084 181.48 140.8 181.234 136.842L181.135 135.462V134.822V134.231C181.135 134.055 181.135 133.858 181.135 133.639C181.135 133.442 181.135 133.262 181.135 133.048C181.135 132.539 181.037 132.03 180.971 131.521C180.971 131.34 180.971 131.16 180.971 130.979V130.519C180.971 130.306 180.971 130.076 180.971 129.862L180.873 129.189V128.893C180.873 128.647 180.873 128.368 180.741 128.072C180.61 127.777 180.659 127.497 180.626 127.218C180.626 126.693 180.446 126.151 180.347 125.576C180.248 124.985 180.134 124.41 180.019 123.819C179.789 122.653 179.542 121.454 179.263 120.222C179.148 119.729 179.017 119.187 178.869 118.58C178.738 118.071 178.606 117.562 178.458 117.036C178.311 116.511 178.311 116.494 178.245 116.215C177.719 114.293 177.128 112.356 176.488 110.467L175.995 108.48C175.961 108.251 175.961 108.019 175.995 107.79V107.675C175.984 107.621 175.984 107.565 175.995 107.511L176.258 105.491L176.833 101.172V101.073C176.899 100.47 176.825 99.8603 176.617 99.2907C176.409 98.721 176.073 98.2069 175.634 97.7886C175.032 97.2778 174.319 96.9163 173.551 96.7337C172.783 96.551 171.983 96.5523 171.216 96.7375L127.745 103.635C127.128 103.721 126.525 103.893 125.955 104.144L125.594 103.98Z" fill="white"/>
<path d="M173.532 100.806L172.957 105.125L127.909 112.204L126.267 108.295C125.856 107.293 126.842 106.833 127.909 106.653L171.397 99.7553C172.595 99.6075 173.647 99.7224 173.532 100.806Z" fill="#2C6900"/>
<path d="M126.989 106.952C127.314 106.813 127.657 106.719 128.008 106.673L171.495 99.7752C172.595 99.611 173.646 99.7752 173.531 100.81L172.957 105.129L127.909 112.207L126.267 108.299C125.988 107.625 126.267 107.215 126.907 106.952M125.659 104.127C125.152 104.317 124.69 104.607 124.299 104.981C123.908 105.355 123.597 105.804 123.385 106.302C123.173 106.799 123.064 107.335 123.066 107.876C123.067 108.417 123.178 108.952 123.393 109.448L125.035 113.357L125.955 115.656L128.402 115.262L173.433 108.2L175.716 107.839L176.028 105.54L176.603 101.22V101.122C176.669 100.519 176.595 99.909 176.387 99.3394C176.179 98.7697 175.843 98.2556 175.404 97.8373C174.802 97.3265 174.088 96.965 173.321 96.7824C172.553 96.5997 171.753 96.6011 170.986 96.7862L127.515 103.684C126.898 103.77 126.295 103.941 125.725 104.193L125.659 104.127Z" fill="white"/>
<path d="M179.378 155.008L154.481 158.966L135.365 161.971C134.478 161.971 133.723 161.791 133.854 160.871L134.281 156.552L179.444 149.457L181.086 153.399C181.447 154.384 180.462 154.844 179.378 155.008Z" fill="#2C6900"/>
<path d="M134.281 156.551L179.444 149.456L181.086 153.398C181.349 154.054 181.086 154.481 180.429 154.728C180.104 154.867 179.762 154.961 179.411 155.007L154.514 158.965L135.398 161.97C134.511 161.97 133.756 161.79 133.887 160.87L134.314 156.551M131.473 153.857L131.243 156.239L130.816 160.574C130.73 161.166 130.78 161.769 130.962 162.338C131.144 162.907 131.454 163.427 131.867 163.859C132.348 164.336 132.929 164.698 133.569 164.92C134.209 165.142 134.89 165.217 135.562 165.14H135.874L154.99 162.134L179.887 158.177C180.504 158.095 181.106 157.93 181.677 157.684C182.183 157.491 182.645 157.198 183.035 156.822C183.425 156.446 183.735 155.996 183.946 155.497C184.158 154.999 184.267 154.463 184.266 153.922C184.266 153.38 184.156 152.844 183.944 152.346L182.301 148.405L181.365 146.139L178.951 146.516L133.789 153.611L131.424 153.972L131.473 153.857Z" fill="white"/>
<path d="M172.727 107.762C172.716 108.27 172.771 108.778 172.891 109.272L173.417 111.391C174.074 113.345 174.648 115.267 175.158 117.123C175.158 117.369 175.305 117.632 175.371 117.878C175.519 118.404 175.65 118.929 175.782 119.52C175.913 120.111 176.028 120.555 176.143 121.064C176.422 122.246 176.668 123.412 176.882 124.546C176.997 125.12 177.095 125.679 177.194 126.188C177.293 126.697 177.375 127.288 177.457 127.83C177.457 128.093 177.555 128.372 177.588 128.651C177.621 128.93 177.67 129.177 177.703 129.44C177.736 129.702 177.802 130.096 177.835 130.409C177.867 130.721 177.835 130.803 177.835 131C177.835 131.197 177.917 131.673 177.966 132.002L178.114 133.512C178.114 133.693 178.114 133.874 178.114 134.054C178.114 134.235 178.114 134.432 178.114 134.613L178.212 135.861C178.212 136.304 178.212 136.731 178.311 137.158C178.524 140.706 178.508 143.727 178.442 146.273C178.433 146.875 178.545 147.472 178.771 148.03L179.362 149.525L181.004 153.466C181.398 154.451 180.413 154.911 179.362 155.108L154.465 159.066L135.891 162.006H135.349C134.462 162.006 133.707 161.825 133.838 160.922L134.265 156.603L134.429 154.961C134.471 154.661 134.471 154.357 134.429 154.057C134.41 153.771 134.349 153.489 134.249 153.22L134.035 152.514C132.803 148.605 132.015 144.68 131.112 141.018C130.408 137.773 129.958 134.478 129.765 131.164C129.389 126.658 129.318 122.131 129.552 117.615C129.597 116.791 129.462 115.968 129.158 115.201L127.909 112.097L126.267 108.189C125.857 107.187 126.842 106.727 127.909 106.546L171.397 99.6487C172.497 99.4845 173.548 99.6488 173.433 100.683L172.858 105.003L172.596 106.99C172.614 107.251 172.658 107.509 172.727 107.762Z" fill="#378500"/>
<path d="M172.727 107.76C172.716 108.269 172.771 108.777 172.891 109.271L173.417 111.389C174.074 113.344 174.648 115.265 175.158 117.121C175.158 117.367 175.305 117.63 175.371 117.876C175.519 118.402 175.65 118.927 175.782 119.519C175.913 120.11 176.028 120.553 176.143 121.062C176.422 122.245 176.668 123.411 176.882 124.544C176.997 125.119 177.095 125.677 177.194 126.186C177.293 126.695 177.375 127.287 177.457 127.829C177.457 128.091 177.555 128.371 177.588 128.65C177.621 128.929 177.67 129.175 177.703 129.438C177.736 129.701 177.802 130.095 177.835 130.407L162.923 138.618L159.113 140.72L155.729 142.576L154.498 143.25L153.627 143.726L149.292 146.107L134.511 154.204C134.492 153.917 134.431 153.635 134.331 153.366L134.117 152.66C133.378 150.229 132.36 146.091 131.194 141.164C130.574 137.905 130.125 134.616 129.847 131.31C129.471 126.804 129.4 122.277 129.634 117.761C129.679 116.938 129.544 116.114 129.24 115.347L127.991 112.243L126.349 108.335C125.939 107.333 126.924 106.873 127.991 106.693L171.479 99.795C172.579 99.6308 173.63 99.795 173.515 100.83L172.941 105.149L172.678 107.136C172.678 107.345 172.695 107.554 172.727 107.76Z" fill="url(#paint7_linear_1825_135016)"/>
<path d="M173.532 100.816L172.957 105.135L127.909 112.213L126.267 108.305C125.857 107.303 126.842 106.843 127.909 106.662L171.397 99.7648C172.596 99.617 173.647 99.7319 173.532 100.816Z" fill="#2C6900"/>
<path d="M179.378 155.01L154.481 158.968L135.365 161.973C134.478 161.973 133.723 161.792 133.854 160.873L134.281 156.554L179.444 149.459L181.086 153.4C181.447 154.386 180.462 154.846 179.378 155.01Z" fill="#2C6900"/>
<path d="M154.662 134.591L140.407 134.196L137.796 117.544L151.246 112.781L165.501 113.192L168.112 129.844L154.662 134.591Z" fill="#006AFF"/>
<path d="M154.793 135.168L139.931 134.774L137.172 117.136L151.18 112.209L166.043 112.636L168.802 130.257L154.793 135.168ZM140.949 133.608L154.596 133.985L167.488 129.436L165.025 113.753L151.361 113.358L138.485 117.924L140.949 133.608Z" fill="#E6F200"/>
<path d="M164.006 114.92L151.558 114.559L139.832 118.714L141.983 132.443L154.416 132.788L166.158 128.649L164.006 114.92Z" fill="#8AE0FF"/>
<path d="M141.983 132.459L140.899 125.561L152.74 122.08L165.074 121.768L166.158 128.649L154.415 132.787L141.983 132.459Z" fill="url(#paint8_linear_1825_135016)"/>
<path d="M152.314 117.858L153.332 119.845C153.356 119.892 153.394 119.93 153.441 119.954C153.489 119.978 153.543 119.986 153.595 119.976L155.746 119.648C155.992 119.648 156.157 119.96 155.959 120.141L154.465 121.602C154.429 121.652 154.409 121.713 154.409 121.775C154.409 121.836 154.429 121.897 154.465 121.947L155.434 123.819C155.565 124.066 155.352 124.328 155.122 124.213L153.102 123.212C153.061 123.183 153.012 123.168 152.962 123.168C152.912 123.168 152.864 123.183 152.823 123.212L151.18 124.854C151 125.035 150.721 124.854 150.753 124.591L151.115 122.505C151.125 122.443 151.114 122.378 151.084 122.322C151.055 122.266 151.008 122.221 150.951 122.193L149.078 121.257C149.026 121.234 148.981 121.196 148.949 121.148C148.918 121.1 148.901 121.044 148.901 120.986C148.901 120.929 148.918 120.872 148.949 120.824C148.981 120.776 149.026 120.738 149.078 120.715L151.246 120.37C151.299 120.363 151.347 120.338 151.383 120.299C151.419 120.26 151.44 120.21 151.443 120.157L151.805 117.973C151.789 117.905 151.801 117.834 151.838 117.776C151.875 117.717 151.934 117.676 152.002 117.661C152.069 117.645 152.14 117.658 152.198 117.695C152.257 117.732 152.298 117.79 152.314 117.858Z" fill="#FFFF33"/>
<path d="M152.05 117.711C152.104 117.708 152.157 117.72 152.203 117.746C152.25 117.773 152.288 117.812 152.313 117.859L153.331 119.846C153.355 119.893 153.394 119.931 153.441 119.955C153.488 119.979 153.542 119.987 153.594 119.977L155.746 119.649C155.992 119.649 156.156 119.961 155.959 120.141L154.465 121.603C154.428 121.653 154.409 121.714 154.409 121.776C154.409 121.837 154.428 121.898 154.465 121.948L155.433 123.82C155.455 123.857 155.468 123.898 155.471 123.941C155.475 123.983 155.468 124.026 155.452 124.066C155.436 124.106 155.412 124.141 155.38 124.17C155.348 124.198 155.31 124.219 155.269 124.231C155.221 124.247 155.169 124.247 155.121 124.231L153.101 123.229C153.053 123.214 153.002 123.214 152.954 123.229H152.822L151.18 124.871C151.16 124.881 151.137 124.887 151.114 124.887C151.092 124.887 151.069 124.881 151.049 124.871C151.006 124.874 150.963 124.868 150.924 124.852C150.884 124.836 150.849 124.811 150.82 124.78C150.792 124.748 150.771 124.71 150.759 124.669C150.747 124.628 150.745 124.585 150.753 124.543L151.114 122.457C151.124 122.394 151.113 122.33 151.084 122.274C151.054 122.218 151.007 122.173 150.95 122.145L149.078 121.209C149.025 121.186 148.98 121.148 148.949 121.1C148.917 121.052 148.9 120.996 148.9 120.938C148.9 120.88 148.917 120.824 148.949 120.776C148.98 120.728 149.025 120.69 149.078 120.667L151.246 120.322C151.298 120.315 151.346 120.289 151.382 120.25C151.418 120.212 151.439 120.161 151.443 120.109L151.804 117.924C151.813 117.869 151.837 117.818 151.875 117.777C151.914 117.736 151.963 117.707 152.018 117.695M151.788 116.299C151.44 116.351 151.119 116.513 150.871 116.761C150.623 117.01 150.46 117.331 150.408 117.678L150.178 119.058L148.864 119.255C148.429 119.192 147.986 119.304 147.633 119.567C147.281 119.831 147.047 120.223 146.984 120.659C146.921 121.094 147.033 121.537 147.297 121.89C147.56 122.242 147.953 122.476 148.388 122.539L149.505 123.098L149.308 124.362C149.253 124.634 149.268 124.915 149.352 125.179C149.435 125.443 149.584 125.682 149.784 125.873C149.969 126.063 150.197 126.206 150.448 126.289C150.7 126.372 150.968 126.392 151.229 126.349C151.569 126.3 151.885 126.145 152.133 125.906L153.134 124.921L154.399 125.545C154.709 125.698 155.059 125.75 155.401 125.692C155.664 125.653 155.913 125.55 156.128 125.393C156.342 125.235 156.516 125.028 156.632 124.789C156.776 124.539 156.852 124.256 156.852 123.968C156.852 123.68 156.776 123.397 156.632 123.147L156.058 122.014L156.944 121.143C157.216 120.894 157.396 120.562 157.455 120.198C157.515 119.835 157.451 119.462 157.273 119.14C157.12 118.816 156.866 118.551 156.549 118.385C156.231 118.219 155.869 118.161 155.516 118.22L154.202 118.417L153.561 117.185C153.404 116.868 153.147 116.609 152.83 116.45C152.513 116.29 152.153 116.237 151.804 116.299H151.788Z" fill="#006AFF"/>
<path d="M154.465 129.467L153.594 129.582C150.974 129.995 148.291 129.694 145.826 128.712C145.653 128.633 145.517 128.489 145.449 128.31C145.382 128.132 145.387 127.934 145.465 127.759C145.502 127.674 145.556 127.597 145.624 127.532C145.691 127.468 145.771 127.417 145.858 127.384C145.945 127.35 146.038 127.334 146.131 127.337C146.224 127.339 146.316 127.36 146.401 127.398C148.635 128.271 151.062 128.531 153.43 128.154C156.239 127.972 158.914 126.883 161.05 125.05C161.114 124.967 161.195 124.9 161.287 124.852C161.379 124.803 161.481 124.776 161.585 124.77C161.689 124.765 161.793 124.782 161.889 124.821C161.986 124.859 162.073 124.918 162.145 124.994C162.217 125.069 162.271 125.159 162.305 125.258C162.339 125.356 162.351 125.461 162.341 125.564C162.33 125.668 162.298 125.768 162.245 125.858C162.192 125.947 162.121 126.025 162.036 126.084C159.913 127.954 157.273 129.134 154.465 129.467Z" fill="#006AFF"/>
<path d="M164.22 142.179C164.68 145.266 161.411 148.321 156.912 148.978C155.592 149.241 154.231 149.212 152.923 148.895C151.615 148.577 150.393 147.978 149.341 147.138L149.111 146.925C148.916 146.716 148.741 146.491 148.585 146.252C148.487 146.055 148.388 145.857 148.257 145.644C148.111 145.326 148.012 144.988 147.961 144.642C147.501 141.555 150.704 137.958 155.795 140.307C158.505 141.555 161.198 140.586 162.791 140.766C163.162 140.782 163.514 140.936 163.778 141.197C164.042 141.458 164.2 141.808 164.22 142.179Z" fill="#FFC821"/>
<path d="M151.804 139.52C153.168 139.351 154.551 139.591 155.778 140.21C158.488 141.458 161.182 140.489 162.775 140.67C163.154 140.682 163.514 140.838 163.783 141.107C164.051 141.375 164.207 141.736 164.22 142.115C164.68 145.186 161.461 148.192 157.027 148.898H156.912C155.592 149.161 154.231 149.132 152.923 148.814C151.615 148.497 150.393 147.897 149.341 147.058L149.111 146.845C148.916 146.636 148.741 146.411 148.585 146.172C148.487 145.974 148.388 145.777 148.257 145.564C148.111 145.246 148.012 144.908 147.961 144.562C147.812 143.385 148.134 142.196 148.856 141.255C149.579 140.314 150.645 139.696 151.821 139.537M151.64 138.371C150.142 138.563 148.782 139.342 147.858 140.537C146.934 141.732 146.522 143.245 146.713 144.743C146.776 145.173 146.897 145.593 147.074 145.991V146.106V146.221C147.174 146.373 147.262 146.532 147.337 146.697C147.541 146.992 147.766 147.272 148.01 147.535L148.273 147.797C149.457 148.763 150.838 149.456 152.32 149.828C153.801 150.2 155.347 150.241 156.846 149.949H156.961C162.118 149.144 165.698 145.58 165.172 141.836C165.106 141.247 164.843 140.698 164.426 140.278C164.008 139.858 163.461 139.591 162.873 139.52C162.169 139.44 161.458 139.44 160.755 139.52C159.233 139.789 157.667 139.642 156.222 139.093C154.787 138.37 153.167 138.095 151.574 138.305L151.64 138.371Z" fill="#378500"/>
<path d="M164.22 142.18C164.68 145.267 161.412 148.322 156.912 148.979C155.592 149.241 154.231 149.213 152.923 148.895C151.615 148.578 150.393 147.978 149.341 147.139C150.278 147.95 151.486 148.378 152.724 148.338C153.505 148.276 154.273 148.105 155.007 147.829C156.656 147.331 158.214 146.572 159.621 145.579C161.037 144.582 162.064 143.125 162.528 141.457C162.575 141.206 162.658 140.962 162.775 140.734C163.154 140.747 163.514 140.903 163.783 141.171C164.051 141.44 164.208 141.8 164.22 142.18Z" fill="#FAA200"/>
<path d="M196.564 171.052L196.527 173.337C196.528 173.488 196.498 173.638 196.441 173.777C196.383 173.917 196.297 174.043 196.19 174.149C196.082 174.255 195.955 174.338 195.814 174.394C195.674 174.449 195.524 174.476 195.373 174.473L177.591 174.21L177.497 174.19L176.868 173.932C176.738 173.819 176.635 173.678 176.565 173.52C176.495 173.363 176.46 173.192 176.463 173.019L176.482 170.729L196.564 171.052Z" fill="#B0B0B0"/>
<path d="M196.564 171.052L196.527 173.338C196.528 173.489 196.499 173.639 196.441 173.778C196.383 173.917 196.298 174.044 196.19 174.15C196.083 174.256 195.955 174.339 195.814 174.394C195.674 174.45 195.524 174.477 195.373 174.474L177.591 174.211L177.498 174.19L176.869 173.933C176.739 173.819 176.635 173.679 176.565 173.521C176.495 173.363 176.461 173.192 176.464 173.02L176.482 170.73L196.568 171.034M200.24 167.477L196.626 167.42L176.539 167.116L172.944 167.063L172.886 170.677L172.849 172.962C172.836 173.679 172.985 174.389 173.286 175.04C173.586 175.69 174.03 176.265 174.584 176.719L174.949 177.016L175.358 177.205L176.217 177.572L176.535 177.643L176.853 177.713C177.073 177.781 177.297 177.831 177.525 177.863L195.307 178.125C196.558 178.138 197.763 177.659 198.663 176.792C199.563 175.925 200.087 174.739 200.121 173.489L200.158 171.203L200.215 167.589L200.24 167.477Z" fill="white"/>
<path d="M199.27 143.68L198.917 167.344C198.899 168.118 198.67 168.872 198.255 169.526C197.841 170.18 197.256 170.709 196.564 171.056L176.477 170.752C175.806 170.381 175.25 169.833 174.869 169.168C174.488 168.502 174.296 167.745 174.316 166.978L174.669 143.315C174.683 142.396 174.95 141.499 175.44 140.722L176.547 139.007L177.001 138.285L177.358 137.737L196.896 138.036L197.222 138.599L197.665 139.344L198.691 141.081C199.123 141.877 199.324 142.777 199.27 143.68Z" fill="url(#paint9_linear_1825_135016)"/>
<path d="M196.761 138.024L197.087 138.586L197.529 139.331L198.555 141.069C199.036 141.853 199.284 142.758 199.27 143.678L198.917 167.341C198.898 168.115 198.669 168.87 198.255 169.524C197.84 170.177 197.256 170.706 196.563 171.053L176.477 170.75C175.806 170.379 175.25 169.831 174.868 169.165C174.487 168.5 174.296 167.743 174.315 166.976L174.668 143.313C174.682 142.394 174.949 141.497 175.44 140.72L176.546 139.005L177.001 138.283L177.358 137.734L196.896 138.034M198.965 134.455L197.005 134.451L177.492 134.039L175.536 134.017L174.468 135.74L174.111 136.288L173.66 136.992L172.554 138.707C171.709 140.053 171.243 141.602 171.206 143.191L170.849 166.873C170.791 168.291 171.123 169.699 171.807 170.943C172.492 172.186 173.503 173.22 174.732 173.93L175.504 174.337L176.368 174.333L196.51 174.649L197.388 174.667L198.158 174.289C199.447 173.656 200.535 172.678 201.302 171.464C202.07 170.251 202.487 168.849 202.508 167.413L202.865 143.731C202.885 142.146 202.465 140.587 201.65 139.227L200.62 137.508L200.182 136.744L199.852 136.201L198.826 134.463L198.965 134.455Z" fill="white"/>
<path d="M197.348 136.528L197.303 136.733C197.275 136.988 197.219 137.238 197.137 137.481C197.042 137.675 196.929 137.86 196.798 138.033L177.353 137.754C177.227 137.582 177.124 137.394 177.046 137.196C176.935 136.956 176.86 136.701 176.822 136.44C176.828 136.376 176.842 136.314 176.863 136.253C176.847 135.961 176.892 135.668 176.995 135.394C177.098 135.12 177.257 134.87 177.462 134.661C177.667 134.452 177.914 134.288 178.186 134.18C178.458 134.071 178.75 134.021 179.042 134.032L195.38 134.267C195.658 134.285 195.93 134.357 196.18 134.481C196.43 134.604 196.654 134.776 196.837 134.986C197.02 135.196 197.159 135.441 197.247 135.706C197.335 135.97 197.369 136.25 197.348 136.528Z" fill="#CFCFCF"/>
<path d="M195.688 134.293C196.191 134.396 196.638 134.68 196.945 135.091C197.251 135.503 197.395 136.013 197.349 136.524L197.303 136.73C197.276 136.984 197.22 137.235 197.137 137.477C197.043 137.672 196.93 137.857 196.799 138.03L177.354 137.751C177.228 137.579 177.124 137.391 177.047 137.192C176.936 136.953 176.86 136.698 176.823 136.437C176.829 136.373 176.843 136.31 176.864 136.25C176.848 135.957 176.892 135.665 176.996 135.391C177.099 135.117 177.258 134.867 177.463 134.658C177.668 134.449 177.915 134.285 178.187 134.176C178.459 134.068 178.751 134.018 179.043 134.028L195.381 134.264L195.81 134.36M196.59 130.847C196.208 130.761 195.818 130.714 195.426 130.706L179.093 130.451C178.277 130.439 177.469 130.6 176.721 130.924C175.973 131.248 175.302 131.728 174.754 132.331C174.222 132.905 173.817 133.585 173.565 134.326C173.313 135.067 173.219 135.853 173.289 136.632C173.3 136.802 173.321 136.97 173.354 137.137C173.45 137.664 173.605 138.179 173.817 138.671C174.009 139.111 174.245 139.531 174.519 139.925L175.588 141.378L177.386 141.404L196.806 141.795L198.623 141.826L199.727 140.385C200.01 140.008 200.252 139.602 200.447 139.173C200.688 138.701 200.865 138.2 200.974 137.682L201.09 137.159C201.238 135.75 200.861 134.336 200.03 133.189C199.199 132.042 197.973 131.243 196.588 130.945L196.59 130.847Z" fill="white"/>
<path d="M196.564 171.052L196.527 173.337C196.528 173.488 196.498 173.638 196.441 173.777C196.383 173.917 196.297 174.043 196.19 174.149C196.082 174.255 195.955 174.338 195.814 174.394C195.674 174.449 195.524 174.476 195.373 174.473L177.591 174.21L177.497 174.19L176.868 173.932C176.738 173.819 176.635 173.678 176.565 173.52C176.495 173.363 176.46 173.192 176.463 173.019L176.482 170.729L196.564 171.052Z" fill="#B0B0B0"/>
<path d="M199.27 143.68L198.917 167.344C198.899 168.118 198.67 168.872 198.255 169.526C197.841 170.18 197.256 170.709 196.564 171.056L176.477 170.752C175.806 170.381 175.25 169.833 174.869 169.168C174.488 168.502 174.296 167.745 174.316 166.978L174.669 143.315C174.683 142.396 174.95 141.499 175.44 140.722L176.547 139.007L177.001 138.285L177.358 137.737L196.896 138.036L197.222 138.599L197.665 139.344L198.691 141.081C199.123 141.877 199.324 142.777 199.27 143.68Z" fill="url(#paint10_linear_1825_135016)"/>
<path d="M187.892 165.52C188.511 165.658 189.124 165.267 189.262 164.648C189.399 164.029 189.009 163.416 188.39 163.278C187.77 163.141 187.157 163.531 187.02 164.15C186.882 164.769 187.273 165.383 187.892 165.52Z" fill="#FFAA00"/>
<path d="M185.942 161.852C186.427 161.959 186.907 161.653 187.015 161.168C187.123 160.684 186.817 160.203 186.332 160.095C185.847 159.988 185.366 160.294 185.259 160.779C185.151 161.264 185.457 161.744 185.942 161.852Z" fill="#FFAA00"/>
<path d="M184.339 167.748C184.824 167.856 185.304 167.55 185.412 167.065C185.52 166.58 185.214 166.1 184.729 165.992C184.244 165.884 183.763 166.19 183.656 166.675C183.548 167.16 183.854 167.64 184.339 167.748Z" fill="#FFAA00"/>
<path d="M193.682 146.592C194.012 146.666 194.339 146.457 194.413 146.127C194.486 145.797 194.278 145.47 193.948 145.396C193.617 145.323 193.29 145.531 193.217 145.862C193.144 146.192 193.352 146.519 193.682 146.592Z" fill="#FFAA00"/>
<path d="M195.046 144.605C195.283 144.658 195.518 144.508 195.571 144.271C195.623 144.034 195.474 143.799 195.236 143.746C194.999 143.693 194.764 143.843 194.711 144.08C194.659 144.317 194.808 144.553 195.046 144.605Z" fill="#FFB624"/>
<path d="M183.179 147.633C182.971 147.08 182.947 146.474 183.112 145.906C183.277 145.338 183.622 144.839 184.094 144.484C185.055 143.788 186.208 143.407 187.394 143.393C188.21 143.339 189.009 143.36 189.823 143.227C190.214 143.204 190.593 143.086 190.929 142.884C191.264 142.682 191.545 142.401 191.747 142.066C191.739 143.013 191.654 143.958 191.492 144.891C191.313 145.83 190.902 146.709 190.297 147.449C189.651 148.094 188.872 148.59 188.014 148.903C187.454 149.182 186.845 149.346 186.22 149.387C185.261 149.33 184.329 149.043 183.505 148.548C183.343 148.571 183.553 148.422 183.179 147.633Z" fill="#009420"/>
<path d="M193.184 150.072C191.879 149.392 190.478 148.915 189.028 148.659C188.254 148.528 187.472 148.453 186.687 148.433C185.617 148.426 184.548 148.53 183.5 148.745C182.471 148.957 181.47 149.287 180.517 149.73L179.581 150.149L180.001 151.085L180.281 151.677L180.931 153.076L181.917 155.256L182.356 156.196L183.296 155.758C184.368 155.281 185.534 155.05 186.708 155.083C187.881 155.116 189.032 155.412 190.076 155.95L190.985 156.446L191.462 155.532L192.537 153.516L193.617 151.482L194.094 150.568L193.184 150.072Z" fill="#FF5900"/>
<path d="M186.687 148.43C187.472 148.45 188.255 148.525 189.029 148.656C190.478 148.912 191.88 149.389 193.185 150.069L194.094 150.565L193.617 151.478L192.538 153.513L191.463 155.529L190.986 156.442L190.076 155.946C189.032 155.409 187.882 155.113 186.708 155.08C185.535 155.047 184.369 155.277 183.296 155.755L182.356 156.193L181.918 155.252L180.931 153.073L180.281 151.674L180.001 151.082L179.582 150.146L180.518 149.727C181.471 149.284 182.472 148.954 183.501 148.742C184.549 148.527 185.617 148.422 186.687 148.43ZM186.718 146.967C184.367 146.915 182.035 147.396 179.897 148.373L178.957 148.811L177.603 149.432L178.228 150.767L178.666 151.707L178.928 152.295L179.578 153.694L180.583 155.877L181.021 156.818L181.642 158.171L182.981 157.527L183.921 157.089C184.763 156.728 185.671 156.549 186.587 156.564C187.557 156.543 188.519 156.756 189.389 157.186L190.303 157.663L191.621 158.348L192.302 157.048L192.779 156.135L193.85 154.138L194.933 152.084L195.429 151.175L196.11 149.875L194.814 149.176L193.882 148.695C192.453 147.928 190.908 147.4 189.309 147.13C188.458 146.984 187.598 146.904 186.735 146.892L186.718 146.967Z" fill="white"/>
<path d="M190.554 155.034C189.359 154.405 188.036 154.056 186.687 154.015C185.337 153.973 183.996 154.24 182.765 154.795L180.844 150.643C182.692 149.818 184.702 149.417 186.726 149.47C188.75 149.522 190.736 150.027 192.539 150.946L190.554 155.034Z" fill="url(#paint11_linear_1825_135016)"/>
<path d="M190.561 152.704C190.529 152.711 190.495 152.711 190.463 152.703C190.431 152.696 190.401 152.682 190.374 152.662C189.39 152.051 188.261 151.712 187.102 151.681C185.755 151.525 184.393 151.807 183.219 152.485C183.144 152.515 183.062 152.517 182.985 152.493C182.909 152.468 182.844 152.417 182.801 152.35C182.758 152.282 182.74 152.202 182.75 152.122C182.76 152.043 182.797 151.969 182.855 151.914C184.144 151.111 185.664 150.759 187.175 150.913C188.478 150.95 189.747 151.34 190.845 152.042C190.884 152.065 190.917 152.096 190.943 152.134C190.968 152.171 190.986 152.213 190.995 152.257C191.003 152.301 191.003 152.347 190.993 152.391C190.983 152.435 190.964 152.476 190.937 152.513C190.911 152.587 190.857 152.648 190.787 152.683C190.717 152.719 190.636 152.726 190.561 152.704Z" fill="#FF5500"/>
<path d="M197.348 136.528L197.303 136.733C197.275 136.988 197.219 137.238 197.137 137.481C197.042 137.675 196.929 137.86 196.798 138.033L177.353 137.754C177.227 137.582 177.124 137.394 177.046 137.196C176.935 136.956 176.86 136.701 176.822 136.44C176.828 136.376 176.842 136.314 176.863 136.253C176.847 135.961 176.892 135.668 176.995 135.394C177.098 135.12 177.257 134.87 177.462 134.661C177.667 134.452 177.914 134.288 178.186 134.18C178.458 134.071 178.75 134.021 179.042 134.032L195.38 134.267C195.658 134.285 195.93 134.357 196.18 134.481C196.43 134.604 196.654 134.776 196.837 134.986C197.02 135.196 197.159 135.441 197.247 135.706C197.335 135.97 197.369 136.25 197.348 136.528Z" fill="#CFCFCF"/>
<path d="M218.935 80.4561C218.019 80.3057 217.166 79.9329 216.464 79.3773C215.814 78.7154 215.341 77.9263 215.082 77.0712C215.075 77.056 215.064 77.0429 215.05 77.0337C215.035 77.0245 215.018 77.0195 215 77.0195C214.982 77.0195 214.965 77.0245 214.95 77.0337C214.936 77.0429 214.925 77.056 214.918 77.0712C214.659 77.9263 214.186 78.7154 213.536 79.3773C212.835 79.9329 211.981 80.3057 211.065 80.4561C210.978 80.4561 210.978 80.5749 211.065 80.5848C211.981 80.7353 212.835 81.108 213.536 81.6637C214.188 82.3278 214.661 83.1207 214.918 83.9797C214.927 83.9919 214.939 84.002 214.954 84.0089C214.968 84.0159 214.984 84.0195 215 84.0195C215.016 84.0195 215.032 84.0159 215.046 84.0089C215.061 84.002 215.073 83.9919 215.082 83.9797C215.339 83.1207 215.812 82.3278 216.464 81.6637C217.166 81.108 218.019 80.7353 218.935 80.5848C219.022 80.5749 219.022 80.4759 218.935 80.4561Z" fill="white"/>
<path d="M235 74.4783C234.245 74.3547 229.365 73.5304 228.183 72.4177C227.001 71.305 226.137 66.6995 225.995 66.0195C225.874 66.7098 224.999 71.3256 223.806 72.4383C222.613 73.551 217.733 74.365 217 74.4989C217.733 74.6226 222.635 75.4468 223.828 76.5595C225.021 77.6723 225.863 82.2571 226.016 82.9577C226.016 82.9577 226.016 82.9577 226.016 83.0195C226.137 82.3086 227.023 77.7238 228.205 76.611C229.387 75.4983 234.245 74.6844 235 74.5504L235 74.4783Z" fill="white"/>
<defs>
<linearGradient id="paint0_linear_1825_135016" x1="187.48" y1="238.4" x2="186.37" y2="207.67" gradientUnits="userSpaceOnUse">
<stop stop-color="white"/>
<stop offset="0.11" stop-color="#FFFEFA"/>
<stop offset="0.25" stop-color="#FFFDEB"/>
<stop offset="0.4" stop-color="#FFFBD2"/>
<stop offset="0.56" stop-color="#FFF7B0"/>
<stop offset="0.73" stop-color="#FFF383"/>
<stop offset="0.9" stop-color="#FFED4E"/>
<stop offset="1" stop-color="#FFEA2B"/>
</linearGradient>
<linearGradient id="paint1_linear_1825_135016" x1="188.38" y1="11.9197" x2="188.38" y2="78.7797" gradientUnits="userSpaceOnUse">
<stop stop-color="#40FFF2"/>
<stop offset="0.17" stop-color="#34EDF4"/>
<stop offset="0.49" stop-color="#23D3F7"/>
<stop offset="0.78" stop-color="#18C3F9"/>
<stop offset="1" stop-color="#14BDFA"/>
</linearGradient>
<linearGradient id="paint2_linear_1825_135016" x1="187.89" y1="23.7707" x2="187.89" y2="208.781" gradientUnits="userSpaceOnUse">
<stop stop-color="#FFFC2E"/>
<stop offset="0.05" stop-color="#FFEB33"/>
<stop offset="0.25" stop-color="#FFA548"/>
<stop offset="0.45" stop-color="#FF6C5A"/>
<stop offset="0.62" stop-color="#FF3F67"/>
<stop offset="0.78" stop-color="#FF1F71"/>
<stop offset="0.91" stop-color="#FF0B77"/>
<stop offset="1" stop-color="#FF0479"/>
</linearGradient>
<linearGradient id="paint3_linear_1825_135016" x1="187.25" y1="42" x2="187.25" y2="212" gradientUnits="userSpaceOnUse">
<stop stop-color="white"/>
<stop offset="1" stop-color="white" stop-opacity="0"/>
</linearGradient>
<linearGradient id="paint4_linear_1825_135016" x1="141.222" y1="216.13" x2="139.579" y2="198.073" gradientUnits="userSpaceOnUse">
<stop stop-color="#FFE000"/>
<stop offset="0.55" stop-color="#FFDE00"/>
<stop offset="0.77" stop-color="#FFD700"/>
<stop offset="0.93" stop-color="#FFCB00"/>
<stop offset="1" stop-color="#FFC300"/>
</linearGradient>
<linearGradient id="paint5_linear_1825_135016" x1="144.523" y1="205.105" x2="152.214" y2="208.134" gradientUnits="userSpaceOnUse">
<stop stop-color="#FFAA02"/>
<stop offset="0.51" stop-color="#FFB001"/>
<stop offset="1" stop-color="#FFBB00"/>
</linearGradient>
<linearGradient id="paint6_linear_1825_135016" x1="223.171" y1="109.45" x2="220.7" y2="123.659" gradientUnits="userSpaceOnUse">
<stop stop-color="#FFC800"/>
<stop offset="0.19" stop-color="#FFCD08"/>
<stop offset="0.49" stop-color="#FFD91E"/>
<stop offset="0.86" stop-color="#FFED43"/>
<stop offset="1" stop-color="#FFF652"/>
</linearGradient>
<linearGradient id="paint7_linear_1825_135016" x1="171.017" y1="142.634" x2="153.516" y2="109.91" gradientUnits="userSpaceOnUse">
<stop stop-color="#FFFF33"/>
<stop offset="0.32" stop-color="#7BCB14"/>
<stop offset="0.41" stop-color="#55BC0B"/>
<stop offset="1" stop-color="#378500"/>
</linearGradient>
<linearGradient id="paint8_linear_1825_135016" x1="162.206" y1="122.702" x2="164.148" y2="134.717" gradientUnits="userSpaceOnUse">
<stop stop-color="#006AFF"/>
<stop offset="0.09" stop-color="#0775FF"/>
<stop offset="0.5" stop-color="#24A3FF"/>
<stop offset="0.82" stop-color="#36C0FF"/>
<stop offset="1" stop-color="#3DCBFF"/>
</linearGradient>
<linearGradient id="paint9_linear_1825_135016" x1="197.193" y1="154.542" x2="173.923" y2="154.193" gradientUnits="userSpaceOnUse">
<stop stop-color="#FF8000"/>
<stop offset="0.36" stop-color="#FF7D00"/>
<stop offset="0.58" stop-color="#FF7500"/>
<stop offset="0.76" stop-color="#FF6700"/>
<stop offset="0.91" stop-color="#FF5300"/>
<stop offset="1" stop-color="#FF4400"/>
</linearGradient>
<linearGradient id="paint10_linear_1825_135016" x1="197.193" y1="154.542" x2="173.923" y2="154.193" gradientUnits="userSpaceOnUse">
<stop stop-color="#FF8000"/>
<stop offset="0.36" stop-color="#FF7D00"/>
<stop offset="0.58" stop-color="#FF7500"/>
<stop offset="0.76" stop-color="#FF6700"/>
<stop offset="0.91" stop-color="#FF5300"/>
<stop offset="1" stop-color="#FF4400"/>
</linearGradient>
<linearGradient id="paint11_linear_1825_135016" x1="186.842" y1="149.158" x2="186.758" y2="154.765" gradientUnits="userSpaceOnUse">
<stop stop-color="#FFC800"/>
<stop offset="0.19" stop-color="#FFCD08"/>
<stop offset="0.49" stop-color="#FFD91E"/>
<stop offset="0.86" stop-color="#FFED43"/>
<stop offset="1" stop-color="#FFF652"/>
</linearGradient>
</defs>
</svg>
