<svg width="158" height="158" viewBox="0 0 158 158" fill="none" xmlns="http://www.w3.org/2000/svg">
<g clip-path="url(#clip0_3690_12149)">
<rect width="158" height="158" fill="white"/>
<path d="M375 0H0V812H375V0Z" fill="url(#paint0_radial_3690_12149)"/>
<path d="M111.473 63.8712L65.0664 73.1687V51.7103C66.5059 50.554 68.2044 49.7644 70.0163 49.4092C71.8281 49.054 73.6991 49.1438 75.4686 49.6709C77.238 50.1981 78.8532 51.1468 80.1752 52.4356C81.4973 53.7244 82.4868 55.3148 83.0589 57.0703C84.1186 55.6731 85.5428 54.595 87.1751 53.9544C88.8075 53.3138 90.5848 53.1354 92.312 53.4389C94.0391 53.7423 95.6491 54.5159 96.9653 55.6746C98.2815 56.8333 99.253 58.3323 99.7729 60.007C100.65 59.1201 101.751 58.4883 102.96 58.1794C104.168 57.8704 105.438 57.8958 106.632 58.253C107.827 58.6101 108.903 59.2855 109.743 60.2069C110.584 61.1282 111.158 62.2608 111.405 63.4834C111.428 63.6144 111.454 63.7402 111.473 63.8712Z" fill="url(#paint1_linear_3690_12149)"/>
<path d="M-36 121V102.151L15.9104 91.5538L85.808 77.9102L99.4831 92.7275L-36 121Z" fill="url(#paint2_linear_3690_12149)"/>
<path d="M77.0659 79.6183L-36 102.151V46.1772L72.7852 23.5242L69.9375 69.1838L77.0659 79.6183Z" fill="url(#paint3_linear_3690_12149)"/>
<path d="M-36 88.1541V58.7526L74.0296 35.0779L73.2149 65.1946L-36 88.1541Z" fill="url(#paint4_linear_3690_12149)"/>
<path d="M52.9161 97.3387C52.7147 97.339 52.5209 97.2619 52.3746 97.1235C52.2284 96.985 52.1409 96.7957 52.1301 96.5947C52.0595 94.9324 52.4037 93.2787 53.1318 91.7827C53.8599 90.2867 54.949 88.9954 56.3008 88.0254C56.8728 87.6447 57.4648 87.2949 58.0743 86.9775C58.6637 86.6707 59.2341 86.3286 59.7824 85.9532C62.596 83.9308 63.7697 79.7811 62.4022 76.7029C62.3241 76.5278 62.3127 76.3303 62.3702 76.1474C62.4276 75.9646 62.5498 75.809 62.7139 75.71C63.0859 75.4847 63.4448 75.283 63.7959 75.0996C63.7959 75.042 63.7723 74.9843 63.7618 74.9241C63.7395 74.8072 63.7429 74.6869 63.7719 74.5715C63.8008 74.4561 63.8546 74.3485 63.9295 74.256C64.0442 74.1355 64.1853 74.0433 64.3416 73.9864C64.498 73.9296 64.6654 73.9098 64.8307 73.9286H65.2105H65.5144C65.7204 73.8184 65.9516 73.7642 66.1851 73.7714H66.2349C67.1279 73.7847 68.0189 73.8591 68.9018 73.9941C69.0892 74.0225 69.26 74.1177 69.3828 74.2621C69.5055 74.4065 69.572 74.5904 69.5698 74.78C69.4912 78.1516 72.1712 81.5337 75.5429 82.317C76.1939 82.4537 76.8527 82.5508 77.5155 82.6078C78.2026 82.669 78.8857 82.7687 79.5616 82.9065C81.181 83.2831 82.6814 84.0567 83.9276 85.1574C85.1738 86.2582 86.1267 87.6516 86.7004 89.2122C86.7385 89.3167 86.754 89.4281 86.7458 89.5391C86.7377 89.65 86.706 89.758 86.653 89.8558C86.6 89.9536 86.5269 90.0391 86.4384 90.1065C86.3499 90.174 86.2481 90.2218 86.1397 90.247L85.0159 90.509L83.8737 90.7709C81.0889 91.4206 75.9044 92.6284 69.6196 93.8832C65.8497 94.6351 62.4886 95.3712 59.7877 95.9607C57.3094 96.503 55.3498 96.93 54.1866 97.1291L53.0654 97.3282C53.016 97.3362 52.9661 97.3397 52.9161 97.3387V97.3387Z" fill="url(#paint5_linear_3690_12149)"/>
<path d="M66.1866 74.5604H66.2232C67.0811 74.5735 67.9371 74.6444 68.7854 74.7726C68.6989 78.5293 71.6042 82.2179 75.3662 83.0929C76.6892 83.4021 78.0672 83.3916 79.3927 83.685C80.884 84.0289 82.2658 84.7394 83.4131 85.7522C84.5604 86.765 85.4369 88.0481 85.9631 89.4851L84.8392 89.7471C82.4814 90.2894 76.718 91.67 69.4587 93.1213C62.1993 94.5727 56.4332 95.9585 54.0493 96.362L52.9202 96.5637C52.8524 95.0335 53.1676 93.5107 53.8373 92.1332C54.5071 90.7557 55.5101 89.5673 56.7555 88.6756C57.8662 87.8897 59.1421 87.3657 60.245 86.5798C63.3887 84.3242 64.6488 79.8025 63.1267 76.3628C63.6507 76.051 64.1746 75.7602 64.7169 75.5009C64.6593 75.2834 64.5964 75.0477 64.5388 74.7516C64.5388 74.7071 64.6593 74.694 64.8374 74.694C65.0156 74.694 65.3325 74.7097 65.5447 74.7097C65.6993 74.7097 65.8067 74.7097 65.8408 74.6704C65.8866 74.6255 65.9419 74.5916 66.0028 74.5712C66.0636 74.5507 66.1282 74.5444 66.1918 74.5525M66.1918 72.9807C65.9041 72.9767 65.6184 73.0292 65.3509 73.1352H65.2435C65.102 73.1352 64.9606 73.1352 64.8374 73.1352C64.5555 73.1146 64.2726 73.1594 64.0108 73.2662C63.749 73.373 63.5155 73.5389 63.3284 73.7509C63.1173 74.0052 62.9917 74.3196 62.9695 74.6495C62.7547 74.77 62.5373 74.8957 62.3146 75.0293C61.9864 75.2274 61.7419 75.5385 61.6271 75.9042C61.5122 76.2699 61.535 76.665 61.6911 77.0151C62.9171 79.7711 61.8588 83.4911 59.3333 85.3066C58.8116 85.6647 58.2683 85.9902 57.7064 86.2812C57.0756 86.6162 56.4634 86.9853 55.8726 87.3867C54.4126 88.4343 53.2364 89.8289 52.4501 91.4448C51.6639 93.0607 51.2925 94.8469 51.3693 96.6423C51.3907 97.0445 51.5658 97.423 51.8583 97.6999C52.1507 97.9768 52.5384 98.1309 52.9411 98.1303C53.0342 98.1303 53.1271 98.1224 53.2188 98.1067L54.3401 97.905C55.5242 97.7033 57.4838 97.2736 59.9751 96.7313C62.6735 96.1419 66.0294 95.4084 69.7887 94.6565C76.0919 93.3964 81.2842 92.1887 84.0742 91.539L85.2138 91.277L86.3246 91.0282C86.5417 90.9797 86.7461 90.8858 86.9243 90.7525C87.1024 90.6193 87.2502 90.4497 87.3579 90.2551C87.4656 90.0605 87.5308 89.8452 87.5491 89.6235C87.5674 89.4018 87.5385 89.1787 87.4642 88.969C86.8452 87.2827 85.816 85.777 84.4695 84.5878C83.123 83.3987 81.5016 82.5635 79.7517 82.1577C79.0483 82.013 78.3371 81.9089 77.6218 81.8459C76.9918 81.7966 76.3655 81.7091 75.7461 81.5839C72.715 80.8792 70.3074 77.8508 70.3782 74.8302C70.3869 74.448 70.2561 74.0757 70.0102 73.783C69.7643 73.4903 69.4201 73.2973 69.0421 73.24C68.1244 73.1013 67.1984 73.0242 66.2704 73.0095L66.1918 72.9807Z" fill="white"/>
<path d="M48.7751 70.7458C47.6367 70.7405 46.4996 70.6697 45.3694 70.5336C34.7489 69.3076 28.7628 62.3993 26.8608 56.8559C25.3361 52.4023 26.0749 48.1426 28.8597 45.4259C30.8455 43.4742 33.6119 42.4866 37.0831 42.4866C40.6172 42.4866 44.2036 43.5214 46.5902 44.3885C51.7249 46.259 60.9988 56.9633 59.1886 64.4977C58.6646 66.68 57.0928 69.4753 52.3772 70.421C51.1899 70.6463 49.9835 70.7551 48.7751 70.7458V70.7458ZM33.033 49.7118C31.9589 50.7781 31.765 52.7219 32.509 54.9147C33.9499 59.1063 38.6916 63.7275 46.0296 64.5789C46.9494 64.6895 47.8748 64.7472 48.8013 64.7518C50.3469 64.7518 52.9929 64.5396 53.3256 63.125C53.6923 61.5819 52.5842 58.6714 50.4989 55.7399C48.1673 52.4469 45.5973 50.4166 44.5153 50.0262C41.7044 48.9993 39.1423 48.4544 37.1041 48.4544C36.5021 48.4499 35.901 48.5043 35.3095 48.6168H35.2781C34.439 48.7551 33.6586 49.1358 33.033 49.7118Z" fill="url(#paint6_linear_3690_12149)"/>
<path d="M37.067 43.2717C40.4727 43.2717 43.9229 44.2594 46.3042 45.1265C51.0905 46.8687 60.0867 57.2848 58.4075 64.3136C57.8992 66.4854 56.3457 68.8248 52.2118 69.65C51.0773 69.8659 49.9242 69.9695 48.7694 69.9592C47.6573 69.9543 46.5464 69.8852 45.4423 69.7522C35.1886 68.5681 29.4147 61.9296 27.5887 56.601C26.1636 52.454 26.8395 48.4798 29.3937 45.9858C31.4555 43.9607 34.2377 43.2717 37.067 43.2717M48.8035 65.5396C51.2032 65.5396 53.6736 65.0864 54.0928 63.3076C54.5119 61.5288 53.3828 58.4506 51.1429 55.2885C48.8585 52.061 46.1654 49.7871 44.7848 49.2893C41.8402 48.2126 39.2335 47.6729 37.1063 47.6729C36.4523 47.6686 35.7995 47.7283 35.1572 47.8511C34.1594 48.0113 33.2304 48.4603 32.485 49.1426C31.1751 50.4263 30.9132 52.6793 31.7672 55.168C33.2893 59.6007 38.2616 64.4682 45.9427 65.3589C46.8923 65.4711 47.8473 65.5305 48.8035 65.537M37.0696 41.6973C33.381 41.6973 30.4285 42.7609 28.2934 44.8619C25.2938 47.796 24.4764 52.3728 26.1033 57.1093C28.076 62.8727 34.2796 70.043 45.2642 71.3109C46.4275 71.4505 47.5978 71.5231 48.7694 71.5284C50.028 71.5374 51.2845 71.4234 52.5209 71.1878C57.6294 70.1687 59.3742 67.08 59.9374 64.6699C60.4325 62.6029 60.5871 58.1755 56.0602 51.8331C53.2859 47.9401 49.5815 44.655 46.8439 43.6568C44.397 42.7687 40.7163 41.7077 37.0696 41.7077V41.6973ZM33.5696 50.277C34.0829 49.8129 34.72 49.508 35.4034 49.3993H35.4611C36.0023 49.2952 36.5525 49.2452 37.1036 49.25C39.0501 49.25 41.5179 49.774 44.2451 50.7721C44.9917 51.0341 47.436 52.7814 49.8592 56.2028C52.0729 59.3308 52.8117 61.8929 52.5628 62.9487C52.4423 63.4726 51.232 63.973 48.8008 63.973C47.9051 63.9675 47.0103 63.9115 46.1208 63.8054C39.1209 62.9932 34.6123 58.6313 33.25 54.665C32.6134 52.8024 32.726 51.1284 33.567 50.2874L33.5696 50.277Z" fill="white"/>
<path d="M73.2166 66.0377C70.5968 66.0377 68.4303 64.9688 66.9658 62.949C64.2334 59.1713 65.0246 53.3528 65.7398 50.2222C66.772 45.7005 68.8337 41.4094 70.8719 39.5441C76.7453 34.1422 81.2854 32.9947 84.0571 32.9947C85.2844 32.9889 86.5013 33.2202 87.6409 33.6759C91.2483 35.1246 93.5773 38.7818 93.8733 43.4606C94.2505 49.3053 91.3767 57.9819 82.0425 63.1952C79.6611 64.5234 77.4684 65.3932 75.5245 65.7835C74.7653 65.9433 73.9923 66.0284 73.2166 66.0377V66.0377ZM84.0204 38.994C81.6338 38.994 78.4036 40.7544 74.9272 43.9505C74.081 44.7365 72.4882 47.592 71.5975 51.5269C70.8116 55.04 70.8954 58.1444 71.8254 59.4307C72.1162 59.8341 72.6114 60.0306 73.3187 60.0306C74.6784 60.0306 76.7244 59.2997 79.1188 57.9688C85.5687 54.3641 88.1701 48.2757 87.8898 43.851C87.7483 41.5351 86.8183 39.8139 85.401 39.2402C84.9606 39.0715 84.492 38.9879 84.0204 38.994V38.994Z" fill="url(#paint7_linear_3690_12149)"/>
<path d="M84.045 33.7937C85.1717 33.7873 86.2891 33.9991 87.3354 34.4172C90.652 35.7507 92.8028 39.1538 93.0779 43.5235C93.4394 49.1403 90.6598 57.4894 81.6479 62.5246C79.1905 63.8921 77.1131 64.6754 75.3605 65.0238C74.6511 65.1711 73.9289 65.2474 73.2044 65.2517C70.3829 65.2517 68.6513 63.9419 67.5929 62.4879C63.3541 56.6275 67.64 43.5602 71.3915 40.1231C74.1894 37.5505 79.1224 33.7937 84.0476 33.7937M73.3066 60.8165C75.2452 60.8165 77.8126 59.5931 79.4918 58.6552C86.2403 54.8828 88.9596 48.4775 88.661 43.8012C88.5038 41.1814 87.3747 39.1957 85.6823 38.5119C85.149 38.304 84.5806 38.2008 84.0083 38.208C81.4357 38.208 78.0431 40.0078 74.3833 43.3742C73.3066 44.3618 71.6902 47.4951 70.8178 51.3539C69.9664 55.1342 70.1026 58.4063 71.1767 59.8917C71.6561 60.5571 72.4159 60.8165 73.3066 60.8165ZM84.0476 32.2219C81.1344 32.2219 76.39 33.3929 70.3279 38.9651C68.185 40.9299 66.0289 45.3835 64.9627 50.0467C63.2284 57.644 65.0675 61.681 66.3197 63.4074C67.9361 65.6421 70.3174 66.8131 73.2044 66.8131C74.0327 66.8065 74.8584 66.7188 75.6696 66.5511C77.6921 66.1477 79.9608 65.2412 82.4155 63.8816C92.0693 58.4875 95.04 49.473 94.6497 43.4056C94.3327 38.4281 91.8204 34.4985 87.9248 32.9423C86.6918 32.4498 85.3753 32.1998 84.0476 32.2062V32.2219ZM73.3066 59.2446C72.6464 59.2446 72.4997 59.0403 72.4525 58.9827C71.8133 58.0998 71.5094 55.446 72.3504 51.7102C73.2778 47.6208 74.8627 45.0744 75.4443 44.5426C78.7295 41.522 81.8496 39.7904 84.0083 39.7904C84.3804 39.7848 84.7501 39.8497 85.0981 39.9816C86.2089 40.4296 86.9738 41.9333 87.0943 43.9112C87.3563 48.1028 84.8754 53.8663 78.7111 57.2982C76.4791 58.5452 74.5038 59.2604 73.2935 59.2604L73.3066 59.2446Z" fill="white"/>
<path d="M62.7051 78.2094C58.8305 78.2086 55.0493 77.0197 51.8714 74.8031C48.6935 72.5864 46.2717 69.4486 44.9327 65.8127L34.6318 37.9359C34.4993 37.5843 34.4465 37.2076 34.4773 36.833C34.5224 36.2677 34.7519 35.7328 35.1305 35.3106C35.5092 34.8884 36.016 34.6023 36.5731 34.4962L77.3312 26.354C77.4993 26.3202 77.6705 26.3035 77.842 26.3042C78.043 26.3047 78.2434 26.3276 78.4393 26.3723C78.8032 26.4598 79.1437 26.6251 79.4375 26.857C79.7328 27.0869 79.9735 27.3795 80.1422 27.7136C80.312 28.048 80.4068 28.4155 80.4199 28.7904L81.6223 58.4826C81.729 61.0337 81.3186 63.5801 80.4159 65.9685C79.5132 68.3569 78.1367 70.5381 76.3693 72.3809C74.6019 74.2236 72.4801 75.6899 70.1314 76.6916C67.7828 77.6932 65.2558 78.2095 62.7025 78.2094H62.7051Z" fill="url(#paint8_linear_3690_12149)"/>
<path d="M77.8444 27.0902C77.9838 27.0902 78.1226 27.106 78.2584 27.1374C78.5121 27.1981 78.7496 27.3132 78.9545 27.4746C79.1594 27.6361 79.3268 27.8401 79.4451 28.0726C79.5628 28.3046 79.6289 28.5593 79.639 28.8193L80.8415 58.5142C81.0193 62.8363 79.648 67.0798 76.9747 70.4806C74.3013 73.8814 70.5015 76.2158 66.2596 77.0635C62.0177 77.9112 57.6125 77.2164 53.8374 75.1043C50.0624 72.9921 47.1655 69.6015 45.6687 65.543L35.3678 37.6635C35.2761 37.4187 35.2394 37.1566 35.2604 36.896C35.2914 36.5023 35.4511 36.1297 35.7148 35.8357C35.9785 35.5417 36.3315 35.3426 36.7196 35.2691L77.496 27.1243C77.6134 27.1012 77.7327 27.0897 77.8523 27.0902M77.8523 25.5184C77.6271 25.5178 77.4025 25.5398 77.1817 25.5839L36.4288 33.7261C35.9479 33.8177 35.4928 34.0131 35.0951 34.2986C34.6974 34.5841 34.3667 34.9528 34.126 35.3791C33.8844 35.8062 33.7395 36.281 33.7016 36.7702C33.6635 37.2612 33.7323 37.7545 33.9033 38.2163L44.2016 66.0879C45.8257 70.5003 48.9727 74.1874 53.0752 76.4845C57.1777 78.7817 61.9658 79.5377 66.5765 78.6164C71.1872 77.6951 75.3171 75.157 78.2218 71.4597C81.1265 67.7624 82.6148 63.149 82.4185 58.4513L81.2161 28.7564C81.1984 28.2702 81.0751 27.7937 80.8545 27.3601C80.6321 26.9246 80.3185 26.5422 79.935 26.2388C79.5496 25.936 79.1025 25.7214 78.6252 25.6101C78.3679 25.5475 78.104 25.5167 77.8392 25.5184H77.8523Z" fill="white"/>
<path d="M35.9382 38.8476C35.6259 38.8473 35.3144 38.8166 35.0082 38.7559C34.0793 38.5725 33.2258 38.1176 32.5557 37.4489C31.8855 36.7801 31.4289 35.9276 31.2436 34.9991L30.8689 33.1365C30.7787 32.6729 30.8753 32.1924 31.1379 31.7998C31.4004 31.4072 31.8076 31.1343 32.2705 31.0407L79.95 21.5153C80.0664 21.492 80.1849 21.4806 80.3036 21.4812C80.4188 21.4812 80.5337 21.4917 80.6469 21.5127C80.8766 21.5575 81.0954 21.6465 81.2913 21.7746C81.4866 21.9044 81.654 22.0719 81.7838 22.2671C81.912 22.463 82.001 22.6819 82.0458 22.9116L82.4178 24.7769C82.5415 25.3929 82.5426 26.0272 82.4209 26.6437C82.2993 27.2601 82.0574 27.8465 81.709 28.3694C81.3606 28.8922 80.9125 29.3413 80.3904 29.6909C79.8683 30.0405 79.2825 30.2837 78.6663 30.4067L36.8656 38.7585C36.56 38.8178 36.2494 38.8477 35.9382 38.8476V38.8476Z" fill="#FF7300"/>
<path d="M80.2999 22.2594C80.3641 22.259 80.4282 22.2652 80.4912 22.2778C80.6194 22.3023 80.7414 22.3522 80.8501 22.4245C80.9601 22.4978 81.0545 22.5922 81.1278 22.7022C81.2 22.8109 81.2499 22.9329 81.2745 23.0611L81.6491 24.9289C81.7517 25.4479 81.7517 25.9819 81.6491 26.5008C81.4945 27.2769 81.1134 27.9897 80.5538 28.5492C79.9943 29.1087 79.2815 29.4899 78.5054 29.6445L36.7073 37.9963C36.4483 38.0465 36.1851 38.0719 35.9213 38.0722C35.6575 38.0737 35.3941 38.0483 35.1354 37.9963C34.3594 37.8417 33.6466 37.4605 33.087 36.901C32.5275 36.3414 32.1463 35.6286 31.9917 34.8526L31.6485 32.9794C31.6228 32.8509 31.6228 32.7185 31.6485 32.5899C31.6741 32.4613 31.7248 32.3391 31.7978 32.2302C31.946 32.01 32.1745 31.8567 32.4344 31.8032L80.1139 22.2778C80.1795 22.265 80.2462 22.2589 80.313 22.2594M80.313 20.6876C80.1372 20.6863 79.9616 20.703 79.7891 20.7373L32.1096 30.2628C31.4415 30.3963 30.8535 30.7891 30.4744 31.3553C30.0954 31.9214 29.9561 32.6147 30.0872 33.2833L30.4618 35.1538C30.7125 36.4181 31.3945 37.556 32.3913 38.3731C33.3881 39.1902 34.6377 39.6358 35.9266 39.6336C36.2925 39.6332 36.6574 39.5972 37.0164 39.5262L78.8146 31.1744C80.2619 30.8842 81.5349 30.0315 82.3541 28.8036C83.1734 27.5757 83.472 26.0729 83.1843 24.6251L82.8123 22.7624C82.6975 22.1794 82.3835 21.6544 81.9243 21.2773C81.465 20.9003 80.8889 20.6946 80.2947 20.6954L80.313 20.6876Z" fill="white"/>
<path d="M31.9176 35.2323C31.7361 35.2322 31.5602 35.1693 31.4198 35.0542C31.2794 34.9391 31.1832 34.7789 31.1475 34.6009L30.8697 33.1365C30.7781 32.6724 30.8745 32.1908 31.1379 31.7978C31.4012 31.4048 31.8098 31.1324 32.2739 31.0407L79.9534 21.5153C80.0732 21.4907 80.1953 21.4784 80.3176 21.4786C80.4274 21.4776 80.5371 21.4873 80.645 21.5074C80.8776 21.5509 81.0993 21.6399 81.2974 21.7694C81.4955 21.8985 81.6649 22.0671 81.7951 22.2645C81.9248 22.4615 82.0138 22.6824 82.0571 22.9142L82.3505 24.3786C82.3707 24.48 82.3708 24.5843 82.3506 24.6856C82.3305 24.787 82.2906 24.8833 82.2331 24.9692C82.1757 25.0551 82.1019 25.1288 82.016 25.1862C81.93 25.2435 81.8336 25.2834 81.7322 25.3034L32.0801 35.2323C32.0261 35.2379 31.9716 35.2379 31.9176 35.2323V35.2323Z" fill="url(#paint9_linear_3690_12149)"/>
<path d="M80.3048 22.2592C80.3662 22.2592 80.4276 22.2645 80.4882 22.2749C80.6184 22.2982 80.7423 22.3482 80.8523 22.4216C80.9623 22.4949 81.0567 22.5893 81.13 22.6993C81.2038 22.8084 81.2546 22.9314 81.2793 23.0608L81.5728 24.5305L31.9153 34.4462L31.6219 32.9792C31.596 32.8503 31.5958 32.7176 31.6213 32.5887C31.6468 32.4597 31.6975 32.3371 31.7705 32.2278C31.8435 32.1185 31.9374 32.0247 32.0468 31.9518C32.1562 31.8789 32.2789 31.8283 32.4079 31.8029L80.0873 22.2775C80.1562 22.2626 80.2265 22.2556 80.2969 22.2565M80.2969 20.6847C80.1209 20.6837 79.9453 20.7013 79.773 20.7371L32.0935 30.2625C31.4259 30.3961 30.8384 30.7885 30.4594 31.3541C30.0804 31.9196 29.9408 32.6122 30.071 33.2805L30.3671 34.7554C30.4387 35.1127 30.6324 35.434 30.9148 35.6644C31.1972 35.8947 31.5509 36.0197 31.9153 36.0181C32.0191 36.0189 32.1227 36.0093 32.2245 35.9893L81.8819 26.063C82.0843 26.0227 82.2769 25.9428 82.4485 25.828C82.6201 25.7131 82.7674 25.5656 82.882 25.3939C82.9966 25.2221 83.0762 25.0295 83.1163 24.8269C83.1564 24.6244 83.1562 24.416 83.1158 24.2135L82.8224 22.7464C82.7559 22.413 82.6241 22.0961 82.4346 21.8138C82.2452 21.53 82.0001 21.2876 81.7142 21.1012C81.4307 20.9139 81.1128 20.7848 80.779 20.7214C80.6225 20.6931 80.4638 20.6791 80.3048 20.6795L80.2969 20.6847Z" fill="white"/>
<path d="M51.5602 102.937C51.2198 102.936 50.89 102.818 50.6266 102.602C50.3632 102.387 50.1822 102.087 50.1141 101.753C49.9581 100.978 49.8948 100.186 49.9255 99.3954C49.9255 99.3168 49.9255 99.2461 49.9255 99.1727C49.9641 98.5126 50.0909 97.8606 50.3027 97.2341C50.7979 95.8116 51.7331 94.8764 52.8727 94.638L85.355 88.1514C85.5326 88.1147 85.7134 88.0963 85.8947 88.0964C86.8745 88.0964 87.8779 88.6204 88.7214 89.5583C89.1619 90.0599 89.5329 90.6186 89.8244 91.2192C90.2022 91.9914 90.4778 92.8095 90.6443 93.6529C90.7192 94.0363 90.6395 94.4337 90.4226 94.7586C90.2057 95.0835 89.8692 95.3094 89.4864 95.3872L51.851 102.906C51.7555 102.927 51.658 102.937 51.5602 102.937V102.937Z" fill="url(#paint10_linear_3690_12149)"/>
<path d="M85.876 88.8852C86.6279 88.8852 87.4191 89.3043 88.1186 90.085C88.5103 90.5345 88.8406 91.034 89.101 91.5704C89.4484 92.281 89.7012 93.034 89.8528 93.8103C89.8883 93.9892 89.8514 94.1748 89.7503 94.3266C89.6491 94.4783 89.4919 94.5838 89.3131 94.6198L51.6778 102.138C51.633 102.148 51.5873 102.152 51.5415 102.152C51.3827 102.152 51.2288 102.097 51.106 101.996C50.9832 101.895 50.8992 101.755 50.8683 101.599C50.7247 100.885 50.6649 100.157 50.6901 99.4297C50.6901 99.3668 50.6901 99.3065 50.6901 99.2437C50.7245 98.6479 50.8382 98.0594 51.0281 97.4937C51.4289 96.3331 52.1441 95.5839 53.006 95.3979L85.4988 88.9376C85.6264 88.9114 85.7563 88.8982 85.8865 88.8983M85.8865 87.3264C85.6533 87.3263 85.4207 87.35 85.1923 87.3971L52.7231 93.8837C51.3031 94.1666 50.1531 95.2983 49.5794 96.9907C49.3433 97.6846 49.2023 98.4072 49.1602 99.1389C49.1602 99.2149 49.1602 99.2908 49.1445 99.3668C49.1122 100.222 49.1807 101.079 49.3488 101.918C49.4525 102.43 49.7297 102.891 50.1335 103.222C50.5372 103.553 51.0429 103.735 51.5651 103.737C51.7139 103.738 51.8623 103.723 52.0079 103.692L89.6459 96.1733C89.937 96.1154 90.2139 96.0006 90.4607 95.8356C90.7075 95.6706 90.9193 95.4585 91.084 95.2115C91.2487 94.9646 91.3631 94.6875 91.4207 94.3963C91.4782 94.1051 91.4778 93.8053 91.4194 93.5143C91.2393 92.6059 90.9407 91.7252 90.5313 90.8945C90.2102 90.2303 89.7994 89.6133 89.3105 89.0607C88.3176 87.9499 87.1047 87.3369 85.9048 87.3369L85.8865 87.3264Z" fill="white"/>
<path d="M51.5602 102.937C51.2198 102.936 50.89 102.818 50.6266 102.602C50.3632 102.386 50.1822 102.087 50.1141 101.753C49.9581 100.977 49.8948 100.186 49.9255 99.3952C49.9255 99.3166 49.9255 99.2459 49.9255 99.1725C49.9403 99.0032 50.0096 98.8433 50.123 98.7168C50.2363 98.5902 50.3876 98.5038 50.5543 98.4704L88.952 90.7972C89.1216 90.763 89.2979 90.7859 89.4532 90.8621C89.6086 90.9384 89.7344 91.0638 89.8112 91.2189C90.1891 91.9911 90.4648 92.8093 90.6312 93.6527C90.7061 94.0361 90.6264 94.4335 90.4095 94.7584C90.1926 95.0832 89.8561 95.3092 89.4733 95.387L51.8379 102.906C51.7467 102.926 51.6536 102.936 51.5602 102.937Z" fill="#FF7300"/>
<path d="M89.1128 91.5701C89.4602 92.2807 89.713 93.0338 89.8647 93.81C89.9002 93.9889 89.8633 94.1746 89.7622 94.3263C89.661 94.4781 89.5038 94.5835 89.325 94.6195L51.6897 102.138C51.6449 102.148 51.5992 102.152 51.5534 102.151C51.3946 102.151 51.2406 102.096 51.1179 101.995C50.9951 101.895 50.9111 101.754 50.8802 101.599C50.7366 100.885 50.6768 100.157 50.702 99.4294C50.702 99.3665 50.702 99.3063 50.702 99.2434L89.0997 91.5701M89.0997 89.9983C88.9959 89.9985 88.8923 90.0091 88.7906 90.0297L50.406 97.7004C50.0723 97.7672 49.7694 97.9404 49.5427 98.1941C49.3159 98.4478 49.1776 98.7682 49.1485 99.1072C49.1485 99.191 49.1485 99.2722 49.1328 99.3534C49.1004 100.209 49.169 101.065 49.3371 101.905C49.4408 102.417 49.718 102.877 50.1217 103.209C50.5255 103.54 51.0312 103.722 51.5534 103.723C51.7022 103.724 51.8506 103.709 51.9962 103.679L89.6341 96.16C89.9253 96.102 90.2022 95.9873 90.449 95.8223C90.6958 95.6572 90.9076 95.4452 91.0723 95.1982C91.237 94.9512 91.3514 94.6742 91.409 94.3829C91.4666 94.0917 91.4661 93.792 91.4077 93.5009C91.2276 92.5926 90.929 91.7118 90.5196 90.8812C90.3895 90.6193 90.1889 90.3989 89.9404 90.2448C89.6919 90.0907 89.4052 90.0089 89.1128 90.0088L89.0997 89.9983Z" fill="white"/>
<path d="M86.7337 81.9564C86.4508 81.9564 86.1626 81.8411 85.6858 81.5451C80.6768 78.3411 72.291 72.9785 65.9067 72.9785C63.5044 72.9785 61.6103 73.7068 60.117 75.2027C60.0386 75.2843 59.9446 75.3494 59.8407 75.3944C59.7368 75.4394 59.6251 75.4633 59.5119 75.4646C59.3975 75.4656 59.2842 75.4429 59.1791 75.3978C59.0741 75.3527 58.9795 75.2862 58.9015 75.2027C58.574 74.8411 58.6054 74.3984 58.7888 72.5829C58.8797 71.8395 58.9321 71.0918 58.946 70.343C58.8815 70.2562 58.8352 70.1573 58.8098 70.0522C58.7673 69.8746 58.7881 69.6878 58.8684 69.5239C58.9487 69.3599 59.0836 69.229 59.2499 69.1537L71.8745 63.4242C71.9765 63.3778 72.0872 63.3537 72.1993 63.3535C72.3069 63.3535 72.4133 63.3756 72.512 63.4184C72.6107 63.4612 72.6995 63.5239 72.773 63.6024C72.8123 63.6417 76.5796 67.663 80.2472 71.7498C87.9912 80.3793 87.7973 80.8273 87.5275 81.4429C87.4605 81.6001 87.3483 81.7339 87.2051 81.8272C87.0619 81.9205 86.8941 81.9691 86.7232 81.9669L86.7337 81.9564Z" fill="#046DB3"/>
<path d="M72.2189 64.1283C72.2189 64.1283 88.1994 81.1698 86.7428 81.1698C86.5194 81.121 86.3099 81.0225 86.1298 80.8816C80.6571 77.3816 72.473 72.1919 65.9262 72.1919C63.5161 72.1919 61.3286 72.8966 59.5786 74.6466C59.5732 74.6544 59.5662 74.661 59.5581 74.666C59.5499 74.671 59.5409 74.6742 59.5314 74.6754C59.2066 74.6754 60.0947 69.8577 59.5969 69.8577L72.2215 64.1283M72.2215 62.5564C71.9975 62.5559 71.776 62.6032 71.5718 62.6953L58.9472 68.4273C58.6151 68.5779 58.3457 68.8392 58.1851 69.1666C58.0246 69.494 57.9828 69.867 58.067 70.2218C58.094 70.3358 58.1336 70.4465 58.1849 70.5519C58.1849 71.0182 58.088 71.9168 58.0277 72.4931C57.8391 74.3767 57.7657 75.0815 58.3421 75.7154C58.4932 75.8812 58.6773 76.0134 58.8826 76.1036C59.0879 76.1939 59.3098 76.2401 59.5341 76.2394C59.7503 76.2388 59.9643 76.1952 60.1636 76.1111C60.3628 76.027 60.5433 75.9041 60.6946 75.7495C62.0333 74.4082 63.7466 73.7559 65.9341 73.7559C72.0879 73.7559 80.3427 79.0399 85.2915 82.1993C85.7171 82.5111 86.2239 82.693 86.7506 82.7233C87.0743 82.7246 87.3912 82.6313 87.6626 82.4549C87.9339 82.2785 88.1478 82.0267 88.278 81.7304C88.7364 80.6668 88.1941 79.7734 85.9438 77.041C84.7335 75.574 83.0227 73.6065 80.8588 71.1937C77.1912 67.1017 73.4135 63.0725 73.3742 63.0332C73.227 62.8766 73.0492 62.7519 72.8518 62.6667C72.6544 62.5816 72.4417 62.5378 72.2268 62.5381L72.2215 62.5564Z" fill="white"/>
<path d="M59.1518 76.5854C59.0256 76.5858 58.9011 76.5558 58.7889 76.4979C58.6767 76.44 58.5802 76.3559 58.5074 76.2527C56.2963 73.109 58.8505 69.5462 58.9606 69.3968C59.0407 69.2846 59.148 69.1945 59.2723 69.1349L71.8969 63.4055C71.9987 63.3584 72.1096 63.3342 72.2218 63.3347C72.3927 63.3347 72.5589 63.3905 72.6953 63.4935C72.8317 63.5965 72.9308 63.7411 72.9776 63.9055C73.0243 64.0698 73.0163 64.245 72.9546 64.4044C72.8929 64.5637 72.7809 64.6987 72.6357 64.7887C72.544 64.8437 63.553 70.429 59.7989 76.2187C59.7293 76.3263 59.6344 76.4153 59.5225 76.4778C59.4107 76.5404 59.2852 76.5746 59.1571 76.5776L59.1518 76.5854Z" fill="#059CFF"/>
<path d="M72.2136 64.1285C72.2136 64.1285 63.0288 69.7872 59.1437 75.7995C57.2313 73.0907 59.5891 69.8579 59.5891 69.8579L72.2136 64.1285ZM72.2136 62.5567C72.1134 62.5559 72.0133 62.5656 71.915 62.5855C71.7834 62.6107 71.6558 62.653 71.5351 62.7113L58.9394 68.4276C58.6922 68.5397 58.4783 68.7139 58.3185 68.9332C58.1954 69.1008 55.3241 73.1248 57.8574 76.706C58.0028 76.9119 58.1955 77.0798 58.4194 77.1956C58.6432 77.3115 58.8916 77.3717 59.1437 77.3714H59.1751C59.4319 77.3659 59.6834 77.2976 59.9076 77.1725C60.1318 77.0474 60.322 76.8692 60.4614 76.6536C64.0217 71.1521 72.5123 65.7947 73.0179 65.4803C73.1019 65.4304 73.1808 65.3725 73.2537 65.3074C73.3143 65.2538 73.3712 65.196 73.424 65.1345C73.6081 64.9136 73.728 64.6463 73.7708 64.3619C73.8135 64.0775 73.7774 63.7868 73.6664 63.5215C73.5553 63.2561 73.3736 63.0264 73.141 62.8572C72.9084 62.688 72.6339 62.5859 72.3473 62.5619C72.3028 62.5593 72.2581 62.5593 72.2136 62.5619V62.5567Z" fill="white"/>
<path d="M97.3584 91.9994C97.1642 91.9975 96.9776 91.9238 96.8345 91.7925L85.6429 81.4942C85.5608 81.4182 85.4958 81.3256 85.4523 81.2225C85.4089 81.1194 85.3879 81.0082 85.3909 80.8963C85.3939 80.7845 85.4207 80.6746 85.4696 80.5739C85.5185 80.4733 85.5883 80.3842 85.6743 80.3127L91.6133 75.3981C91.7547 75.2809 91.9327 75.2169 92.1163 75.2173C92.3103 75.2204 92.4965 75.2939 92.6402 75.4242L104.18 86.0552C104.738 85.7539 105.49 85.4003 106.014 85.4003C106.249 85.3887 106.48 85.4616 106.665 85.6058C106.851 85.75 106.979 85.9559 107.025 86.1862C107.056 86.3494 107.034 86.5182 106.963 86.6684C106.892 86.8185 106.776 86.9423 106.63 87.0219L97.7226 91.9103C97.6102 91.969 97.4852 91.9995 97.3584 91.9994V91.9994Z" fill="#059CFF"/>
<path d="M92.1122 76.0034L104.077 87.0064C104.077 87.0064 105.455 86.168 106.023 86.168C106.154 86.168 106.241 86.2126 106.262 86.3174L97.3544 91.2058L86.1628 80.9102L92.1044 75.9956M92.1044 74.4237C91.7428 74.4287 91.3939 74.5582 91.1167 74.7905L85.1777 79.7025C85.0065 79.8455 84.8676 80.0233 84.7704 80.2241C84.6732 80.4249 84.6198 80.6442 84.6138 80.8672C84.6079 81.0902 84.6495 81.312 84.7359 81.5177C84.8223 81.7234 84.9515 81.9084 85.1149 82.0603L96.3065 92.3585C96.5973 92.6255 96.9779 92.7733 97.3727 92.7724C97.6366 92.7728 97.8962 92.7061 98.1272 92.5786L107.034 87.6901C107.325 87.5301 107.558 87.2823 107.699 86.982C107.84 86.6818 107.882 86.3446 107.82 86.0187C107.74 85.6086 107.517 85.2402 107.191 84.9788C106.865 84.7175 106.457 84.5801 106.039 84.591C105.442 84.6352 104.86 84.8029 104.331 85.0835L93.1916 74.835C92.9012 74.5671 92.5205 74.4184 92.1253 74.4185L92.1044 74.4237Z" fill="white"/>
<g opacity="0.5">
<path d="M102.766 88.8824C102.572 88.8793 102.385 88.8057 102.242 88.6754L90.2772 77.6724C90.1946 77.5964 90.1293 77.5036 90.0855 77.4003C90.0418 77.2969 90.0207 77.1854 90.0237 77.0732C90.0267 76.961 90.0537 76.8508 90.1028 76.7499C90.1519 76.649 90.2221 76.5598 90.3087 76.4883L91.6185 75.4064C91.7599 75.2892 91.9379 75.2252 92.1215 75.2256C92.3155 75.2287 92.5017 75.3022 92.6454 75.4326L104.61 86.4355C104.692 86.5115 104.758 86.6043 104.802 86.7076C104.845 86.811 104.866 86.9225 104.863 87.0347C104.86 87.1469 104.833 87.2572 104.784 87.358C104.735 87.4589 104.665 87.5481 104.578 87.6196L103.269 88.7016C103.127 88.8188 102.949 88.8827 102.766 88.8824V88.8824Z" fill="url(#paint11_linear_3690_12149)"/>
<path d="M92.1106 76.0034L104.075 87.0064L102.765 88.0883L90.8008 77.0854L92.1106 76.0008M92.1106 74.429C91.747 74.4307 91.3951 74.5584 91.1151 74.7905L89.8053 75.8724C89.6342 76.0156 89.4955 76.1936 89.3985 76.3945C89.3015 76.5954 89.2484 76.8147 89.2427 77.0377C89.237 77.2608 89.2788 77.4824 89.3654 77.6881C89.452 77.8937 89.5814 78.0785 89.745 78.2302L101.709 89.2332C101.989 89.4908 102.353 89.6383 102.733 89.6484C103.113 89.6585 103.483 89.5305 103.776 89.2882L105.086 88.2062C105.258 88.0632 105.396 87.8854 105.494 87.6846C105.591 87.4838 105.644 87.2646 105.65 87.0415C105.656 86.8185 105.614 86.5968 105.528 86.391C105.442 86.1853 105.313 86.0004 105.149 85.8485L93.1847 74.8455C92.8943 74.5776 92.5136 74.4288 92.1185 74.429H92.1106Z" fill="white"/>
</g>
<path d="M92.6245 87.6428C92.4303 87.6409 92.2437 87.5672 92.1006 87.4358L85.6429 81.4942C85.5608 81.4182 85.4958 81.3256 85.4523 81.2225C85.4089 81.1194 85.3879 81.0082 85.3909 80.8963C85.3939 80.7845 85.4207 80.6746 85.4696 80.5739C85.5185 80.4733 85.5883 80.3842 85.6743 80.3127L91.6133 75.3981C91.7547 75.2809 91.9327 75.2169 92.1163 75.2173C92.3103 75.2204 92.4965 75.2939 92.6402 75.4242L96.7873 79.2438C96.9137 79.3606 96.9983 79.5155 97.0281 79.6849C97.0579 79.8544 97.0313 80.0289 96.9524 80.1817L93.324 87.221C93.2687 87.3284 93.1893 87.4217 93.0921 87.4935C92.9949 87.5653 92.8824 87.6137 92.7634 87.6349C92.7174 87.6414 92.671 87.6441 92.6245 87.6428V87.6428Z" fill="#046DB3"/>
<path d="M92.1122 76.0037L96.2593 79.8207L92.6283 86.8574L86.1706 80.9184L92.1122 76.0037ZM92.1122 74.4319C91.7489 74.4329 91.3971 74.5597 91.1167 74.7908L85.1777 79.7028C85.0065 79.8458 84.8676 80.0236 84.7704 80.2244C84.6732 80.4253 84.6198 80.6445 84.6138 80.8675C84.6079 81.0905 84.6495 81.3123 84.7359 81.518C84.8223 81.7237 84.9515 81.9087 85.1149 82.0606L91.5726 88.0022C91.8627 88.2686 92.2423 88.4163 92.6362 88.4161C92.724 88.4154 92.8116 88.4075 92.8982 88.3925C93.1361 88.3501 93.3611 88.2533 93.5555 88.1097C93.75 87.9661 93.9087 87.7796 94.0194 87.5647L97.6661 80.5542C97.8243 80.248 97.8774 79.8982 97.8173 79.5588C97.7572 79.2194 97.5871 78.9092 97.3334 78.6759L93.1863 74.8615C92.8959 74.5936 92.5152 74.4449 92.1201 74.445L92.1122 74.4319Z" fill="white"/>
<path d="M98.9749 93.679C98.772 93.6796 98.5768 93.6017 98.43 93.4616L93.2612 88.505C93.186 88.4318 93.1262 88.3442 93.0853 88.2474C93.0445 88.1507 93.0234 88.0468 93.0234 87.9418C93.0234 87.8367 93.0445 87.7328 93.0853 87.6361C93.1262 87.5393 93.186 87.4517 93.2612 87.3785L99.0247 81.7094C99.1711 81.5642 99.3687 81.4823 99.5749 81.4814C99.7756 81.4815 99.9687 81.5584 100.115 81.6963L104.073 85.432C104.799 85.16 105.562 84.9984 106.336 84.9526C106.561 84.9378 106.786 84.9685 106.999 85.0428C107.211 85.117 107.407 85.2334 107.573 85.3849C107.693 85.5068 107.786 85.652 107.848 85.8115C107.91 85.971 107.938 86.1414 107.932 86.3123C107.93 86.4275 107.903 86.5409 107.853 86.6446C107.803 86.7483 107.731 86.8396 107.641 86.9122L99.4779 93.5061C99.3355 93.6204 99.1576 93.6816 98.9749 93.679V93.679Z" fill="#FC50A8"/>
<path d="M99.5699 82.2674L103.885 86.3385C103.885 86.3385 105.365 85.7386 106.332 85.7386C106.8 85.7386 107.146 85.88 107.141 86.3018L98.9778 92.8931L93.8065 87.9365L99.5699 82.2674ZM99.5699 80.6956C99.157 80.6959 98.7608 80.8587 98.467 81.1488L92.7036 86.8179C92.5537 86.9655 92.4349 87.1416 92.3543 87.3359C92.2737 87.5302 92.2329 87.7387 92.2344 87.949C92.2359 88.1594 92.2796 88.3673 92.3628 88.5604C92.4461 88.7536 92.5673 88.9281 92.7193 89.0735L97.888 94.0275C98.164 94.2928 98.5274 94.4482 98.9099 94.4646C99.2924 94.481 99.6678 94.3572 99.9655 94.1165L108.126 87.5252C108.306 87.3798 108.452 87.1964 108.553 86.988C108.654 86.7797 108.708 86.5517 108.71 86.3202C108.717 86.0458 108.668 85.7728 108.568 85.5173C108.468 85.2618 108.317 85.0289 108.126 84.8321C107.887 84.6049 107.605 84.4286 107.296 84.3142C106.987 84.1998 106.658 84.1496 106.329 84.1667C105.627 84.1939 104.932 84.3191 104.264 84.5387L100.647 81.1331C100.355 80.8573 99.9687 80.7035 99.5673 80.7034L99.5699 80.6956Z" fill="white"/>
<path d="M94.3274 89.244C94.2236 89.2439 94.1209 89.2232 94.0251 89.1832C93.9293 89.1432 93.8424 89.0846 93.7694 89.0108L93.2455 88.4868C93.0983 88.3395 93.0156 88.1397 93.0156 87.9315C93.0156 87.7232 93.0983 87.5234 93.2455 87.3761L99.0089 81.7069C99.1553 81.5617 99.3529 81.4799 99.5591 81.479C99.7598 81.4791 99.9529 81.5559 100.099 81.6938L102.506 83.9599C102.613 84.0599 102.689 84.1875 102.727 84.3284C102.765 84.4694 102.762 84.618 102.721 84.7578C102.679 84.8976 102.599 85.0229 102.49 85.1199C102.38 85.2168 102.247 85.2814 102.103 85.3065L98.9434 85.8487L94.7937 89.0763C94.6605 89.181 94.4969 89.2398 94.3274 89.244V89.244Z" fill="#FF98CA"/>
<path d="M99.5697 82.2673L101.98 84.5334L98.6266 85.1124L94.3223 88.4578L93.7984 87.9339L99.5618 82.2647M99.5618 80.6929C99.1489 80.6932 98.7528 80.856 98.4589 81.1461L92.6955 86.8152C92.5483 86.9602 92.4311 87.1327 92.3507 87.323C92.2702 87.5132 92.2281 87.7175 92.2266 87.9241C92.2251 88.1306 92.2644 88.3355 92.3422 88.5268C92.4199 88.7182 92.5346 88.8924 92.6797 89.0394L93.2037 89.5634C93.4748 89.8405 93.8387 90.0077 94.2255 90.0329C94.6124 90.058 94.9949 89.9393 95.2995 89.6996L99.292 86.5926L102.258 86.0843C102.546 86.0349 102.815 85.906 103.034 85.7122C103.253 85.5183 103.413 85.2673 103.497 84.9872C103.581 84.7071 103.586 84.4091 103.51 84.1267C103.434 83.8443 103.28 83.5887 103.067 83.3886L100.657 81.1225C100.365 80.8483 99.9804 80.6956 99.5802 80.6955L99.5618 80.6929Z" fill="white"/>
<path d="M99.0388 93.7001C98.9125 93.7012 98.7876 93.6743 98.673 93.6213C98.5584 93.5683 98.4569 93.4905 98.376 93.3936C97.7944 92.6836 98.5829 91.9134 99.4239 91.0961C100.152 90.3809 101.163 89.4875 102.272 88.5811C104.037 87.135 106.306 85.4112 107.087 85.4112C107.213 85.4095 107.339 85.4362 107.454 85.4892C107.569 85.5423 107.671 85.6203 107.752 85.7177C108.331 86.425 107.545 87.1979 106.704 88.0126C105.976 88.7304 104.965 89.6211 103.857 90.5276C102.091 91.9763 99.8195 93.7001 99.0388 93.7001Z" fill="#C4397A"/>
<path d="M107.078 86.1945C107.088 86.1936 107.099 86.195 107.109 86.1986C107.119 86.2022 107.128 86.208 107.135 86.2154C107.3 86.4171 105.61 88.0754 103.357 89.9197C101.262 91.6409 99.4122 92.9141 99.0401 92.9141C99.0113 92.9141 98.993 92.9141 98.9825 92.8932C98.8175 92.6914 100.507 91.0331 102.76 89.1888C104.856 87.4703 106.706 86.1971 107.078 86.1945M107.078 84.6226C106.679 84.6226 105.852 84.6226 101.762 87.9733C100.638 88.8928 99.6087 89.8071 98.8646 90.5354C98.5441 90.8417 98.2415 91.1663 97.9582 91.5073C97.002 92.7019 97.505 93.5717 97.7643 93.8913C97.9198 94.0786 98.1148 94.2291 98.3354 94.332C98.556 94.4348 98.7967 94.4874 99.0401 94.486C99.4357 94.486 100.264 94.486 104.353 91.1353C105.477 90.2158 106.506 89.3015 107.253 88.5758C107.573 88.2696 107.875 87.9451 108.157 87.6039C109.116 86.4093 108.613 85.5395 108.351 85.2199C108.197 85.0316 108.002 84.8802 107.782 84.7768C107.562 84.6735 107.321 84.6208 107.078 84.6226V84.6226Z" fill="white"/>
<path d="M73.2482 93.1605C73.1591 93.1615 73.0705 93.1473 72.9862 93.1186L63.3796 89.8282C63.2237 89.7731 63.0892 89.6703 62.9951 89.5344C62.9011 89.3985 62.8523 89.2363 62.8556 89.0711C62.8556 88.589 63.2171 88.0991 63.9926 88.0991C64.5547 88.1403 65.1084 88.2594 65.6378 88.4528L75.1894 76.0116C75.2629 75.9162 75.3574 75.8389 75.4655 75.7857C75.5736 75.7326 75.6925 75.705 75.8129 75.7051C75.949 75.7042 76.0828 75.7395 76.2007 75.8073L82.8941 79.6295C82.9915 79.6846 83.076 79.7598 83.142 79.8502C83.2079 79.9405 83.2538 80.0439 83.2766 80.1534C83.2989 80.2635 83.2973 80.377 83.2719 80.4863C83.2466 80.5957 83.1982 80.6984 83.1299 80.7874L73.8717 92.8671C73.7969 92.9601 73.7018 93.0349 73.5938 93.0858C73.4858 93.1366 73.3676 93.1622 73.2482 93.1605V93.1605Z" fill="#059CFF"/>
<path d="M75.8099 76.491L82.5033 80.3106L73.2425 92.3746L63.6385 89.0842C63.6385 88.9401 63.78 88.8851 63.9895 88.8851C64.6288 88.8851 65.9072 89.3881 65.9072 89.3881L75.8099 76.491M75.8099 74.9192C75.5689 74.919 75.3312 74.9741 75.1149 75.0804C74.8987 75.1867 74.7099 75.3413 74.5629 75.5322L65.344 87.5412C64.9042 87.4073 64.4489 87.3307 63.9895 87.3132C62.7452 87.3132 62.0797 88.1909 62.0666 89.058C62.0608 89.3901 62.1604 89.7156 62.351 89.9876C62.5416 90.2596 62.8135 90.4643 63.1277 90.5722L72.7317 93.8626C73.0426 93.9703 73.3796 93.9776 73.6949 93.8836C74.0103 93.7896 74.2882 93.599 74.4895 93.3387L83.7503 81.2878C83.8872 81.1097 83.9843 80.9043 84.0351 80.6854C84.0858 80.4666 84.0891 80.2394 84.0447 80.0192C84.0002 79.799 83.9091 79.5909 83.7775 79.4089C83.6458 79.2269 83.4766 79.0752 83.2814 78.9641L76.588 75.1445C76.3491 75.0066 76.0778 74.9352 75.802 74.9375L75.8099 74.9192Z" fill="white"/>
<g opacity="0.5">
<path d="M67.3819 91.0154C67.246 91.0155 67.1124 90.9803 66.9942 90.9133L65.5167 90.0697C65.4193 90.014 65.3351 89.9381 65.2695 89.8472C65.2039 89.7562 65.1586 89.6523 65.1365 89.5424C65.1144 89.4324 65.1161 89.3191 65.1414 89.2098C65.1668 89.1006 65.2152 88.9981 65.2835 88.9091L75.1861 76.0121C75.2596 75.9166 75.3541 75.8393 75.4622 75.7862C75.5703 75.7331 75.6892 75.7055 75.8096 75.7056C75.9457 75.7047 76.0795 75.74 76.1974 75.8078L77.6723 76.6487C77.7697 76.7038 77.8542 76.779 77.9201 76.8694C77.9861 76.9597 78.032 77.0631 78.0548 77.1726C78.077 77.2827 78.0754 77.3962 78.0501 77.5055C78.0248 77.6149 77.9764 77.7176 77.9081 77.8066L68.0054 90.7037C67.9325 90.8001 67.8383 90.8784 67.7301 90.9325C67.622 90.9865 67.5028 91.0149 67.3819 91.0154V91.0154Z" fill="url(#paint12_linear_3690_12149)"/>
<path d="M75.8097 76.4913L77.2846 77.3323L67.382 90.2293L65.9071 89.3884L75.8097 76.4913ZM75.8097 74.9195C75.5688 74.9193 75.331 74.9744 75.1148 75.0807C74.8986 75.187 74.7097 75.3416 74.5627 75.5325L64.6574 88.4296C64.5206 88.6077 64.4235 88.8131 64.3727 89.0319C64.3219 89.2508 64.3186 89.4779 64.3631 89.6981C64.4075 89.9183 64.4986 90.1264 64.6303 90.3085C64.762 90.4905 64.9311 90.6422 65.1264 90.7533L66.6013 91.5942C66.8401 91.7321 67.1115 91.8035 67.3872 91.8012C67.6282 91.8014 67.8659 91.7462 68.0821 91.6399C68.2984 91.5336 68.4873 91.3791 68.6342 91.1882L78.5369 78.2885C78.6733 78.1104 78.77 77.9052 78.8205 77.6867C78.871 77.4681 78.8742 77.2413 78.8297 77.0214C78.7853 76.8015 78.6944 76.5937 78.563 76.4119C78.4316 76.2301 78.2628 76.0785 78.0679 75.9674L76.593 75.1265C76.3542 74.9886 76.0829 74.9171 75.8071 74.9195H75.8097Z" fill="white"/>
</g>
<path d="M77.1555 88.0572C77.0346 88.0567 76.9155 88.0283 76.8073 87.9743C76.6992 87.9202 76.605 87.8419 76.532 87.7455L71.751 81.4345C71.6465 81.2975 71.5898 81.13 71.5898 80.9577C71.5898 80.7854 71.6465 80.6179 71.751 80.4809L75.1829 76.0116C75.2564 75.9162 75.3508 75.8389 75.4589 75.7857C75.567 75.7326 75.6859 75.705 75.8064 75.7051C75.9424 75.7042 76.0762 75.7395 76.1941 75.8073L82.8876 79.6295C82.9849 79.6846 83.0694 79.7598 83.1354 79.8502C83.2014 79.9405 83.2473 80.0439 83.2701 80.1534C83.2923 80.2635 83.2907 80.377 83.2654 80.4863C83.2401 80.5957 83.1916 80.6984 83.1233 80.7874L77.779 87.7481C77.7056 87.8436 77.6111 87.9208 77.503 87.974C77.3949 88.0271 77.276 88.0547 77.1555 88.0546V88.0572Z" fill="#046DB3"/>
<path d="M75.8058 76.4911L82.4993 80.3107L77.155 87.2714L72.374 80.9604L75.8058 76.4911M75.8058 74.9192C75.5649 74.919 75.3272 74.9742 75.1109 75.0805C74.8947 75.1868 74.7058 75.3413 74.5589 75.5323L71.127 80.0016C70.9179 80.2755 70.8047 80.6106 70.8047 80.9552C70.8047 81.2998 70.9179 81.6348 71.127 81.9088L75.9106 88.2223C76.0568 88.4147 76.2454 88.5708 76.4616 88.6785C76.6779 88.7862 76.9161 88.8425 77.1577 88.8432V88.8432C77.3986 88.8435 77.6363 88.7883 77.8526 88.682C78.0688 88.5757 78.2577 88.4211 78.4047 88.2302L83.749 81.2695C83.8858 81.0914 83.9829 80.886 84.0337 80.6672C84.0844 80.4483 84.0877 80.2212 84.0433 80.001C83.9989 79.7808 83.9077 79.5726 83.7761 79.3906C83.6444 79.2086 83.4752 79.0569 83.28 78.9458L76.5866 75.1262C76.3477 74.9883 76.0764 74.9169 75.8006 74.9192H75.8058Z" fill="white"/>
<path d="M71.9408 95.0936C71.807 95.0929 71.6755 95.0587 71.5583 94.9941L62.3892 89.8987C62.2882 89.8425 62.2009 89.7648 62.1335 89.6711C62.066 89.5773 62.02 89.4699 61.9988 89.3564C61.9606 89.1712 61.9643 88.9798 62.0096 88.7962C62.055 88.6126 62.1408 88.4415 62.2608 88.2954C62.6066 87.8788 63.1882 87.685 64.0946 87.685C64.6162 87.6924 65.1364 87.7397 65.6508 87.8264L68.9123 83.4698C69.0342 83.3069 69.2145 83.1975 69.4153 83.1648C69.6161 83.132 69.8218 83.1785 69.9891 83.2943L76.6301 87.8893C76.7164 87.9491 76.7898 88.0256 76.8461 88.1142C76.9023 88.2029 76.9402 88.3019 76.9576 88.4054C76.9749 88.509 76.9713 88.6149 76.947 88.7171C76.9227 88.8192 76.8782 88.9154 76.8161 89.0001L72.5721 94.7635C72.5003 94.8644 72.4057 94.9469 72.296 95.0042C72.1863 95.0616 72.0646 95.0922 71.9408 95.0936V95.0936Z" fill="#FC50A8"/>
<path d="M69.5335 83.9388L76.1824 88.5365L71.9411 94.3L62.7719 89.2045C62.6619 88.6203 63.3352 88.4631 64.0818 88.4631C64.7184 88.4783 65.3524 88.5511 65.9759 88.6806L69.5283 83.931M69.5283 82.3591C69.2836 82.359 69.0423 82.416 68.8235 82.5257C68.6047 82.6353 68.4146 82.7944 68.2682 82.9905L65.2869 86.9751C64.8863 86.9233 64.4831 86.8953 64.0792 86.8913C63.66 86.8913 62.3842 86.8913 61.6402 87.7846C61.4459 88.0193 61.3066 88.2946 61.2327 88.5902C61.1588 88.8858 61.1521 89.1942 61.2132 89.4927C61.2562 89.7202 61.349 89.9354 61.4848 90.1229C61.6207 90.3104 61.7963 90.4656 61.9991 90.5773L71.1682 95.6727C71.5026 95.8586 71.8932 95.9162 72.267 95.8347C72.6407 95.7532 72.9719 95.5382 73.1985 95.23L77.4425 89.4665C77.5671 89.2971 77.6565 89.1045 77.7053 88.9C77.7541 88.6954 77.7614 88.4832 77.7267 88.2758C77.692 88.0684 77.616 87.8701 77.5033 87.6926C77.3906 87.5151 77.2435 87.362 77.0705 87.2423L70.419 82.6499C70.1573 82.4684 69.8467 82.3707 69.5283 82.3696V82.3591Z" fill="white"/>
<path d="M75.7698 89.9244C75.6418 89.9251 75.5156 89.8936 75.403 89.8327L70.7608 87.3649H67.5437C67.3978 87.3649 67.2547 87.3243 67.1306 87.2475C67.0064 87.1708 66.9061 87.061 66.8408 86.9305C66.7755 86.7999 66.7479 86.6538 66.761 86.5084C66.7741 86.363 66.8274 86.2242 66.915 86.1074L68.9008 83.4615C69.023 83.299 69.2035 83.1901 69.4043 83.1579C69.6051 83.1257 69.8105 83.1725 69.9775 83.2886L76.6343 87.8889C76.8054 88.0074 76.9225 88.1891 76.9598 88.3939C76.9971 88.5987 76.9516 88.81 76.8334 88.9813L76.4168 89.5838C76.3447 89.6888 76.2481 89.7746 76.1353 89.834C76.0226 89.8933 75.8972 89.9243 75.7698 89.9244Z" fill="#FF98CA"/>
<path d="M69.5395 83.9387L76.1884 88.5363L75.7719 89.1389L70.9489 86.5794H67.5432L69.529 83.9334M69.529 82.3616C69.2845 82.3612 69.0433 82.4178 68.8246 82.5269C68.6058 82.6361 68.4156 82.7947 68.2689 82.9903L66.2831 85.6363C66.1079 85.8698 66.0013 86.1475 65.9751 86.4382C65.9489 86.729 66.0041 87.0212 66.1347 87.2823C66.2652 87.5434 66.4659 87.763 66.7142 87.9165C66.9625 88.0699 67.2487 88.1512 67.5406 88.1512V88.1512H70.5507L75.0043 90.5273C75.344 90.7075 75.7379 90.7568 76.1116 90.6661C76.4853 90.5753 76.8127 90.3507 77.0319 90.0348L77.4511 89.4323C77.5686 89.2625 77.6516 89.0713 77.6952 88.8694C77.7388 88.6676 77.7422 88.4592 77.7052 88.256C77.6682 88.0529 77.5916 87.859 77.4797 87.6855C77.3677 87.512 77.2227 87.3623 77.0529 87.2448L70.4249 82.6497C70.1633 82.4682 69.8527 82.3705 69.5342 82.3694L69.529 82.3616Z" fill="white"/>
<path d="M71.8488 95.125C70.9057 95.125 67.6965 93.354 66.7351 92.8117C65.4881 92.1096 64.3406 91.4023 63.497 90.8233C62.5382 90.1605 61.6292 89.5344 62.0797 88.7275C62.1593 88.5911 62.2745 88.4788 62.4129 88.4027C62.5513 88.3265 62.7078 88.2894 62.8657 88.2953C63.8088 88.2953 67.018 90.0662 67.9794 90.6085C69.2238 91.3132 70.3739 92.018 71.2174 92.5995C72.1763 93.2597 73.0827 93.8858 72.6347 94.6953C72.5549 94.8316 72.4397 94.9437 72.3014 95.0198C72.163 95.0959 72.0066 95.1332 71.8488 95.1276V95.125Z" fill="#C4397A"/>
<path d="M62.853 89.0916C63.3114 89.0916 65.292 90.0138 67.5816 91.3053C70.1149 92.7357 72.0667 94.0796 71.9383 94.3075C71.9243 94.3285 71.8928 94.339 71.8439 94.339C71.3855 94.339 69.405 93.4194 67.1284 92.1279C64.5951 90.6975 62.6434 89.3536 62.7718 89.1257C62.7718 89.1021 62.8163 89.0916 62.8661 89.0916M62.8661 87.5198C62.5701 87.5148 62.2782 87.5895 62.021 87.736C61.7638 87.8826 61.5508 88.0957 61.4042 88.3528C61.1999 88.7118 60.8541 89.6627 62.0016 90.6687C62.3363 90.9545 62.6861 91.2221 63.0495 91.4704C63.9114 92.0624 65.0797 92.7802 66.3451 93.4954C69.1849 95.0987 71.0344 95.9108 71.8466 95.9108C72.1422 95.9158 72.4338 95.8414 72.691 95.6953C72.9481 95.5493 73.1613 95.3369 73.3084 95.0804C73.5101 94.7215 73.8585 93.7705 72.7085 92.7645C72.3744 92.4779 72.0246 92.2103 71.6606 91.9629C70.7987 91.3708 69.6303 90.653 68.3649 89.9352C65.5251 88.3319 63.6756 87.5198 62.8635 87.5198H62.8661Z" fill="white"/>
<path d="M84.1002 86.902C80.1835 86.8955 76.4165 85.3961 73.5668 82.7091C70.7171 80.0221 68.9989 76.3497 68.7625 72.4401C68.526 68.5305 69.789 64.6778 72.2941 61.6669C74.7992 58.6561 78.358 56.7136 82.2455 56.2351C82.8731 56.1588 83.5047 56.1203 84.1369 56.1199C88.0534 56.1269 91.82 57.6268 94.6692 60.3141C97.5184 63.0013 99.2361 66.6736 99.4722 70.583C99.7083 74.4924 98.4452 78.3448 95.94 81.3554C93.4349 84.366 89.8763 86.3083 85.9891 86.7867C85.3624 86.8629 84.7316 86.9014 84.1002 86.902V86.902Z" fill="#FC50A8"/>
<path d="M84.1415 56.9056C87.8572 56.9135 91.4301 58.3374 94.1328 60.8872C96.8355 63.437 98.4648 66.9211 98.6888 70.63C98.9128 74.3389 97.7148 77.9938 95.3387 80.8504C92.9626 83.707 89.5871 85.5506 85.8994 86.0058C85.3041 86.0799 84.7047 86.1166 84.1048 86.1158C80.3892 86.1079 76.8162 84.684 74.1135 82.1342C71.4108 79.5844 69.7816 76.1003 69.5575 72.3914C69.3335 68.6825 70.5315 65.0276 72.9076 62.171C75.2837 59.3144 78.6593 57.4708 82.347 57.0156C82.9424 56.9427 83.5416 56.9059 84.1415 56.9056ZM84.1415 55.3337C83.4778 55.3346 82.8147 55.3749 82.1557 55.4542C77.9849 55.9663 74.1773 58.0821 71.5395 61.3532C68.9017 64.6243 67.641 68.7939 68.0245 72.9785C68.4081 77.1631 70.4056 81.0341 73.594 83.7712C76.7824 86.5084 80.9112 87.8968 85.1056 87.6423C89.3001 87.3877 93.2307 85.5102 96.0647 82.4076C98.8987 79.3049 100.413 75.2208 100.288 71.0205C100.163 66.8203 98.4071 62.8338 95.3932 59.9056C92.3792 56.9775 88.3436 55.3377 84.1415 55.3337Z" fill="white"/>
<path d="M93.9511 65.9278C93.6436 65.9288 93.3402 65.8583 93.0647 65.7219C92.7891 65.5855 92.5491 65.3869 92.3635 65.1418C90.5585 62.716 87.386 61.2122 84.0563 61.2122C81.956 61.1878 79.9027 61.8349 78.1959 63.0591C77.9875 63.2142 77.7506 63.3267 77.4987 63.3901C77.2468 63.4535 76.9849 63.4666 76.7279 63.4286C76.4709 63.3907 76.224 63.3024 76.0012 63.1689C75.7784 63.0353 75.5841 62.8592 75.4294 62.6505C75.2746 62.4423 75.1623 62.2057 75.0989 61.9542C75.0355 61.7027 75.0223 61.4411 75.06 61.1844C75.0977 60.9278 75.1856 60.6811 75.3187 60.4584C75.4517 60.2357 75.6274 60.0414 75.8355 59.8866C78.2253 58.148 81.1088 57.2199 84.0641 57.2381C84.8183 57.2386 85.5714 57.2955 86.3171 57.4083C90.0686 57.9794 93.4271 59.9338 95.536 62.7683C95.7516 63.0585 95.8836 63.4021 95.9176 63.762C95.9517 64.1219 95.8864 64.4842 95.729 64.8096C95.5716 65.135 95.328 65.411 95.0247 65.6077C94.7214 65.8043 94.37 65.9142 94.0087 65.9252L93.9511 65.9278Z" fill="url(#paint13_linear_3690_12149)"/>
<path d="M84.0658 58.0244C84.7806 58.0252 85.4943 58.0795 86.2009 58.1868C89.7481 58.7265 92.9206 60.5682 94.9064 63.2377C95.0361 63.4125 95.1156 63.6194 95.136 63.8362C95.1565 64.0529 95.1172 64.2711 95.0225 64.4671C94.9277 64.663 94.7811 64.8293 94.5985 64.9479C94.416 65.0665 94.2044 65.1328 93.9868 65.1396H93.9528C93.7667 65.1399 93.5831 65.0967 93.4166 65.0135C93.2501 64.9303 93.1054 64.8093 92.994 64.6602C90.9427 61.899 87.4925 60.411 84.058 60.411C81.7882 60.3819 79.5691 61.0836 77.7287 62.4125C77.6034 62.5097 77.4599 62.581 77.3068 62.6221C77.1536 62.6632 76.9938 62.6734 76.8366 62.6519C76.6795 62.6305 76.5282 62.5779 76.3916 62.4973C76.2551 62.4167 76.136 62.3096 76.0413 62.1823C75.9467 62.0551 75.8784 61.9102 75.8404 61.7562C75.8024 61.6022 75.7956 61.4422 75.8202 61.2855C75.8449 61.1289 75.9006 60.9787 75.984 60.8438C76.0674 60.7089 76.177 60.5921 76.3061 60.5C78.5611 58.8657 81.281 57.9979 84.0658 58.0244M84.0658 56.4525C80.9435 56.4302 77.8959 57.4069 75.3683 59.2399C74.7802 59.6774 74.3899 60.3305 74.2833 61.0556C74.1767 61.7807 74.3625 62.5185 74.7998 63.1067C75.0578 63.4519 75.3926 63.7322 75.7778 63.9254C76.1629 64.1187 76.5878 64.2196 77.0187 64.2201C77.6116 64.2214 78.189 64.0302 78.6639 63.6752C80.2359 62.5511 82.1257 61.9582 84.058 61.9828C87.1362 61.9828 90.0834 63.3687 91.7339 65.5981C91.9918 65.9432 92.3267 66.2236 92.7119 66.4168C93.097 66.6101 93.5219 66.711 93.9528 66.7115H94.034C94.539 66.6963 95.0302 66.543 95.4542 66.2682C95.8783 65.9934 96.2188 65.6077 96.4389 65.1529C96.659 64.6981 96.7503 64.1917 96.7027 63.6886C96.6551 63.1856 96.4706 62.7053 96.1691 62.2998C93.9371 59.3002 90.3899 57.2332 86.4367 56.6333C85.6522 56.513 84.8596 56.4526 84.0658 56.4525V56.4525Z" fill="white"/>
<path d="M84.0965 86.9015C82.0387 86.8971 80.0027 86.4805 78.1086 85.6764C76.2145 84.8722 74.5007 83.6968 73.0683 82.2195C71.6359 80.7421 70.5139 78.9928 69.7686 77.0748C69.0234 75.1568 68.6699 73.1089 68.729 71.052C68.7344 70.861 68.8092 70.6785 68.9394 70.5387C69.0696 70.3989 69.2462 70.3113 69.4363 70.2922H69.5149C69.6923 70.2923 69.8644 70.3525 70.0033 70.4628C70.1422 70.5732 70.2397 70.7273 70.2799 70.9C71.066 74.3214 72.9919 77.374 75.7415 79.5566C78.4911 81.7393 81.901 82.9223 85.4116 82.9116C86.0517 82.9115 86.6913 82.8721 87.3266 82.7937C90.4704 82.4139 93.422 81.0789 95.7832 78.9689C95.9256 78.8422 96.1093 78.7717 96.2999 78.7704C96.4905 78.7691 96.6751 78.8371 96.8193 78.9617C96.9635 79.0864 97.0574 79.2592 97.0837 79.448C97.11 79.6368 97.0667 79.8287 96.9621 79.9879C95.7365 81.852 94.1197 83.4268 92.2242 84.6031C90.3286 85.7793 88.1997 86.5287 85.9853 86.7993C85.3583 86.8712 84.7276 86.9053 84.0965 86.9015V86.9015Z" fill="#C4397A"/>
<path d="M69.5169 71.0758C70.3578 74.6626 72.385 77.8604 75.2702 80.1512C78.1554 82.4421 81.7295 83.6917 85.4135 83.6977C86.0852 83.6968 86.7561 83.6557 87.4229 83.5746C90.726 83.1745 93.8272 81.772 96.3091 79.5559C95.1464 81.3245 93.6122 82.8185 91.8134 83.9338C90.0145 85.049 87.9941 85.7588 85.8929 86.0136C85.2976 86.0877 84.6983 86.1244 84.0984 86.1236C80.5346 86.118 77.0957 84.81 74.429 82.4458C71.7623 80.0816 70.0516 76.8243 69.619 73.2868C69.5305 72.5533 69.4963 71.8143 69.5169 71.0758M69.5169 69.5039C69.4645 69.5039 69.4121 69.5039 69.3597 69.5039C68.9795 69.542 68.6262 69.7172 68.3658 69.9969C68.1054 70.2765 67.9559 70.6414 67.945 71.0234C67.8378 74.5395 68.8796 77.9948 70.9127 80.8656C72.9457 83.7364 75.8591 85.8662 79.2114 86.9324C82.5637 87.9986 86.1722 87.9431 89.4901 86.7741C92.8079 85.6051 95.6543 83.3865 97.598 80.4545C97.7629 80.2188 97.86 79.9425 97.8787 79.6555C97.8974 79.3685 97.8369 79.0818 97.704 78.8268C97.5711 78.5718 97.3707 78.3581 97.1248 78.209C96.8788 78.0599 96.5967 77.9812 96.3091 77.9814C95.922 77.9823 95.5489 78.126 95.2611 78.3849C93.3482 80.0863 91.0261 81.2617 88.5224 81.7959C86.0186 82.3302 83.419 82.2049 80.9782 81.4324C78.5374 80.6599 76.3391 79.2667 74.5986 77.3892C72.8581 75.5117 71.6351 73.2143 71.0494 70.7221C70.9685 70.377 70.7733 70.0695 70.4956 69.8493C70.2179 69.6291 69.8739 69.5092 69.5195 69.5091L69.5169 69.5039Z" fill="white"/>
<g opacity="0.3">
<path d="M87.5087 76.7869C85.0644 76.7668 82.7054 75.8856 80.8467 74.2981C77.4619 71.4505 76.2097 66.8685 77.8025 63.1511C78.6592 61.2622 80.1603 60.3113 82.2561 60.3113C83.6943 60.3113 85.2059 60.7435 86.5368 61.126C87.4694 61.388 88.3496 61.65 88.9653 61.6735H89.2115C89.7236 61.6658 90.2333 61.6007 90.731 61.4797C91.1011 61.3901 91.4795 61.3383 91.8601 61.3251C93.0128 61.3251 93.8747 62.0115 94.9409 63.772L94.9645 63.8139C96.7302 67.1881 96.4106 71.1047 94.1524 73.7899C93.3309 74.7442 92.3104 75.507 91.1627 76.0247C90.0149 76.5425 88.7677 76.8026 87.5087 76.7869V76.7869Z" fill="black"/>
<path d="M82.2543 61.0972C84.5937 61.0972 87.2947 62.3835 88.9268 62.4569H89.2097C90.399 62.4569 91.1666 62.1084 91.8582 62.1084C92.5996 62.1084 93.2572 62.5093 94.2658 64.1754C95.8377 67.1751 95.6726 70.7536 93.548 73.2817C92.8015 74.1497 91.873 74.8426 90.8284 75.3112C89.7839 75.7798 88.6489 76.0126 87.5042 75.9931C85.2453 75.9726 83.0657 75.1574 81.3478 73.6904C78.1465 70.9973 77.0933 66.7821 78.5211 63.455C79.3411 61.6421 80.7217 61.0972 82.2543 61.0972ZM82.2543 59.5254C79.2153 59.5254 77.7692 61.312 77.0881 62.8132C77.0891 62.8227 77.0891 62.8324 77.0881 62.842C75.359 66.8738 76.7004 71.833 80.3497 74.8928C82.3505 76.5984 84.8883 77.5445 87.5173 77.565C88.8909 77.582 90.2514 77.2979 91.5033 76.7326C92.7552 76.1673 93.8681 75.3345 94.7636 74.2929C97.2288 71.3614 97.585 67.1043 95.6726 63.4471C95.6569 63.4183 95.6412 63.3895 95.6228 63.3607C94.7374 61.8936 93.6685 60.5366 91.8714 60.5366C91.4368 60.5479 91.0046 60.6059 90.5824 60.7095C90.1368 60.8167 89.681 60.8756 89.2228 60.885H89.0106C88.2475 60.7805 87.4959 60.6051 86.7655 60.3611C85.3822 59.9629 83.8156 59.5149 82.27 59.5149L82.2543 59.5254Z" fill="white"/>
</g>
<path d="M86.8858 77.2088C84.4422 77.1892 82.0839 76.3079 80.2264 74.7201C79.2752 73.9253 78.4702 72.9705 77.8477 71.8986C77.3467 71.0344 76.9751 70.1015 76.7448 69.1295C76.6216 68.5929 76.5427 68.047 76.509 67.4974C76.4253 66.1533 76.6549 64.8081 77.1797 63.5678C78.039 61.6737 79.5374 60.7253 81.6333 60.7253C83.0689 60.7253 84.5805 61.1576 85.9139 61.5401C86.3776 61.6737 86.8177 61.8021 87.2238 61.8964C87.5917 61.9947 87.9679 62.0588 88.3476 62.0876H88.5625H88.7249C89.1918 62.0672 89.6558 62.0032 90.1108 61.8964C90.4806 61.8046 90.859 61.752 91.2399 61.7392C92.3899 61.7392 93.2545 62.4256 94.3207 64.186L94.3469 64.2306C94.7735 65.0478 95.0864 65.9195 95.2769 66.8215C95.4024 67.4179 95.4709 68.025 95.4813 68.6344C95.4934 69.4479 95.392 70.2591 95.18 71.0445C94.8524 72.2746 94.2436 73.4117 93.4017 74.3664C92.5598 75.3211 91.5076 76.0672 90.3282 76.546C89.7545 76.783 89.1574 76.9586 88.5467 77.07C87.9983 77.165 87.4425 77.2115 86.8858 77.2088V77.2088Z" fill="white"/>
<path d="M81.6441 61.5188C83.4491 61.5188 85.4663 62.2838 87.046 62.6689C87.4622 62.778 87.8875 62.8491 88.3166 62.8811H88.5786H88.7698C89.8675 62.8523 90.6036 62.5327 91.2533 62.5327C91.9947 62.5327 92.6523 62.9361 93.6609 64.5996C94.0562 65.3525 94.3454 66.1566 94.5201 66.9889C94.6359 67.537 94.699 68.0949 94.7088 68.655C94.7245 69.3937 94.6363 70.131 94.4468 70.8451C94.1497 71.9582 93.5983 72.9872 92.8359 73.8509C92.0735 74.7146 91.1211 75.3896 90.0535 75.8227C89.5319 76.0357 88.9892 76.1929 88.4345 76.2916C87.9305 76.3831 87.4193 76.4287 86.9072 76.4278C84.649 76.4076 82.4701 75.5923 80.7534 74.1251C79.872 73.386 79.1256 72.4996 78.5475 71.5053C78.0858 70.7069 77.7425 69.8456 77.5284 68.9484C77.4166 68.4565 77.3456 67.9562 77.3163 67.4525C77.241 66.2314 77.4489 65.0093 77.924 63.8818C78.7466 62.0716 80.1246 61.524 81.6598 61.524M81.6598 59.9522C78.6209 59.9522 77.1722 61.7389 76.4936 63.2374L76.4779 63.2714C75.9111 64.6212 75.6611 66.0828 75.747 67.5442C75.7835 68.1375 75.8711 68.7265 76.009 69.3047C76.2563 70.355 76.6571 71.363 77.1983 72.2965C77.8684 73.4482 78.7336 74.4747 79.7552 75.3301C81.7543 77.0349 84.2904 77.9802 86.9176 77.9997C87.5237 77.9993 88.1285 77.9458 88.7253 77.8399C89.3872 77.7198 90.0351 77.532 90.6586 77.2792C91.9506 76.7549 93.1031 75.9377 94.0255 74.8921C94.9479 73.8465 95.615 72.6011 95.9741 71.2538C96.2042 70.4 96.3144 69.5183 96.3016 68.6341C96.2907 67.969 96.2153 67.3066 96.0763 66.6561C95.8729 65.6882 95.537 64.7528 95.0782 63.8766L95.0284 63.7849C94.1403 62.3178 93.0688 60.9608 91.2743 60.9608C90.8398 60.9734 90.4078 61.0314 89.9854 61.1337C89.5796 61.2308 89.1656 61.2896 88.7488 61.3092H88.4109C88.0827 61.2784 87.7576 61.2206 87.4389 61.1363C87.0565 61.0446 86.6242 60.9189 86.1684 60.7879C84.7851 60.3923 83.2159 59.9443 81.6703 59.9443L81.6598 59.9522Z" fill="white"/>
<path d="M86.4236 73.1534C83.7188 73.1231 81.0235 72.8291 78.3757 72.2758C78.2667 72.2536 78.1636 72.2085 78.0732 72.1434C77.9829 72.0784 77.9074 71.9949 77.8518 71.8985C77.3507 71.0344 76.9792 70.1014 76.7489 69.1294C76.6257 68.5928 76.5468 68.0469 76.5131 67.4973C76.5023 67.3139 76.5561 67.1324 76.6652 66.9845C76.7744 66.8366 76.9319 66.7316 77.1104 66.6878C79.2903 66.173 81.5059 65.8227 83.7383 65.6399C85.1582 65.5194 86.5493 65.4565 87.8723 65.4565H88.2207C88.7185 65.4565 89.2372 65.4723 89.7926 65.5011C90.8248 65.5535 91.781 65.6452 92.6429 65.7762C93.3521 65.8791 94.0527 66.035 94.7387 66.2425C94.8695 66.2854 94.9869 66.362 95.0788 66.4645C95.1708 66.567 95.2341 66.6919 95.2626 66.8267C95.3907 67.4298 95.46 68.044 95.4696 68.6605C95.4817 69.474 95.3803 70.2852 95.1683 71.0707C95.1381 71.1866 95.0818 71.294 95.0037 71.3848C94.9256 71.4756 94.8278 71.5474 94.7177 71.5946L94.5841 71.6523C93.531 72.0845 91.0291 73.1534 86.4236 73.1534Z" fill="#593400"/>
<path d="M87.8704 66.24H88.2136C88.7376 66.24 89.2536 66.2548 89.7619 66.2845C90.6887 66.3251 91.6129 66.4126 92.531 66.5465C93.2016 66.6414 93.8638 66.7886 94.5115 66.9866C94.6272 67.5347 94.6904 68.0926 94.7001 68.6528C94.7159 69.3915 94.6277 70.1287 94.4382 70.8429C93.4479 71.262 91.0796 72.3623 86.4348 72.3623C83.7809 72.3343 81.1363 72.0456 78.5389 71.5004C78.0771 70.702 77.7338 69.8407 77.5198 68.9436C77.4079 68.4516 77.3369 67.9513 77.3076 67.4477C79.4476 66.94 81.623 66.595 83.815 66.4155C85.214 66.295 86.5841 66.2347 87.8809 66.2347M87.8809 64.6629C86.5344 64.6629 85.1223 64.7258 83.6893 64.8515C81.4168 65.0359 79.1616 65.3933 76.9434 65.9204C76.5864 66.008 76.2714 66.2179 76.0531 66.5137C75.8349 66.8095 75.7272 67.1724 75.7488 67.5394C75.7857 68.1309 75.8733 68.7181 76.0108 69.2946C76.2582 70.3449 76.6589 71.3529 77.2002 72.2864C77.3115 72.4792 77.4624 72.6461 77.6431 72.7762C77.8237 72.9062 78.0299 72.9965 78.2481 73.0409C80.9467 73.6045 83.6938 73.9037 86.4505 73.9342C91.2184 73.9342 93.8225 72.8208 94.9359 72.3466L95.0669 72.2916C95.2875 72.1975 95.4837 72.0541 95.6403 71.8725C95.797 71.6908 95.91 71.4758 95.9707 71.2437C96.1999 70.3897 96.3101 69.5081 96.2982 68.624C96.2873 67.9589 96.2118 67.2965 96.0729 66.646C96.0145 66.3747 95.8853 66.1237 95.6985 65.9185C95.5117 65.7133 95.2739 65.5612 95.0092 65.4776C94.2856 65.2581 93.5465 65.0935 92.7982 64.9851C91.8266 64.8402 90.8481 64.7458 89.8667 64.7022C89.2877 64.6734 88.7585 64.6576 88.2451 64.655L87.8809 64.6629Z" fill="white"/>
<path d="M88.4183 77.0753C88.3011 77.0752 88.1855 77.0489 88.0798 76.9983C87.9742 76.9478 87.8811 76.8742 87.8075 76.7831C87.734 76.6919 87.6817 76.5854 87.6546 76.4715C87.6274 76.3575 87.6261 76.2389 87.6507 76.1244C88.0655 74.0291 88.1723 71.8845 87.9677 69.7584C87.9101 69.1113 87.8315 68.4773 87.7345 67.8748C87.6533 67.3718 87.5564 66.8845 87.449 66.4182C87.1904 65.2415 86.8147 64.0935 86.3277 62.9916C86.2669 62.8572 86.2451 62.7084 86.2649 62.5623C86.2846 62.4161 86.3451 62.2785 86.4394 62.1651C86.5337 62.0517 86.658 61.9671 86.798 61.921C86.9381 61.8749 87.0884 61.8691 87.2316 61.9044C87.5975 62.0037 87.9721 62.0677 88.3502 62.0956H88.5833H88.7641C88.9221 62.0959 89.0764 62.1438 89.2068 62.233C89.3372 62.3223 89.4376 62.4488 89.495 62.596C89.9392 63.7393 90.2896 64.9168 90.5429 66.1169C90.653 66.6409 90.7473 67.1648 90.8259 67.6888C90.9175 68.2782 90.9883 68.886 91.0407 69.499C91.2388 71.6505 91.1657 73.8183 90.8232 75.9515C90.8011 76.0834 90.7458 76.2075 90.6623 76.312C90.5789 76.4165 90.4702 76.498 90.3465 76.5488C89.7733 76.7846 89.1771 76.9602 88.5676 77.0727C88.518 77.0782 88.468 77.0791 88.4183 77.0753V77.0753Z" fill="#593400"/>
<path d="M87.045 62.6666C87.4616 62.7781 87.888 62.8492 88.3182 62.8788H88.5802H88.7636C89.1875 63.9855 89.5222 65.1243 89.7643 66.2845C89.8691 66.7796 89.9608 67.2878 90.0394 67.8039C90.1259 68.3803 90.1966 68.9671 90.2464 69.5618C90.4398 71.6476 90.3693 73.7495 90.0368 75.8177C89.5149 76.0305 88.9723 76.1885 88.4178 76.2893C88.8502 74.1185 88.9623 71.8961 88.7505 69.6928C88.6928 69.0291 88.6125 68.3803 88.5095 67.7463C88.4257 67.2328 88.3279 66.7307 88.2161 66.2399C87.9441 65.0129 87.5509 63.8159 87.0424 62.6666M87.0424 61.0947C86.7799 61.0951 86.5216 61.1612 86.2912 61.287C86.0608 61.4128 85.8656 61.5943 85.7234 61.8149C85.5811 62.0356 85.4964 62.2883 85.477 62.5501C85.4575 62.8119 85.504 63.0744 85.612 63.3137C86.0751 64.3677 86.434 65.4645 86.6835 66.5883C86.7883 67.0442 86.88 67.5157 86.9455 67.9978C87.0424 68.5898 87.1184 69.2029 87.1734 69.8316C87.3725 71.8796 87.271 73.9458 86.8721 75.9644C86.8229 76.1935 86.8256 76.4307 86.8798 76.6586C86.9341 76.8866 87.0386 77.0995 87.1858 77.2818C87.333 77.4641 87.519 77.6112 87.7304 77.7124C87.9417 77.8135 88.173 77.8661 88.4073 77.8664C88.5014 77.8668 88.5952 77.858 88.6876 77.8402C89.3509 77.7209 89.9998 77.5321 90.6236 77.2769C90.8704 77.1759 91.0874 77.0137 91.2542 76.8056C91.4211 76.5975 91.5322 76.3504 91.5772 76.0876C91.9302 73.8877 92.0058 71.6521 91.8025 69.4334C91.7501 68.8047 91.6741 68.1785 91.5825 67.5708C91.5012 67.0337 91.4017 66.4914 91.2917 65.9622C91.0311 64.7209 90.6719 63.5024 90.2176 62.3182C90.1026 62.0233 89.9013 61.77 89.64 61.5915C89.3787 61.4129 89.0696 61.3174 88.7531 61.3174H88.5697H88.3811C88.0518 61.2913 87.7256 61.2352 87.4065 61.1497C87.2841 61.1185 87.1583 61.1026 87.0319 61.1026L87.0424 61.0947Z" fill="white"/>
<path d="M85.9621 89.485L84.8382 89.7469C82.4805 90.2892 76.717 91.6672 69.4577 93.1212C62.1983 94.5751 56.4323 95.9584 54.0483 96.3618L52.9192 96.5635C52.8514 95.0334 53.1666 93.5105 53.8363 92.1331C54.5061 90.7556 55.5091 89.5671 56.7545 88.6755C57.8652 87.8895 59.1411 87.3656 60.244 86.5797C63.3877 84.324 64.6478 79.8024 63.1257 76.3626C63.6497 76.0509 64.1736 75.7601 64.7159 75.5007C64.6583 75.2833 64.5954 75.0475 64.5378 74.7515C64.509 74.6152 65.7533 74.7803 65.8477 74.6703C65.8988 74.622 65.9604 74.5863 66.0277 74.5659C66.095 74.5454 66.166 74.5408 66.2354 74.5524C67.0932 74.5655 67.9492 74.6363 68.7975 74.7646C68.711 78.5213 71.6163 82.2099 75.3783 83.0849C76.7013 83.394 78.0793 83.3836 79.4049 83.677C80.8946 84.0236 82.2743 84.7361 83.4193 85.7503C84.5642 86.7644 85.4382 88.048 85.9621 89.485V89.485Z" fill="url(#paint14_linear_3690_12149)"/>
<path d="M66.536 75.9124C67.3769 80.6987 68.3016 83.7717 69.6639 91.5314C70.1407 94.2507 68.7444 94.6751 67.28 96.0583C66.7342 96.5635 66.0773 96.9332 65.3623 97.1377C64.3687 97.4413 63.3022 97.4053 62.3312 97.0355C61.8486 96.8471 61.4108 96.5598 61.0458 96.1921C60.6808 95.8244 60.3967 95.3844 60.2119 94.9004C59.6565 93.3495 59.2949 91.7095 60.1097 90.2818C61.6475 87.586 64.8593 85.0423 65.3178 81.9745C65.4513 80.8003 65.4513 79.6147 65.3178 78.4405C65.2549 77.6546 64.765 75.6374 65.5614 75.6505L66.536 75.9124Z" fill="url(#paint15_linear_3690_12149)"/>
<path d="M65.8281 76.0011C66.8289 80.7559 67.1092 83.9468 68.7308 91.6619C69.2993 94.3655 70.7533 94.2319 72.629 94.9759C73.4614 95.2906 74.3644 95.3703 75.239 95.2063C76.1137 95.0423 76.9264 94.6408 77.5882 94.0459C77.9651 93.6906 78.2639 93.2606 78.4656 92.7834C78.6672 92.3062 78.7672 91.7922 78.7592 91.2742C78.699 89.629 78.4239 87.9707 77.135 86.949C74.7065 85.0209 70.7795 83.8577 69.2129 81.1856C68.6539 80.1434 68.2144 79.0413 67.903 77.9004C67.6646 77.1407 67.379 75.092 66.6377 75.4011L65.8281 76.0011Z" fill="url(#paint16_linear_3690_12149)"/>
<path d="M52.2125 69.6507C50.452 70.0017 48.2409 70.0777 45.443 69.7528C35.1893 68.5687 29.4154 61.9303 27.5894 56.6017C26.1643 52.4546 26.8402 48.4805 29.3944 45.9865C33.924 41.5329 41.9352 43.537 46.3049 45.1272C51.0912 46.8693 60.0874 57.2855 58.4082 64.3142C57.8999 66.486 56.3464 68.8255 52.2125 69.6507ZM35.1579 47.8491C34.1601 48.0093 33.2311 48.4583 32.4857 49.1406C31.1758 50.4243 30.9139 52.6773 31.7679 55.1661C33.29 59.5987 38.2623 64.4662 45.9434 65.3569C48.7308 65.6791 53.4961 65.8389 54.0934 63.303C54.5178 61.519 53.3835 58.446 51.1436 55.284C48.8592 52.0564 46.1661 49.7825 44.7855 49.2847C40.8637 47.8543 37.5445 47.3723 35.1579 47.8491V47.8491Z" fill="url(#paint17_linear_3690_12149)"/>
<path d="M75.3696 65.0243C71.2356 65.8521 68.9067 64.2881 67.602 62.4884C63.3633 56.628 67.6492 43.5607 71.4007 40.1235C74.8273 36.9798 81.4527 32.0469 87.3471 34.4177C90.6637 35.7512 92.8146 39.1542 93.0896 43.524C93.4512 49.1407 90.6716 57.4899 81.6596 62.525C79.2023 63.8926 77.1248 64.6759 75.3696 65.0243ZM74.3951 43.3747C73.3184 44.3623 71.702 47.4955 70.8296 51.3544C69.9782 55.1347 70.1144 58.4068 71.1885 59.8922C72.708 62.0037 77.0515 60.0232 79.5036 58.6557C86.2521 54.8832 88.9714 48.4779 88.6727 43.8017C88.5155 41.1819 87.3864 39.1962 85.6941 38.5124C83.035 37.4462 78.9168 39.2145 74.3951 43.3747V43.3747Z" fill="url(#paint18_linear_3690_12149)"/>
<path d="M45.6679 65.5427L35.367 37.6633C35.2753 37.4184 35.2387 37.1563 35.2596 36.8957C35.28 36.6343 35.3568 36.3804 35.4849 36.1517C35.6132 35.923 35.7903 35.7254 36.0035 35.5728C36.2168 35.4202 36.461 35.3164 36.7188 35.2688L77.4953 27.124C77.7491 27.069 78.0117 27.069 78.2655 27.124C78.5192 27.1847 78.7567 27.2998 78.9616 27.4613C79.1665 27.6228 79.3339 27.8268 79.4522 28.0593C79.5699 28.2913 79.636 28.546 79.6461 28.8059L80.8486 58.5008C81.0259 62.8237 79.6547 67.0681 76.9817 70.4701C74.3086 73.8722 70.5092 76.2087 66.267 77.0591C62.0244 77.9049 57.6192 77.2085 53.8444 75.0953C50.0695 72.9822 47.1729 69.591 45.6758 65.5322L45.6679 65.5427Z" fill="url(#paint19_linear_3690_12149)"/>
<path d="M77.3058 57.44L73.3971 28.2874C73.2531 27.1976 72.7212 26.2964 72.2837 26.3855L67.4844 27.3443C67.4844 27.3443 76.622 69.4097 71.8148 74.6754C71.6786 74.8247 71.4323 75.1417 71.5528 75.0945C72.1423 74.885 74.1726 73.3026 74.1726 73.3026C74.1726 73.3026 78.4795 66.2083 77.3058 57.44Z" fill="url(#paint20_linear_3690_12149)"/>
<path d="M51.1429 64.5739L42.1074 36.4456C41.772 35.4134 42.1729 34.3079 42.9588 34.1507L51.5097 32.4426C51.5097 32.4426 57.15 73.5125 67.9984 75.6685C68.4542 75.7576 69.6855 76.0222 69.8584 75.9672L66.8352 76.9837C60.5111 78.2228 53.8622 73.0174 51.1429 64.5739Z" fill="#FFDB59"/>
<path d="M81.2742 23.0609L81.6488 24.9288C81.7513 25.4477 81.7513 25.9817 81.6488 26.5007C81.4942 27.2767 81.113 27.9895 80.5535 28.5491C79.9939 29.1086 79.2811 29.4898 78.5051 29.6444L36.7069 37.9961C36.1908 38.1 35.6593 38.101 35.1429 37.9991C34.6264 37.8972 34.135 37.6945 33.697 37.4025C33.259 37.1104 32.8829 36.7349 32.5902 36.2973C32.2975 35.8598 32.094 35.3688 31.9914 34.8524L31.6482 32.9793C31.6225 32.8507 31.6225 32.7184 31.6481 32.5898C31.6737 32.4612 31.7245 32.339 31.7975 32.2301C31.9456 32.0099 32.1742 31.8566 32.4341 31.803L80.1136 22.2776C80.3729 22.2265 80.642 22.2791 80.8628 22.4243C80.9728 22.4976 81.0672 22.592 81.1405 22.702C81.2128 22.8107 81.2627 22.9327 81.2872 23.0609H81.2742Z" fill="#FF7300"/>
<path d="M81.2786 23.061L81.572 24.5307L31.9146 34.4464L31.6212 32.9794C31.5952 32.8505 31.595 32.7178 31.6205 32.5889C31.646 32.4599 31.6967 32.3373 31.7697 32.228C31.8428 32.1187 31.9367 32.0249 32.046 31.952C32.1554 31.8791 32.2781 31.8285 32.4071 31.8031L80.0866 22.2777C80.2163 22.2515 80.3499 22.2515 80.4796 22.2777C80.6097 22.301 80.7337 22.351 80.8437 22.4244C80.9537 22.4977 81.0481 22.5921 81.1214 22.7021C81.1976 22.8098 81.2511 22.9319 81.2786 23.061V23.061Z" fill="url(#paint21_linear_3690_12149)"/>
<path d="M68.2538 60.5106C67.8754 60.5869 67.4827 60.5439 67.1299 60.3874L62.4563 58.3257L62.3934 58.3388L58.8698 62.0379C58.7033 62.2154 58.5032 62.3581 58.281 62.4575C58.0588 62.5569 57.819 62.6111 57.5757 62.6168C57.3331 62.6246 57.0915 62.5827 56.8657 62.4937C56.4753 62.3482 56.1461 62.074 55.9323 61.7164C55.7185 61.3588 55.6329 60.9391 55.6895 60.5263L56.3051 55.6431C56.3091 55.6321 56.3091 55.62 56.3051 55.609C56.2984 55.5984 56.2895 55.5895 56.2789 55.5828L51.7598 53.6049C51.4903 53.4855 51.2531 53.3036 51.0679 53.0742C50.8828 52.8449 50.7549 52.5747 50.695 52.2861C50.635 51.9975 50.6448 51.6987 50.7234 51.4146C50.8019 51.1305 50.9471 50.8692 51.1468 50.6524C51.4139 50.3619 51.7676 50.1653 52.1554 50.0918L57.1329 49.0963C57.145 49.0934 57.1559 49.087 57.1644 49.078C57.168 49.0678 57.168 49.0567 57.1644 49.0465L57.7984 44.069C57.8484 43.6846 58.0176 43.3255 58.2823 43.0422C58.5469 42.7589 58.8937 42.5657 59.2739 42.4896C59.654 42.4136 60.0484 42.4586 60.4017 42.6183C60.7549 42.778 61.0493 43.0444 61.2433 43.38L63.7347 47.7209C63.7414 47.7308 63.7504 47.7389 63.7609 47.7445C63.7728 47.7485 63.7857 47.7485 63.7976 47.7445L68.7751 46.749C69.1618 46.6711 69.5633 46.7169 69.9226 46.88C70.1907 47.0031 70.4257 47.1884 70.6078 47.4205C70.79 47.6526 70.9142 47.9249 70.97 48.2146C71.0259 48.5043 71.0118 48.8032 70.9289 49.0864C70.8461 49.3696 70.6969 49.629 70.4937 49.8429L67.0723 53.4372C67.0645 53.4462 67.0591 53.457 67.0566 53.4687C67.0539 53.4807 67.0539 53.4933 67.0566 53.5053L69.5034 57.7755C69.6519 58.0278 69.7374 58.3122 69.7524 58.6046C69.7675 58.8969 69.7117 59.1886 69.5898 59.4548C69.4633 59.7253 69.2739 59.9616 69.0373 60.1439C68.8008 60.3262 68.524 60.4493 68.2302 60.5027L68.2538 60.5106Z" fill="white"/>
<path d="M59.449 43.3537C59.6454 43.3123 59.8498 43.3351 60.0323 43.4185C60.2148 43.502 60.3657 43.6418 60.4629 43.8174L62.9543 48.1531C63.054 48.3269 63.2057 48.4651 63.388 48.5483C63.5703 48.6314 63.7741 48.6554 63.9707 48.6168L68.9483 47.6213C69.1476 47.5816 69.3543 47.6062 69.5388 47.6914C69.7234 47.7766 69.8761 47.918 69.9752 48.0954C70.073 48.2742 70.1114 48.4793 70.0851 48.6813C70.0587 48.8833 69.9688 49.0717 69.8285 49.2193L66.4071 52.8084C66.2654 52.9563 66.1737 53.1451 66.1451 53.348C66.1187 53.5507 66.1581 53.7564 66.2578 53.9349L68.7046 58.2077C68.7801 58.3398 68.8233 58.4879 68.8304 58.6399C68.8393 58.8028 68.8061 58.9652 68.7341 59.1116C68.6621 59.2579 68.5537 59.3833 68.4193 59.4756C68.2848 59.568 68.1289 59.6242 67.9664 59.6389C67.804 59.6536 67.6405 59.6262 67.4917 59.5595L62.8259 57.5004C62.6461 57.4212 62.4463 57.3994 62.2536 57.4378C62.061 57.4763 61.8848 57.5731 61.7492 57.7152L58.2282 61.43C58.0947 61.5732 57.9198 61.6712 57.7279 61.7103C57.5792 61.7397 57.4256 61.7334 57.2799 61.692C57.1337 61.6498 56.9993 61.5745 56.8869 61.4719C56.7759 61.3676 56.6914 61.2383 56.6407 61.0947C56.5877 60.9526 56.5706 60.7996 56.5909 60.6493L57.2065 55.7661C57.2303 55.5626 57.188 55.3569 57.086 55.1793C56.9844 55.0023 56.8295 54.862 56.6433 54.7784L52.1059 52.7769C51.9194 52.6957 51.7637 52.5569 51.6618 52.3808C51.5598 52.2048 51.5167 52.0007 51.539 51.7985C51.5612 51.5963 51.6476 51.4065 51.7854 51.2568C51.9232 51.1072 52.1053 51.0055 52.305 50.9667L57.2825 49.9712C57.4833 49.9347 57.6669 49.8346 57.8064 49.6856C57.945 49.5417 58.0364 49.3589 58.0684 49.1617L58.7024 44.2025C58.7261 44.0065 58.8114 43.823 58.946 43.6785C59.0855 43.5301 59.2694 43.4309 59.47 43.3956M59.1189 41.6325C58.5529 41.7466 58.037 42.0355 57.644 42.4586C57.251 42.8816 57.0009 43.4174 56.9288 43.9903L56.3446 48.3312L51.9592 49.2062C51.387 49.3228 50.8668 49.6185 50.4738 50.0505C50.0809 50.4824 49.8356 51.0282 49.7734 51.6088C49.7113 52.1894 49.8355 52.7747 50.1282 53.28C50.4208 53.7854 50.8666 54.1844 51.4012 54.4195L55.3648 56.1695L54.799 60.424C54.7378 60.8553 54.7819 61.2949 54.9274 61.7055C55.0729 62.116 55.3156 62.4853 55.6347 62.7818C55.9557 63.0814 56.3432 63.3006 56.7654 63.4213C57.1875 63.542 57.6323 63.5607 58.0632 63.476C58.6178 63.3662 59.1243 63.086 59.5119 62.6744L62.6556 59.3971L66.7922 61.2309C67.3093 61.4609 67.885 61.5249 68.44 61.4143C68.8701 61.3263 69.2732 61.1378 69.6163 60.8641C70.1346 60.4572 70.4877 59.8761 70.6101 59.2286C70.7325 58.5811 70.6158 57.9112 70.2817 57.3432L68.1518 53.6284L71.1279 50.4847C71.5316 50.0612 71.7899 49.5201 71.8651 48.9399C71.9403 48.3597 71.8286 47.7706 71.5461 47.2582C71.2636 46.7459 70.8252 46.3369 70.2944 46.0908C69.7636 45.8447 69.1682 45.7742 68.5946 45.8896L64.2196 46.7646L62.0295 42.9502C61.7426 42.4499 61.3058 42.0522 60.7807 41.8134C60.2557 41.5746 59.6689 41.5068 59.1032 41.6194L59.1189 41.6325Z" fill="#FF810A"/>
<path d="M89.8675 93.8103C89.903 93.9892 89.8661 94.1749 89.765 94.3266C89.6638 94.4783 89.5066 94.5838 89.3278 94.6198L51.6925 102.139C51.6039 102.156 51.5126 102.157 51.4239 102.139C51.3352 102.122 51.2508 102.087 51.1756 102.037C51.1004 101.987 51.0358 101.922 50.9856 101.847C50.9354 101.772 50.9005 101.688 50.883 101.599C50.7394 100.885 50.6796 100.157 50.7048 99.4297C50.7048 99.3668 50.7048 99.3066 50.7048 99.2437C50.7392 98.6479 50.8529 98.0594 51.0428 97.4937C51.4436 96.3332 52.1588 95.5839 53.0207 95.3979L85.503 88.9376C86.3675 88.7647 87.3106 89.1838 88.1228 90.0981C88.5145 90.5476 88.8448 91.0471 89.1052 91.5835C89.4551 92.2895 89.7114 93.0381 89.8675 93.8103V93.8103Z" fill="url(#paint22_linear_3690_12149)"/>
<path d="M89.8675 93.8102C89.903 93.9891 89.8661 94.1747 89.765 94.3265C89.6638 94.4782 89.5066 94.5837 89.3278 94.6197L51.6925 102.138C51.6039 102.156 51.5126 102.157 51.4239 102.139C51.3352 102.122 51.2508 102.087 51.1756 102.037C51.1004 101.987 51.0358 101.922 50.9856 101.847C50.9354 101.772 50.9005 101.687 50.883 101.599C50.7394 100.885 50.6796 100.157 50.7048 99.4296C50.7048 99.3667 50.7048 99.3064 50.7048 99.2436L89.1026 91.5703C89.4545 92.2802 89.7117 93.0333 89.8675 93.8102V93.8102Z" fill="#FF7300"/>
<path d="M72.2078 64.1282L59.5832 69.8576C60.1071 69.8366 59.1142 75.0971 59.5675 74.6465C66.0671 68.1416 78.6314 76.0952 86.1186 80.8815C90.6063 83.7527 72.2078 64.1282 72.2078 64.1282Z" fill="#046DB3"/>
<path d="M59.588 69.8576C59.588 69.8576 57.2302 73.0904 59.1426 75.7992C63.0277 69.7737 72.2126 64.1282 72.2126 64.1282L59.588 69.8576Z" fill="#059CFF"/>
<path d="M92.1135 76.0032L86.1719 80.9178L97.3634 91.2135L106.271 86.325C106.161 85.7513 104.086 87.014 104.086 87.014L92.1135 76.0032Z" fill="#059CFF"/>
<path opacity="0.5" d="M92.108 76.0032L90.8008 77.0851L102.768 88.0959L104.075 87.014L92.108 76.0032Z" fill="url(#paint23_linear_3690_12149)"/>
<path d="M92.1108 76.0032L86.1719 80.9178L92.6296 86.8568L96.2605 79.8201L92.1108 76.0032Z" fill="#046DB3"/>
<path d="M99.572 82.2671L93.8086 87.9389L98.98 92.8928L107.14 86.3015C107.156 85.0126 103.884 86.3382 103.884 86.3382L99.572 82.2671Z" fill="#FC50A8"/>
<path d="M99.5733 82.2671L93.8125 87.9362L94.326 88.4576L98.6302 85.1095L101.984 84.5332L99.5733 82.2671Z" fill="#FF98CA"/>
<path d="M103.351 89.9063C105.603 88.0617 107.295 86.403 107.13 86.2015C106.965 86.0001 105.006 87.3321 102.753 89.1767C100.501 91.0213 98.8096 92.6799 98.9746 92.8814C99.1396 93.0829 101.099 91.7509 103.351 89.9063Z" fill="#C4397A"/>
<path d="M75.812 76.4907L82.5055 80.3103L73.2446 92.3743L63.6406 89.0839C63.6406 88.4997 65.9093 89.3878 65.9093 89.3878L75.812 76.4907Z" fill="#059CFF"/>
<path opacity="0.5" d="M75.8089 76.4907L77.2838 77.3317L67.3812 90.2287L65.9062 89.3878L75.8089 76.4907Z" fill="url(#paint24_linear_3690_12149)"/>
<path d="M75.8108 76.4907L82.5042 80.3103L77.16 87.271L72.3789 80.96L75.8108 76.4907Z" fill="#046DB3"/>
<path d="M69.5348 83.9387L76.1838 88.5364L71.9424 94.2998L62.7733 89.2044C62.5375 87.9365 65.9877 88.6805 65.9877 88.6805L69.5348 83.9387Z" fill="#FC50A8"/>
<path d="M69.5327 83.9387L76.179 88.5364L75.7624 89.1389L70.9499 86.5794L67.5469 86.5847L69.5327 83.9387Z" fill="#FF98CA"/>
<path d="M71.9702 94.334C72.0982 94.1072 70.147 92.7631 67.6121 91.3318C65.0772 89.9005 62.9185 88.9241 62.7904 89.1509C62.6624 89.3777 64.6135 90.7218 67.1484 92.1531C69.6834 93.5843 71.8421 94.5607 71.9702 94.334Z" fill="#C4397A"/>
<path d="M94.4509 81.8364C100.155 76.1328 100.155 66.8853 94.4509 61.1817C88.7472 55.478 79.4998 55.478 73.7961 61.1817C68.0925 66.8853 68.0925 76.1328 73.7961 81.8364C79.4998 87.5401 88.7472 87.5401 94.4509 81.8364Z" fill="#FC50A8"/>
<path d="M93.9975 65.142C93.8057 65.1479 93.6152 65.1074 93.4423 65.024C93.2695 64.9405 93.1193 64.8165 93.0046 64.6625C89.599 60.078 82.3213 59.0091 77.7393 62.4148C77.6141 62.5121 77.4706 62.5833 77.3175 62.6245C77.1643 62.6656 77.0045 62.6757 76.8473 62.6543C76.6902 62.6329 76.5389 62.5803 76.4023 62.4996C76.2657 62.419 76.1466 62.3119 76.052 62.1846C75.9573 62.0574 75.889 61.9125 75.8511 61.7585C75.8131 61.6045 75.8062 61.4445 75.8309 61.2879C75.8556 61.1312 75.9113 60.981 75.9947 60.8462C76.0781 60.7113 76.1877 60.5944 76.3168 60.5024C79.0257 58.4878 82.6331 57.6469 86.2116 58.1891C89.7902 58.7314 92.9313 60.5705 94.9171 63.24C95.0468 63.4148 95.1263 63.6218 95.1467 63.8385C95.1672 64.0552 95.1279 64.2734 95.0332 64.4694C94.9384 64.6654 94.7918 64.8317 94.6092 64.9502C94.4267 65.0688 94.2151 65.1351 93.9975 65.142V65.142Z" fill="url(#paint25_linear_3690_12149)"/>
<path d="M87.4235 83.5669C83.4243 84.0565 79.3851 83.0524 76.0807 80.7473C72.7762 78.4421 70.4391 74.9982 69.5175 71.0759C69.497 71.8145 69.5311 72.5535 69.6196 73.287C69.9835 76.2536 71.2487 79.0371 73.2445 81.2619C75.2404 83.4867 77.8707 85.0456 80.7805 85.7282C83.6903 86.4108 86.7395 86.1843 89.5165 85.0791C92.2935 83.974 94.6645 82.0435 96.3097 79.5482C93.8278 81.7643 90.7266 83.1668 87.4235 83.5669V83.5669Z" fill="#C4397A"/>
<path opacity="0.3" d="M88.9246 62.4567C91.6282 62.5824 92.2438 60.8455 94.2637 64.1831C95.8355 67.1827 95.6705 70.7613 93.5459 73.2893C90.6432 76.7395 85.181 76.9229 81.3457 73.698C78.1443 71.0049 77.0912 66.7897 78.519 63.4626C80.5912 58.8886 86.221 62.3335 88.9246 62.4567Z" fill="black"/>
<path d="M94.7045 68.6583C94.7202 69.397 94.632 70.1342 94.4425 70.8484C94.1454 71.9615 93.5939 72.9904 92.8316 73.8541C92.0692 74.7179 91.1167 75.3928 90.0492 75.8259C89.5276 76.039 88.9849 76.1962 88.4301 76.2948C87.0693 76.5172 85.6762 76.4384 84.3491 76.0641C83.022 75.6898 81.7931 75.029 80.749 74.1283C79.8677 73.3893 79.1213 72.5029 78.5432 71.5085C78.0814 70.7101 77.7381 69.8488 77.5241 68.9517C77.4122 68.4597 77.3413 67.9594 77.3119 67.4558C77.2366 66.2346 77.4446 65.0126 77.9197 63.8851C79.709 59.9554 84.1364 61.9595 87.0574 62.6721C87.4736 62.7813 87.8989 62.8523 88.328 62.8843C88.4851 62.8843 88.6319 62.8843 88.776 62.8843C91.1075 62.8214 91.7625 61.4566 93.667 64.6029C94.0624 65.3558 94.3516 66.1598 94.5263 66.9921C94.6385 67.5406 94.6982 68.0985 94.7045 68.6583V68.6583Z" fill="white"/>
<path d="M94.7011 68.6577C94.7169 69.3964 94.6287 70.1337 94.4392 70.8478C92.9983 71.4582 88.6259 73.52 78.5399 71.5054C78.0781 70.707 77.7348 69.8457 77.5208 68.9485C77.4089 68.4566 77.3379 67.9563 77.3086 67.4526C79.4486 66.945 81.624 66.5999 83.816 66.4205C85.3381 66.2895 86.8288 66.2292 88.2251 66.2397C88.749 66.2397 89.2651 66.2545 89.7734 66.2842C90.7002 66.3249 91.6244 66.4123 92.5424 66.5462C93.2131 66.6411 93.8753 66.7883 94.523 66.9863C94.6355 67.5365 94.6952 68.0962 94.7011 68.6577V68.6577Z" fill="#593400"/>
<path d="M90.243 69.551C90.4364 71.6368 90.366 73.7387 90.0335 75.8069C89.5115 76.0197 88.969 76.1777 88.4144 76.2785C88.8469 74.1077 88.959 71.8852 88.7471 69.6819C88.6895 69.0183 88.6092 68.3694 88.5061 67.7355C88.4223 67.222 88.3245 66.7199 88.2127 66.2291C87.9407 65.0021 87.5476 63.8051 87.0391 62.6558C87.4556 62.7673 87.8821 62.8383 88.3123 62.868C88.4669 62.868 88.6162 62.868 88.7603 62.868C89.1842 63.9747 89.5188 65.1135 89.761 66.2736C89.8658 66.7688 89.9575 67.277 90.0361 67.7931C90.1225 68.3799 90.1933 68.9667 90.243 69.551Z" fill="#593400"/>
<path d="M98.9775 27.3735C98.6317 27.3159 96.3918 26.9124 95.8495 26.3701C95.3072 25.8278 94.909 23.5801 94.8514 23.2474C94.8519 23.2387 94.8519 23.2299 94.8514 23.2212C94.8526 23.2264 94.8526 23.2317 94.8514 23.2369C94.7938 23.5722 94.3929 25.8226 93.848 26.3675C93.3031 26.9124 91.058 27.308 90.7227 27.3656C91.058 27.4233 93.3083 27.8267 93.8532 28.3716C94.3982 28.9165 94.7911 31.1459 94.8514 31.4918C94.8514 31.4918 94.8514 31.5127 94.8514 31.518C94.8526 31.5128 94.8526 31.5074 94.8514 31.5022C94.9116 31.1538 95.3151 28.9165 95.8574 28.3742C96.3997 27.832 98.6317 27.4364 98.9775 27.3761H99.0063L98.9775 27.3735Z" fill="#FFE48A"/>
<path d="M35.5815 22.259C35.3196 22.2118 33.5512 21.8974 33.1242 21.473C32.6972 21.0486 32.3854 19.2803 32.3383 19.0183C32.3383 19.0183 32.3383 19.0183 32.3383 19C32.2938 19.262 31.9768 21.0329 31.5524 21.4599C31.128 21.887 29.3596 22.1987 29.0977 22.2459C29.3596 22.293 31.1306 22.6074 31.5576 23.0318C31.9846 23.4562 32.2938 25.2114 32.3435 25.4813C32.3435 25.4813 32.3435 25.497 32.3435 25.5022C32.3907 25.2403 32.7077 23.4719 33.1295 23.0449C33.5512 22.6179 35.3065 22.3087 35.5789 22.259H35.5815Z" fill="#FFE48A"/>
<path d="M108.6 48.6797C108.183 48.6089 105.49 48.1243 104.838 47.4693C104.185 46.8144 103.706 44.1134 103.635 43.7126C103.635 43.6995 103.635 43.689 103.635 43.6812C103.635 43.6733 103.635 43.6943 103.635 43.6995C103.567 44.1056 103.082 46.8118 102.428 47.4693C101.773 48.1269 99.069 48.5985 98.6682 48.6692H98.6367H98.6577C99.0611 48.7373 101.77 49.222 102.425 49.8769C103.08 50.5318 103.554 53.2171 103.625 53.6336C103.623 53.644 103.623 53.6546 103.625 53.6651C103.625 53.6651 103.625 53.652 103.625 53.6441C103.695 53.2276 104.18 50.5345 104.835 49.8795C105.49 49.2246 108.173 48.753 108.589 48.6797H108.623H108.6Z" fill="#FFF8B8"/>
<path d="M27.7811 28.8953C27.7787 28.9043 27.7735 28.9123 27.7661 28.918C27.7588 28.9237 27.7497 28.9268 27.7404 28.9268C27.7311 28.9268 27.7221 28.9237 27.7148 28.918C27.7074 28.9123 27.7022 28.9043 27.6999 28.8953C27.6082 28.6018 27.3619 27.9129 26.9716 27.5592C26.6 27.2353 26.1471 27.0188 25.6617 26.9331C25.652 26.9331 25.6426 26.9292 25.6357 26.9223C25.6289 26.9154 25.625 26.9061 25.625 26.8964C25.625 26.8867 25.6289 26.8773 25.6357 26.8705C25.6426 26.8636 25.652 26.8597 25.6617 26.8597C26.1467 26.7727 26.5992 26.5564 26.9716 26.2336C27.3619 25.8799 27.6082 25.1857 27.6999 24.8949C27.7034 24.8871 27.7091 24.8804 27.7163 24.8758C27.7235 24.8711 27.7319 24.8687 27.7404 24.8687C27.749 24.8687 27.7574 24.8711 27.7646 24.8758C27.7718 24.8804 27.7775 24.8871 27.7811 24.8949C27.8727 25.1909 28.119 25.8799 28.5093 26.2336C28.8813 26.5569 29.334 26.7733 29.8192 26.8597C29.829 26.8597 29.8383 26.8636 29.8452 26.8705C29.852 26.8773 29.8559 26.8867 29.8559 26.8964C29.8559 26.9061 29.852 26.9154 29.8452 26.9223C29.8383 26.9292 29.829 26.9331 29.8192 26.9331C29.3336 27.0183 28.8806 27.2348 28.5093 27.5592C28.119 27.9129 27.8727 28.6018 27.7811 28.8953Z" fill="#FFD54A"/>
<path d="M32.3957 85.8564C32.3901 85.8707 32.3804 85.8829 32.3678 85.8915C32.3551 85.9001 32.3402 85.9047 32.3249 85.9047C32.3097 85.9047 32.2948 85.9001 32.2822 85.8915C32.2695 85.8829 32.2598 85.8707 32.2542 85.8564C32.0971 85.3508 31.6753 84.1667 31.0046 83.5589C30.3688 83.0056 29.5946 82.6352 28.7647 82.4875C28.7473 82.4875 28.7307 82.4805 28.7184 82.4683C28.7061 82.456 28.6992 82.4393 28.6992 82.422C28.6992 82.4046 28.7061 82.3879 28.7184 82.3756C28.7307 82.3634 28.7473 82.3565 28.7647 82.3565C29.5946 82.2087 30.3688 81.8383 31.0046 81.285C31.6753 80.6772 32.0971 79.4931 32.2542 78.9875C32.2598 78.9732 32.2695 78.961 32.2822 78.9524C32.2948 78.9438 32.3097 78.9392 32.3249 78.9392C32.3402 78.9392 32.3551 78.9438 32.3678 78.9524C32.3804 78.961 32.3901 78.9732 32.3957 78.9875C32.5529 79.4931 32.9747 80.6772 33.6453 81.285C34.2815 81.8379 35.0555 82.2082 35.8852 82.3565C35.9026 82.3565 35.9192 82.3634 35.9315 82.3756C35.9438 82.3879 35.9507 82.4046 35.9507 82.422C35.9507 82.4393 35.9438 82.456 35.9315 82.4683C35.9192 82.4805 35.9026 82.4875 35.8852 82.4875C35.0555 82.6357 34.2815 83.006 33.6453 83.5589C32.9747 84.1667 32.5529 85.3508 32.3957 85.8564Z" fill="#FFD54A"/>
<path d="M47.328 89.3534C46.8459 89.2696 43.7153 88.7063 42.9556 87.9466C42.1959 87.1869 41.6457 84.0484 41.5619 83.5821C41.561 83.5699 41.561 83.5576 41.5619 83.5454C41.5619 83.5454 41.5619 83.5611 41.5619 83.569C41.4807 84.0379 40.92 87.1842 40.1577 87.9466C39.3953 88.7089 36.2569 89.2565 35.7906 89.3403H35.7539H35.7775C36.2464 89.4215 39.3927 89.9848 40.1551 90.7471C40.9174 91.5095 41.465 94.627 41.5488 95.109C41.5498 95.1221 41.5498 95.1352 41.5488 95.1483C41.5488 95.1483 41.5488 95.1326 41.5488 95.1221C41.6326 94.6374 42.1933 91.5068 42.953 90.7497C43.7127 89.9926 46.8328 89.4399 47.3149 89.356H47.3542L47.328 89.3534Z" fill="#FFF8B8"/>
<path d="M48.2267 106.93L24.4393 111.695L18.3746 112.913V112.929L1.14452 116.424C0.461497 115.542 0.094247 114.457 0.101673 113.342C0.109099 112.227 0.490752 111.147 1.18545 110.274C1.88016 109.402 2.84767 108.788 3.93284 108.531C5.018 108.275 6.15797 108.39 7.16995 108.858C7.15423 108.703 7.14897 108.541 7.14897 108.384C7.14692 107.394 7.39663 106.42 7.87458 105.553C8.35254 104.686 9.04307 103.954 9.88129 103.428C10.7195 102.901 11.6779 102.596 12.6664 102.541C13.6549 102.487 14.641 102.684 15.5322 103.116C15.8336 101.46 16.6897 99.9562 17.9596 98.852C19.2295 97.7477 20.8375 97.1087 22.519 97.0401C24.2004 96.9715 25.8551 97.4774 27.2108 98.4745C28.5664 99.4716 29.5422 100.901 29.9775 102.526C30.6617 101.63 31.5795 100.94 32.6302 100.531C33.681 100.123 34.824 100.011 35.9338 100.21C37.0435 100.408 38.0772 100.909 38.9213 101.656C39.7653 102.403 40.3872 103.369 40.7185 104.446C41.2818 103.875 41.9903 103.467 42.7678 103.267C43.5453 103.068 44.3625 103.084 45.1316 103.313C45.9007 103.543 46.5928 103.978 47.1335 104.571C47.6742 105.165 48.043 105.894 48.2005 106.681C48.2136 106.747 48.2241 106.812 48.2346 106.872C48.245 106.932 48.2241 106.914 48.2267 106.93Z" fill="url(#paint26_linear_3690_12149)"/>
<path d="M158 75H0V184H158V75Z" fill="url(#paint27_linear_3690_12149)"/>
<path d="M158 69H0V181H158V69Z" fill="url(#paint28_linear_3690_12149)"/>
</g>
<defs>
<radialGradient id="paint0_radial_3690_12149" cx="0" cy="0" r="1" gradientUnits="userSpaceOnUse" gradientTransform="translate(168.7 265.66) scale(329.61 329.61)">
<stop stop-color="#FFD000"/>
<stop offset="0.04" stop-color="#FFC80F"/>
<stop offset="0.12" stop-color="#FFB336"/>
<stop offset="0.23" stop-color="#FF9176"/>
<stop offset="0.37" stop-color="#FF62CC"/>
<stop offset="0.44" stop-color="#FF47FF"/>
<stop offset="0.59" stop-color="#CB30E3"/>
<stop offset="0.78" stop-color="#9016C3"/>
<stop offset="0.93" stop-color="#6B06B0"/>
<stop offset="1" stop-color="#5D00A8"/>
</radialGradient>
<linearGradient id="paint1_linear_3690_12149" x1="86.4252" y1="52.7818" x2="88.3141" y2="68.8959" gradientUnits="userSpaceOnUse">
<stop stop-color="#FFFCAD"/>
<stop offset="0.18" stop-color="#FFF5B2"/>
<stop offset="0.43" stop-color="#FFE3C2"/>
<stop offset="0.73" stop-color="#FFC4DA"/>
<stop offset="1" stop-color="#FFA3F5"/>
</linearGradient>
<linearGradient id="paint2_linear_3690_12149" x1="71.4701" y1="88.9157" x2="16.3479" y2="100.741" gradientUnits="userSpaceOnUse">
<stop stop-color="#FF307F"/>
<stop offset="0.38" stop-color="#F6259C"/>
<stop offset="1" stop-color="#E410D3"/>
</linearGradient>
<linearGradient id="paint3_linear_3690_12149" x1="39.5746" y1="52.8549" x2="-10.164" y2="79.0891" gradientUnits="userSpaceOnUse">
<stop stop-color="#F8FF38"/>
<stop offset="0.03" stop-color="#F8EE41"/>
<stop offset="0.14" stop-color="#FAB75E"/>
<stop offset="0.26" stop-color="#FB8678"/>
<stop offset="0.37" stop-color="#FC5D8E"/>
<stop offset="0.49" stop-color="#FD3BA0"/>
<stop offset="0.61" stop-color="#FE21AD"/>
<stop offset="0.73" stop-color="#FF0FB7"/>
<stop offset="0.86" stop-color="#FF04BD"/>
<stop offset="1" stop-color="#FF00BF"/>
</linearGradient>
<linearGradient id="paint4_linear_3690_12149" x1="50.1479" y1="54.2885" x2="-33.7313" y2="74.7305" gradientUnits="userSpaceOnUse">
<stop stop-color="#8FFF05"/>
<stop offset="0.17" stop-color="#D0EF28"/>
<stop offset="0.26" stop-color="#F2E63A"/>
<stop offset="0.32" stop-color="#F5D346"/>
<stop offset="0.41" stop-color="#F8B957"/>
<stop offset="0.51" stop-color="#FBA565"/>
<stop offset="0.62" stop-color="#FD976E"/>
<stop offset="0.76" stop-color="#FF8F73"/>
<stop offset="1" stop-color="#FF8C75"/>
</linearGradient>
<linearGradient id="paint5_linear_3690_12149" x1="68.7194" y1="90.3393" x2="64.9667" y2="76.4385" gradientUnits="userSpaceOnUse">
<stop stop-color="#FF8F05"/>
<stop offset="0.46" stop-color="#FF8503"/>
<stop offset="1" stop-color="#FF7300"/>
</linearGradient>
<linearGradient id="paint6_linear_3690_12149" x1="44.2069" y1="37.1359" x2="57.6826" y2="66.1482" gradientUnits="userSpaceOnUse">
<stop stop-color="#FF7308"/>
<stop offset="0.31" stop-color="#FF7608"/>
<stop offset="0.5" stop-color="#FF7E07"/>
<stop offset="0.67" stop-color="#FF8D06"/>
<stop offset="0.82" stop-color="#FFA204"/>
<stop offset="0.95" stop-color="#FFBD01"/>
<stop offset="1" stop-color="#FFC800"/>
</linearGradient>
<linearGradient id="paint7_linear_3690_12149" x1="92.2976" y1="31.067" x2="87.0632" y2="57.2975" gradientUnits="userSpaceOnUse">
<stop stop-color="#FF8308"/>
<stop offset="0.24" stop-color="#FF8707"/>
<stop offset="0.49" stop-color="#FF9406"/>
<stop offset="0.75" stop-color="#FFAA03"/>
<stop offset="1" stop-color="#FFC500"/>
</linearGradient>
<linearGradient id="paint8_linear_3690_12149" x1="89.2583" y1="69.015" x2="58.6933" y2="25.0351" gradientUnits="userSpaceOnUse">
<stop stop-color="#FFDB57"/>
<stop offset="0.11" stop-color="#FFC635"/>
<stop offset="0.22" stop-color="#FFB61A"/>
<stop offset="0.28" stop-color="#FFB010"/>
<stop offset="1" stop-color="#FF8000"/>
</linearGradient>
<linearGradient id="paint9_linear_3690_12149" x1="40.4709" y1="30.659" x2="91.6923" y2="20.2056" gradientUnits="userSpaceOnUse">
<stop stop-color="#FFDB59"/>
<stop offset="1" stop-color="#FFB812"/>
</linearGradient>
<linearGradient id="paint10_linear_3690_12149" x1="69.7823" y1="95.3183" x2="68.8915" y2="91.7962" gradientUnits="userSpaceOnUse">
<stop stop-color="#FFC330"/>
<stop offset="1" stop-color="#FFDB59"/>
</linearGradient>
<linearGradient id="paint11_linear_3690_12149" x1="103.08" y1="89.1182" x2="91.8239" y2="75.5761" gradientUnits="userSpaceOnUse">
<stop stop-color="white"/>
<stop offset="1" stop-color="white" stop-opacity="0"/>
</linearGradient>
<linearGradient id="paint12_linear_3690_12149" x1="70.1859" y1="95.1216" x2="78.9744" y2="79.8295" gradientUnits="userSpaceOnUse">
<stop stop-color="white"/>
<stop offset="1" stop-color="white" stop-opacity="0"/>
</linearGradient>
<linearGradient id="paint13_linear_3690_12149" x1="75.3624" y1="59.5177" x2="96.2114" y2="62.5853" gradientUnits="userSpaceOnUse">
<stop stop-color="#FF98CA" stop-opacity="0"/>
<stop offset="1" stop-color="#FF98CA"/>
</linearGradient>
<linearGradient id="paint14_linear_3690_12149" x1="68.6019" y1="89.8962" x2="65.1254" y2="77.0168" gradientUnits="userSpaceOnUse">
<stop stop-color="#FF8F05"/>
<stop offset="0.46" stop-color="#FF8503"/>
<stop offset="1" stop-color="#FF7300"/>
</linearGradient>
<linearGradient id="paint15_linear_3690_12149" x1="65.1048" y1="76.4778" x2="65.0076" y2="96.3057" gradientUnits="userSpaceOnUse">
<stop stop-color="#FF7601"/>
<stop offset="0.05" stop-color="#FF7F07"/>
<stop offset="0.49" stop-color="#FFC838"/>
<stop offset="0.59" stop-color="#FFBF32"/>
<stop offset="0.74" stop-color="#FFA722"/>
<stop offset="0.94" stop-color="#FF8109"/>
<stop offset="1" stop-color="#FF7400"/>
</linearGradient>
<linearGradient id="paint16_linear_3690_12149" x1="66.8535" y1="74.8524" x2="74.1839" y2="93.2072" gradientUnits="userSpaceOnUse">
<stop stop-color="#FF7601"/>
<stop offset="0.05" stop-color="#FF7F07"/>
<stop offset="0.49" stop-color="#FFC838"/>
<stop offset="0.59" stop-color="#FFBF32"/>
<stop offset="0.74" stop-color="#FFA722"/>
<stop offset="0.94" stop-color="#FF8109"/>
<stop offset="1" stop-color="#FF7400"/>
</linearGradient>
<linearGradient id="paint17_linear_3690_12149" x1="44.57" y1="37.9432" x2="57.4114" y2="65.5901" gradientUnits="userSpaceOnUse">
<stop stop-color="#FF7308"/>
<stop offset="0.31" stop-color="#FF7608"/>
<stop offset="0.5" stop-color="#FF7E07"/>
<stop offset="0.67" stop-color="#FF8D06"/>
<stop offset="0.82" stop-color="#FFA204"/>
<stop offset="0.95" stop-color="#FFBD01"/>
<stop offset="1" stop-color="#FFC800"/>
</linearGradient>
<linearGradient id="paint18_linear_3690_12149" x1="92.1581" y1="31.7751" x2="87.1566" y2="56.8269" gradientUnits="userSpaceOnUse">
<stop stop-color="#FF8308"/>
<stop offset="0.24" stop-color="#FF8707"/>
<stop offset="0.49" stop-color="#FF9406"/>
<stop offset="0.75" stop-color="#FFAA03"/>
<stop offset="1" stop-color="#FFC500"/>
</linearGradient>
<linearGradient id="paint19_linear_3690_12149" x1="88.7922" y1="68.3476" x2="59.1094" y2="25.637" gradientUnits="userSpaceOnUse">
<stop stop-color="#FFDB57"/>
<stop offset="0.11" stop-color="#FFC635"/>
<stop offset="0.22" stop-color="#FFB61A"/>
<stop offset="0.28" stop-color="#FFB010"/>
<stop offset="1" stop-color="#FF8000"/>
</linearGradient>
<linearGradient id="paint20_linear_3690_12149" x1="81.5167" y1="46.8015" x2="78.4086" y2="72.994" gradientUnits="userSpaceOnUse">
<stop stop-color="#FF8308"/>
<stop offset="0.19" stop-color="#FF880C"/>
<stop offset="0.42" stop-color="#FF9619"/>
<stop offset="0.66" stop-color="#FFAD2F"/>
<stop offset="0.91" stop-color="#FFCD4D"/>
<stop offset="1" stop-color="#FFDB59"/>
</linearGradient>
<linearGradient id="paint21_linear_3690_12149" x1="85.0056" y1="21.6312" x2="43.7487" y2="29.9227" gradientUnits="userSpaceOnUse">
<stop stop-color="#FFE27A"/>
<stop offset="1" stop-color="#FFB812"/>
</linearGradient>
<linearGradient id="paint22_linear_3690_12149" x1="69.7846" y1="95.3236" x2="69.0401" y2="92.3734" gradientUnits="userSpaceOnUse">
<stop stop-color="#FFC330"/>
<stop offset="1" stop-color="#FFDB59"/>
</linearGradient>
<linearGradient id="paint23_linear_3690_12149" x1="102.498" y1="88.5833" x2="92.2427" y2="76.2451" gradientUnits="userSpaceOnUse">
<stop stop-color="white"/>
<stop offset="1" stop-color="white" stop-opacity="0"/>
</linearGradient>
<linearGradient id="paint24_linear_3690_12149" x1="70.6646" y1="94.4921" x2="78.6718" y2="80.5595" gradientUnits="userSpaceOnUse">
<stop stop-color="white"/>
<stop offset="1" stop-color="white" stop-opacity="0"/>
</linearGradient>
<linearGradient id="paint25_linear_3690_12149" x1="76.1414" y1="59.6322" x2="95.4362" y2="62.4711" gradientUnits="userSpaceOnUse">
<stop stop-color="#FF98CA" stop-opacity="0"/>
<stop offset="1" stop-color="#FF98CA"/>
</linearGradient>
<linearGradient id="paint26_linear_3690_12149" x1="42.2091" y1="98.3607" x2="6.34211" y2="115.601" gradientUnits="userSpaceOnUse">
<stop stop-color="#FFFCAD"/>
<stop offset="0.07" stop-color="#FFF2B5"/>
<stop offset="0.33" stop-color="#FFD0D0"/>
<stop offset="0.58" stop-color="#FFB7E4"/>
<stop offset="0.81" stop-color="#FFA8F0"/>
<stop offset="1" stop-color="#FFA3F4"/>
</linearGradient>
<linearGradient id="paint27_linear_3690_12149" x1="78.9979" y1="174.916" x2="78.9979" y2="96.0487" gradientUnits="userSpaceOnUse">
<stop stop-color="#4D0084"/>
<stop offset="1" stop-color="#7200CF" stop-opacity="0"/>
</linearGradient>
<linearGradient id="paint28_linear_3690_12149" x1="78.9979" y1="171.666" x2="78.9979" y2="90.628" gradientUnits="userSpaceOnUse">
<stop stop-color="#4D0084"/>
<stop offset="1" stop-color="#7200CF" stop-opacity="0"/>
</linearGradient>
<clipPath id="clip0_3690_12149">
<rect width="158" height="158" fill="white"/>
</clipPath>
</defs>
</svg>
